<svg xmlns="http://www.w3.org/2000/svg" width="141.264" height="29.377"><g data-name="Group 60" fill="#00f"><path data-name="Path 127" d="M88.39 6.059c-1.247 1.043-2.432 2.034-3.648 3.054-.161-.171-.331-.329-.474-.51a10.824 10.824 0 0 0-4.25-3.347 10.284 10.284 0 0 0-5.18-.732 9.764 9.764 0 0 0-4.966 1.915 10.285 10.285 0 0 0-2.055 2.019 9.567 9.567 0 0 0-1.061 10.821 10.192 10.192 0 0 0 7.623 5.512 9.267 9.267 0 0 0 4.92-.523 10.9 10.9 0 0 0 2.5-1.428 6.722 6.722 0 0 0 2.679-3.839c.064-.245.15-.482.242-.778h-8.164v-4.456c.127-.005.255-.018.382-.018q6.206 0 12.416-.008c.306 0 .4.074.416.393a15.752 15.752 0 0 1-.158 4.171 12.717 12.717 0 0 1-2.2 5.44 14.026 14.026 0 0 1-5.647 4.349 14.74 14.74 0 0 1-11.809.071 15.028 15.028 0 0 1-5.035-3.437 14.249 14.249 0 0 1-2.46-3.439 13.963 13.963 0 0 1-.314-12.627 11.865 11.865 0 0 1 2.389-3.618 19.146 19.146 0 0 1 2.509-2.218A15.034 15.034 0 0 1 74.173.108a15.508 15.508 0 0 1 8.632 1.377 13.431 13.431 0 0 1 4.005 2.894l1.58 1.68z"/><path data-name="Path 128" d="M126.346 29.376a16.32 16.32 0 0 1-6.69-1.379 15.361 15.361 0 0 1-5.142-3.776 14.55 14.55 0 0 1-2.488-4.008 13.98 13.98 0 0 1-.316-10.376 12.1 12.1 0 0 1 2.47-4.268 20.716 20.716 0 0 1 2.328-2.259 14.608 14.608 0 0 1 8.306-3.258 16.07 16.07 0 0 1 7.016.987 19.988 19.988 0 0 1 2.014 1 14.05 14.05 0 0 1 2.628 1.96 15.359 15.359 0 0 1 2.509 2.957A14.547 14.547 0 0 1 139.346 22a14.066 14.066 0 0 1-2.491 3.159 15.385 15.385 0 0 1-8.928 4.1c-.609.059-1.209.089-1.581.117zm10.142-15.1a9.1 9.1 0 0 0-2.575-6.356 12.492 12.492 0 0 0-2.386-1.971 10.637 10.637 0 0 0-7.646-1.265 9.907 9.907 0 0 0-4.739 2.356 9.377 9.377 0 0 0-2.514 3.345 9.839 9.839 0 0 0 .637 9.652 9.974 9.974 0 0 0 2.254 2.557 10.576 10.576 0 0 0 15.062-1.927 9.893 9.893 0 0 0 1.907-6.393z"/><path data-name="Path 129" d="M.003 14.656V.951c0-.472 0-.474.459-.472 2.4.005 4.8-.033 7.192.031a20.867 20.867 0 0 1 7.294 1.4 13.445 13.445 0 0 1 4.839 3.332 12.759 12.759 0 0 1 2.654 4.433 14.623 14.623 0 0 1 .219 9.428 11.646 11.646 0 0 1-2.46 4.51 17.572 17.572 0 0 1-2.21 2.124 14.051 14.051 0 0 1-5.435 2.506 30.706 30.706 0 0 1-7.493.688c-1.527-.008-3.054 0-4.581 0-.479 0-.479 0-.479-.495Q0 21.544.003 14.656zm4.964 9.785c.117.015.176.026.235.028a26.724 26.724 0 0 0 5.025-.306 10.243 10.243 0 0 0 5.048-2.187 9.171 9.171 0 0 0 2.634-3.845 10.374 10.374 0 0 0 .533-2.575 9.406 9.406 0 0 0-1.593-6.437 9.049 9.049 0 0 0-5.723-3.712 24.889 24.889 0 0 0-5.685-.484c-.469 0-.472 0-.472.467v18.636c-.003.127-.003.257-.003.415z"/><path data-name="Path 130" d="M61.642 28.91c-.171.008-.288.018-.408.018-1.491 0-2.983-.008-4.472.008a.5.5 0 0 1-.548-.372q-.558-1.411-1.165-2.8c-.5-1.163-1.033-2.315-1.548-3.467a15.845 15.845 0 0 1-11.317-.107c-.444 1.038-.877 2.052-1.313 3.067-.247.581-.489 1.162-.75 1.739s-.535 1.16-.823 1.731a.394.394 0 0 1-.283.2c-1.611.01-3.22.008-4.831.005a1.042 1.042 0 0 1-.191-.046c.319-.706.63-1.4.943-2.085.048-.1.125-.2.173-.3.716-1.637 1.42-3.279 2.144-4.91.852-1.922 1.716-3.839 2.577-5.759.719-1.6 1.446-3.2 2.164-4.808q1.384-3.09 2.766-6.182c.622-1.387 1.257-2.769 1.874-4.155a.4.4 0 0 1 .421-.293c.607.015 1.216.013 1.825 0a.4.4 0 0 1 .423.291q1.423 3.289 2.858 6.572 1.266 2.91 2.537 5.815 1.2 2.761 2.417 5.519l2.524 5.782 1.8 4.071c.066.125.122.267.203.466zM47.914 8.852c-1.356 3.179-2.674 6.261-3.992 9.349a13.138 13.138 0 0 0 7.867.033c-1.277-3.098-2.557-6.191-3.875-9.382z"/><path data-name="Path 131" d="M107.955 15.641h-10.2v8.818h11.109c.015.143.033.245.036.347 0 1.252-.005 2.506.008 3.758 0 .278-.079.372-.365.372q-7.622-.011-15.243 0c-.344 0-.347-.171-.347-.423q.008-5.044 0-10.091V.51h15.893v4.416h-.467c-3.4 0-6.8.005-10.2-.008-.359 0-.467.089-.461.456q.027 2.7 0 5.4c0 .339.084.449.436.446 3.1-.013 6.2-.008 9.3-.008h.51c-.009 1.487-.009 2.942-.009 4.429z"/><path data-name="Path 132" d="M31.973 28.908h-4.72V.508h4.72z"/></g></svg>