<svg xmlns="http://www.w3.org/2000/svg" width="119.416" height="117.82"><g data-name="Group 59" fill="#00f"><path data-name="Path 92" d="M0 100.925a1.807 1.807 0 0 0 .119-.289 3.93 3.93 0 0 1 1.683-2.453 6.184 6.184 0 0 1 2.348-.91 21.316 21.316 0 0 1 3.247-.39c.542-.029 1.087-.054 1.654-.083a1.887 1.887 0 0 0-.022-.639 2.651 2.651 0 0 0-2.377-2.3 7.1 7.1 0 0 0-3.468.415l-.238.09c-.079.029-.141.051-.224.083a3.155 3.155 0 0 1-.358-.7c-.112-.228-.213-.462-.329-.715a1.831 1.831 0 0 1 .213-.1 10.523 10.523 0 0 1 4.992-.545 5.44 5.44 0 0 1 1.969.654 3.694 3.694 0 0 1 1.907 3.052 6.2 6.2 0 0 1 .018.578v8.073a2.859 2.859 0 0 1-1.352-.176 1.086 1.086 0 0 1-.639-.755c-.025-.09-.043-.184-.072-.314-.116.065-.217.116-.314.17a10.773 10.773 0 0 1-2.467 1.141 6.137 6.137 0 0 1-3.544.047 3.579 3.579 0 0 1-2.622-2.767 1.506 1.506 0 0 0-.116-.26C0 101.525 0 101.225 0 100.925zm9.052-2.482a1.568 1.568 0 0 0-.173-.007c-1.037.061-2.073.094-3.107.2a11.2 11.2 0 0 0-1.853.365 2.48 2.48 0 0 0-1.6 1.3 1.867 1.867 0 0 0 1.062 2.695 3.184 3.184 0 0 0 1.423.166 10.69 10.69 0 0 0 4.024-1.232.41.41 0 0 0 .246-.43c-.011-.921 0-1.842-.007-2.76a2.948 2.948 0 0 0-.015-.297z"/><path data-name="Path 93" d="M42.837 117.817v-1.983h-6.444v-5.238a3.327 3.327 0 0 1 .852-.018v4.443a8.582 8.582 0 0 0 2 .018v-4.472h.889v4.5h1.98v-4.476h.885v4.469c.21.022.383.036.589.058v2.352c0 .116.011.235.018.35-.256-.003-.512-.003-.769-.003z"/><path data-name="Path 94" d="M70.775 117.816q.005-3.419.007-6.838v-.394h.8c.011.173.018.347.033.564a1.157 1.157 0 0 0 .137-.112 1.964 1.964 0 0 1 2.919.141 2.864 2.864 0 0 1 .585 1.47 3.87 3.87 0 0 1-.116 1.589 2.218 2.218 0 0 1-1.831 1.68 1.673 1.673 0 0 1-1.333-.332 3.465 3.465 0 0 1-.242-.2.172.172 0 0 0-.04.022.046.046 0 0 0-.014.025q-.005 1.187 0 2.377c-.305.008-.605.008-.905.008zm.769-4.595a3.534 3.534 0 0 0 .253 1.2 1.253 1.253 0 0 0 2.229.181 1.642 1.642 0 0 0 .217-.462 3.535 3.535 0 0 0 .007-1.929 1.487 1.487 0 0 0-.52-.791 1.116 1.116 0 0 0-1.47.018 1.49 1.49 0 0 0-.527.787c-.08.326-.127.664-.189.996z"/><path data-name="Path 95" d="M43.596 34.481a4.556 4.556 0 0 1 .5-.26 21.518 21.518 0 0 1 7.987-1.365 17.255 17.255 0 0 1 6.964 1.691 37.574 37.574 0 0 1 4.259 2.435c.61.394 1.228.78 1.831 1.188a29.522 29.522 0 0 0 6.441 3.226c1.156.419 2.3.881 3.432 1.355a12.2 12.2 0 0 1 2.11 1.152 9.507 9.507 0 0 1 3.179 3.507 16.493 16.493 0 0 1 1.839 6.563 19.711 19.711 0 0 1-1.7 9.348 26.337 26.337 0 0 1-5.209 7.774 28.619 28.619 0 0 1-11.1 7.315 25.542 25.542 0 0 1-5.866 1.337 26.5 26.5 0 0 1-4.934.1 27.053 27.053 0 0 1-10.591-2.948 25.343 25.343 0 0 1-5.469-3.742l-.336-.314a1.279 1.279 0 0 1 .181-.036 22.21 22.21 0 0 0 10.241-2.553c1.239-.632 2.435-1.344 3.648-2.019l.329-.188c.054.264.094.5.152.733a3.367 3.367 0 0 0 2.041 2.435 6.673 6.673 0 0 0 2.117.491c.426.036.856.04 1.282.051.116 0 .231-.018.383-.029 0-.163.014-.307.014-.455V51.395c0-1.586.014-3.168-.014-4.754a11.785 11.785 0 0 0-1.586-5.852 11.315 11.315 0 0 0-4.392-4.172 16.7 16.7 0 0 0-5.2-1.777c-.81-.141-1.63-.231-2.533-.359zM75.94 48.796a4.594 4.594 0 0 0-.759-2.669 7.781 7.781 0 0 0-4.353-3.251 3.315 3.315 0 0 0-1.394-.144c-.177.022-.4.04-.462.228s.108.311.231.426c.358.336.719.672 1.094.99a11.078 11.078 0 0 1 2.792 3.6c.275.556.553 1.109.845 1.654a3.683 3.683 0 0 0 .4.614c.275.332.5.343.813.058a2.231 2.231 0 0 0 .793-1.504z"/><path data-name="Path 96" d="M51.352 52.699c.007.141.022.246.022.347q0 4.752.007 9.5a.482.482 0 0 1-.253.466 22.146 22.146 0 0 1-4.01 1.933 33.947 33.947 0 0 1-7.373 1.907 15.867 15.867 0 0 1-3.677.155 7.806 7.806 0 0 1-3.15-.907 7.592 7.592 0 0 1-.878-.589 2.774 2.774 0 0 1-1.033-1.391 52.62 52.62 0 0 0-.8-2.334 3.044 3.044 0 0 1-.047-1.8 7.227 7.227 0 0 1 2.731-4.111 10.624 10.624 0 0 1 4.418-1.958 41.976 41.976 0 0 1 4.591-.719c2-.206 4.006-.325 6.018-.394 1.026-.033 2.052-.079 3.078-.116.107.007.219.011.356.011z"/><path data-name="Path 97" d="M75.893 27.788c-.545.047-.928-.014-1.12-.867-.061-.271-.094-.549-.141-.824-.025-.137-.047-.275-.083-.408a1.339 1.339 0 0 0-1.568-1.105c-.444.018-.506 0-.672-.412-.134-.325-.238-.665-.394-.983a1.178 1.178 0 0 0-1.481-.621 1 1 0 0 0-.535 1.55 4.008 4.008 0 0 0 .4.455c.166.181.347.35.5.542s.155.293.007.517a3.36 3.36 0 0 0-.26.441 1.03 1.03 0 0 0 .123 1.12 2.843 2.843 0 0 0 .423.437c.238.2.5.372.741.564a4.24 4.24 0 0 1 .5.444.618.618 0 0 1 .054.874 10.483 10.483 0 0 1-2.034 2.214 4.436 4.436 0 0 1-.7.448 1.276 1.276 0 0 1-1.206.032 3.958 3.958 0 0 1-.867-.538 17.033 17.033 0 0 1-1.217-1.232 10.949 10.949 0 0 1-.7-.874.611.611 0 0 1 .018-.874 3.24 3.24 0 0 1 .448-.412c.206-.17.433-.314.639-.488a4.222 4.222 0 0 0 .491-.459 1.13 1.13 0 0 0 .152-1.394 2.137 2.137 0 0 0-.21-.322.358.358 0 0 1-.011-.473c.123-.177.264-.336.39-.509a4.739 4.739 0 0 0 .444-.665.861.861 0 0 0-.347-1.167.921.921 0 0 0-1.272.155 3.429 3.429 0 0 0-.329.585c-.108.22-.2.448-.307.672a.624.624 0 0 1-.7.379 1.292 1.292 0 0 0-1.561 1.091c-.083.343-.123.694-.2 1.04a3.972 3.972 0 0 1-.188.643.631.631 0 0 1-.632.415 9.758 9.758 0 0 1-3.572-.675 2.924 2.924 0 0 1-.6-.365.926.926 0 0 1-.4-.863 5.344 5.344 0 0 1 .173-1.105c.249-.773.538-1.532.834-2.287a.7.7 0 0 1 .831-.5 3.791 3.791 0 0 1 .715.163c.379.112.748.264 1.131.361a1.383 1.383 0 0 0 1.792-.773.434.434 0 0 1 .462-.264c.35.029.7.076 1.055.1a3.929 3.929 0 0 0 .8-.007.825.825 0 0 0 .715-.65.977.977 0 0 0-.264-.975 1.267 1.267 0 0 0-1.058-.358 6.107 6.107 0 0 0-.661.13c-.137.029-.267.072-.4.094-.383.061-.459.018-.636-.318a1.387 1.387 0 0 0-1.784-.791c-.394.1-.769.267-1.156.379a4.771 4.771 0 0 1-.813.166.64.64 0 0 1-.675-.4 12.01 12.01 0 0 1-1.026-2.93 1.987 1.987 0 0 1-.025-.256 1.252 1.252 0 0 1 .852-1.481 5.842 5.842 0 0 1 1.716-.513 24.372 24.372 0 0 1 1.784-.213.79.79 0 0 1 .975.7c.087.35.134.715.2 1.073.025.126.051.253.087.376a1.324 1.324 0 0 0 1.365 1.044 1.917 1.917 0 0 0 .321-.011.4.4 0 0 1 .448.235c.09.181.159.372.235.56a7.981 7.981 0 0 0 .314.769 1.126 1.126 0 0 0 1.358.491 1.09 1.09 0 0 0 .69-1.264 1.37 1.37 0 0 0-.264-.5c-.141-.184-.325-.34-.484-.513a3.8 3.8 0 0 1-.325-.4.354.354 0 0 1 0-.448 1.117 1.117 0 0 0 .011-1.376 6.056 6.056 0 0 0-.517-.694c-.238-.289-.5-.556-.741-.845a2.832 2.832 0 0 1-.311-.484.471.471 0 0 1 .054-.542 11.579 11.579 0 0 1 2-2.12 5.289 5.289 0 0 1 .73-.462 1.3 1.3 0 0 1 1.264 0 4.634 4.634 0 0 1 .78.5 10.64 10.64 0 0 1 1.9 2.124.486.486 0 0 1 .025.545 2.943 2.943 0 0 1-.358.527c-.275.329-.582.629-.849.964a4.319 4.319 0 0 0-.491.784.957.957 0 0 0 .072.979c.2.325.2.419-.036.712-.108.134-.228.253-.343.383-.144.159-.3.311-.426.48-.325.426-.394.719.033 1.344a.954.954 0 0 0 1.174.321 1.157 1.157 0 0 0 .73-.632c.1-.235.188-.477.282-.715.051-.13.09-.264.148-.39.134-.3.224-.332.545-.332a4.534 4.534 0 0 0 .8-.047 1.112 1.112 0 0 0 .943-.852 6.555 6.555 0 0 0 .141-.885c.033-.242.036-.491.079-.733a.7.7 0 0 1 .845-.675 11.738 11.738 0 0 1 3.175.589 4.261 4.261 0 0 1 .722.343 1.15 1.15 0 0 1 .582 1.008 3.773 3.773 0 0 1-.17 1.268 10.925 10.925 0 0 1-.968 2.232.689.689 0 0 1-.892.368c-.285-.083-.556-.217-.834-.325-.318-.123-.632-.264-.961-.358a1.192 1.192 0 0 0-1.322.426 2.466 2.466 0 0 0-.347.535.427.427 0 0 1-.491.264c-.264-.04-.524-.1-.787-.148s-.527-.076-.795-.1a1.208 1.208 0 0 0-1.084.979 1.152 1.152 0 0 0 .694 1.095 1.582 1.582 0 0 0 .889.018c.3-.054.607-.13.91-.188.4-.076.506-.022.7.325a1.355 1.355 0 0 0 1.665.744c.383-.09.751-.242 1.131-.358a5.414 5.414 0 0 1 .773-.2.666.666 0 0 1 .751.372 10.786 10.786 0 0 1 1.1 2.966 1.434 1.434 0 0 1-.968 1.846 6.816 6.816 0 0 1-1.824.488c-.477.07-.958.11-1.438.16z"/><path data-name="Path 98" d="M29.324 52.055c.04-.34.069-.61.1-.881a16.385 16.385 0 0 1 3.916-8.608c.564-.657 1.167-1.282 1.766-1.907a1.849 1.849 0 0 1 .545-.379 10.722 10.722 0 0 1 3.76-1 22.023 22.023 0 0 1 4.8.072 11.247 11.247 0 0 1 2.763.679 6.374 6.374 0 0 1 4.002 4.457 11.553 11.553 0 0 1 .4 3.045c0 .072-.011.145-.018.235-.069.011-.13.025-.191.029-1.1.047-2.2.083-3.3.134-1.976.094-3.952.224-5.92.433a50.64 50.64 0 0 0-6.325 1.044 18.79 18.79 0 0 0-5.83 2.355 14.7 14.7 0 0 0-.468.292z"/><path data-name="Path 99" d="M40.605 18.335c.04-.361.061-.65.1-.936s.141-.383.433-.426a4.016 4.016 0 0 1 .509-.029c.213-.007.43 0 .639-.018a.7.7 0 0 0 .719-.683c.029-.264.177-.34.383-.4.257-.072.517-.134.769-.224a.463.463 0 0 0 .314-.477.58.58 0 0 0-.336-.513.587.587 0 0 0-.5 0 4.578 4.578 0 0 0-.52.249.478.478 0 0 1-.636-.051.813.813 0 0 0-1.04-.076c-.163.1-.314.22-.473.332-.141.1-.275.21-.423.293a.5.5 0 0 1-.7-.076c-.354-.354-.686-.733-1.022-1.105a1.551 1.551 0 0 1-.159-.242c-.343-.6-.3-.925.256-1.315.524-.365 1.091-.675 1.647-.986a.45.45 0 0 1 .629.137 3.821 3.821 0 0 1 .275.394c.1.152.188.311.3.455a.834.834 0 0 0 1.044.336.491.491 0 0 1 .6.152 6.084 6.084 0 0 0 .441.423.633.633 0 0 0 1.105-.4.63.63 0 0 0-.415-.625 18.515 18.515 0 0 1-.491-.235.279.279 0 0 1-.173-.358.783.783 0 0 0-.556-1.058c-.188-.079-.387-.13-.574-.2a3.96 3.96 0 0 1-.441-.191.361.361 0 0 1-.2-.43 4.821 4.821 0 0 1 .968-2 .807.807 0 0 1 .813-.278 3.613 3.613 0 0 1 .82.26c.423.2.827.444 1.235.683a.4.4 0 0 1 .184.574 2.565 2.565 0 0 1-.188.336c-.09.144-.2.282-.282.43a.749.749 0 0 0 .21 1.185c.184.148.2.181.116.408-.061.17-.141.336-.213.5a.649.649 0 0 0 .834.878.7.7 0 0 0 .5-.647c.007-.181-.014-.365-.025-.545a.342.342 0 0 1 .278-.4.652.652 0 0 0 .491-.542c.047-.271.054-.553.076-.827.018-.2.025-.4.054-.607a.371.371 0 0 1 .307-.325 7.012 7.012 0 0 1 2.03-.246.947.947 0 0 1 .993.827 4.878 4.878 0 0 1 .011 1.817.421.421 0 0 1-.376.343c-.282.065-.567.1-.849.159a3.72 3.72 0 0 0-.589.155.7.7 0 0 0-.495.578c-.025.206-.163.264-.329.293-.2.033-.4.043-.607.076a.753.753 0 0 0-.542.246.615.615 0 0 0-.094.632.553.553 0 0 0 .506.383 1.494 1.494 0 0 0 .556-.108 4.8 4.8 0 0 0 .542-.278.324.324 0 0 1 .408.043.933.933 0 0 0 1.485-.054 5.858 5.858 0 0 1 .5-.452.476.476 0 0 1 .719.025 5.976 5.976 0 0 1 1.16 1.409 2.437 2.437 0 0 1 .123.26.791.791 0 0 1-.2.964 2.142 2.142 0 0 1-.4.325c-.462.267-.932.527-1.409.762a.485.485 0 0 1-.69-.206 3.2 3.2 0 0 1-.173-.307c-.058-.112-.112-.231-.173-.343a.872.872 0 0 0-1.228-.473c-.329.116-.376.1-.6-.163a5.43 5.43 0 0 0-.4-.455.679.679 0 0 0-.679-.181.576.576 0 0 0-.462.473.56.56 0 0 0 .26.636c.2.119.412.228.618.343.256.148.264.17.213.455a.745.745 0 0 0 .5.946c.155.069.321.116.484.17.123.04.249.069.368.112.452.166.535.325.365.78-.152.412-.325.813-.495 1.217a2.745 2.745 0 0 1-.184.336.916.916 0 0 1-1.243.488 7.157 7.157 0 0 1-1.062-.441 7.642 7.642 0 0 1-.777-.455.4.4 0 0 1-.173-.578 4.151 4.151 0 0 1 .26-.441c.1-.163.217-.321.3-.491a.672.672 0 0 0-.21-.936c-.3-.249-.3-.256-.173-.614a3.64 3.64 0 0 0 .188-.643.609.609 0 0 0-.6-.679.62.62 0 0 0-.7.582c-.011.224 0 .448 0 .675a.3.3 0 0 1-.26.343.951.951 0 0 0-.683 1c.033.22.083.441.123.661a1.15 1.15 0 0 1 .029.224.428.428 0 0 1-.347.477 7.44 7.44 0 0 1-2.091.271.935.935 0 0 1-1-.816 8.249 8.249 0 0 1-.13-.926z"/><path data-name="Path 100" d="M52.627 88.159a1.315 1.315 0 0 1-.95 1.6 4.682 4.682 0 0 1-.95.116 15.643 15.643 0 0 0-2.9.256 6.238 6.238 0 0 0-1.889.7 3.329 3.329 0 0 0-1.326 1.4 7.583 7.583 0 0 0-.668 2.308c.141-.087.235-.141.329-.2a7.521 7.521 0 0 1 2.825-1.091 6.112 6.112 0 0 1 3.038.256 4.588 4.588 0 0 1 2.807 2.612 6.452 6.452 0 0 1-.65 6.556 5.569 5.569 0 0 1-5.209 2.38 6.5 6.5 0 0 1-1.416-.249 4.889 4.889 0 0 1-2.814-2.157 7.1 7.1 0 0 1-1.008-2.651 15.5 15.5 0 0 1 .412-7.239l.036-.123a5.719 5.719 0 0 1 4.208-3.981 13.806 13.806 0 0 1 3.45-.506c.8-.018 1.6-.007 2.409-.007.082.006.176.017.266.02zm-8.846 9.688c.047.5.079 1.055.163 1.6a5.9 5.9 0 0 0 .787 2.254 3.166 3.166 0 0 0 2.583 1.618 3.391 3.391 0 0 0 3.551-2.048 5.412 5.412 0 0 0 .253-3.793 3.152 3.152 0 0 0-2.355-2.312 4.916 4.916 0 0 0-1.235-.145 6.892 6.892 0 0 0-3.435 1.011.323.323 0 0 0-.181.278c-.045.497-.088.988-.131 1.537z"/><path data-name="Path 101" d="M87.51 104.151v4.945a1.71 1.71 0 0 1-2.211-1.586 5.7 5.7 0 0 1-.025-.61V92.8h2.207c.069.361-.011.737.047 1.109.141.022.213-.087.3-.152a7.025 7.025 0 0 1 2.608-1.192 4.8 4.8 0 0 1 5.115 2.066 6.43 6.43 0 0 1 1.011 2.644 7.348 7.348 0 0 1-.358 3.887 5.637 5.637 0 0 1-4.085 3.648 6.425 6.425 0 0 1-3.959-.383c-.199-.078-.386-.164-.65-.276zm0-1.651a6.791 6.791 0 0 0 3.424.6 3.574 3.574 0 0 0 3.226-2.586 6.431 6.431 0 0 0 .224-2.7 4.863 4.863 0 0 0-.415-1.575 2.976 2.976 0 0 0-1.965-1.712 3.725 3.725 0 0 0-1.622-.054 6.888 6.888 0 0 0-2.586 1.076.539.539 0 0 0-.285.517c.011 2.034.007 4.067.007 6.1-.012.106-.012.211-.012.334z"/><path data-name="Path 102" d="M72.909 104.212v4.916a2.286 2.286 0 0 1-1.42-.253 1.5 1.5 0 0 1-.708-1.2 5.941 5.941 0 0 1-.047-.8q-.005-6.854 0-13.712v-.364h2.167v1.188c.152-.1.246-.155.332-.22a7.079 7.079 0 0 1 2.669-1.21 4.784 4.784 0 0 1 5.166 2.211 6.642 6.642 0 0 1 .921 2.579 7.088 7.088 0 0 1-.5 4.053 5.759 5.759 0 0 1-3.973 3.4 6.2 6.2 0 0 1-3.807-.325c-.238-.09-.473-.2-.712-.289-.006.005-.019.013-.088.026zm0-1.737c.054.033.079.054.108.069a6.758 6.758 0 0 0 3.284.56 3.564 3.564 0 0 0 3.215-2.464 6.185 6.185 0 0 0 .275-2.753 4.82 4.82 0 0 0-.52-1.839 2.932 2.932 0 0 0-2.077-1.568 3.89 3.89 0 0 0-1.4-.011 6.98 6.98 0 0 0-2.615 1.087.535.535 0 0 0-.278.52c.011 2.03.007 4.064.007 6.094.005.11.005.215.005.305z"/><path data-name="Path 103" d="M67.159 98.978h-8.3a1.168 1.168 0 0 1 .921-1.456 6.107 6.107 0 0 1 1.178-.1c1.326-.011 2.655 0 3.981 0h.34a2.818 2.818 0 0 0-1.539-2.89 4.282 4.282 0 0 0-4.439.448 3.242 3.242 0 0 0-1.286 2.218 7.394 7.394 0 0 0 .249 3.428 3.479 3.479 0 0 0 3.128 2.561 6.929 6.929 0 0 0 4.624-1.2l.289-.191c.4.426.791.845 1.206 1.286-.188.152-.347.293-.52.415a7.961 7.961 0 0 1-3.284 1.387 8.093 8.093 0 0 1-3.843-.159 5.377 5.377 0 0 1-3.97-4.324 7.318 7.318 0 0 1 .6-4.725 5.431 5.431 0 0 1 4.024-3.078 7.521 7.521 0 0 1 3.186.04 4.306 4.306 0 0 1 3.479 3.7 8.8 8.8 0 0 1 .051 2.366 1.566 1.566 0 0 1-.033.188c-.01.021-.028.05-.042.086z"/><path data-name="Path 104" d="M23.111 103.505c-.477.235-.9.462-1.34.657a6.693 6.693 0 0 1-2.579.592 4.438 4.438 0 0 1-4.674-3.8 8.31 8.31 0 0 1-.134-1.434c-.011-2.12 0-4.237 0-6.358v-.361h2.178v6.423a4.876 4.876 0 0 0 .256 1.672 2.7 2.7 0 0 0 2.489 1.9 5.341 5.341 0 0 0 2.33-.354c.419-.152.82-.365 1.235-.535a.379.379 0 0 0 .253-.419c-.007-2.066 0-4.132 0-6.195v-2.492h2.128c.072.228.108 11.1.036 11.9a.954.954 0 0 1-.585.033 4.4 4.4 0 0 1-.751-.155 1.153 1.153 0 0 1-.842-1.074z"/><path data-name="Path 105" d="M110.692 104.747a2.552 2.552 0 0 1-1.792-.43 1.134 1.134 0 0 1-.376-.834c-.119.065-.22.119-.318.177a8.09 8.09 0 0 1-2.785 1.022 4.892 4.892 0 0 1-3.46-.607 4.367 4.367 0 0 1-1.951-2.937 7.315 7.315 0 0 1-.152-1.43c-.014-2.193 0-4.389 0-6.581v-.282a10.569 10.569 0 0 1 2.1-.036c0 .119.014.242.014.365v5.78a6.625 6.625 0 0 0 .134 1.532 2.834 2.834 0 0 0 3.045 2.341 7.433 7.433 0 0 0 3.233-.957.274.274 0 0 0 .159-.282c-.007-.4 0-.791 0-1.188v-7.593h2.149z"/><path data-name="Path 106" d="M39.468 94.467l-1.178 1.25c-.52-.282-1-.571-1.5-.806a6.612 6.612 0 0 0-2.756-.665 3.715 3.715 0 0 0-3.941 3.1 6.1 6.1 0 0 0 .04 2.987 3.647 3.647 0 0 0 3.659 2.886 7.4 7.4 0 0 0 4.179-1.253l.289-.188c.4.423.787.842 1.2 1.282-.116.1-.21.184-.311.26a8.329 8.329 0 0 1-4.28 1.658 7.892 7.892 0 0 1-3.049-.264 5.3 5.3 0 0 1-3.833-3.833 7.575 7.575 0 0 1 .043-4.4 5.176 5.176 0 0 1 3.7-3.645 8.265 8.265 0 0 1 7.318 1.286c.145.103.263.222.42.345z"/><path data-name="Path 107" d="M56.77 2.095a2.445 2.445 0 0 0 .022.394.886.886 0 0 0 .148.343.3.3 0 0 0 .376.083.394.394 0 0 0 .191-.4 1.9 1.9 0 0 0-.123-.3.251.251 0 0 1 .076-.336c.289-.264.293-.4.058-.708-.361-.466-.365-.488.145-.777a4.873 4.873 0 0 1 .722-.34.464.464 0 0 1 .657.224 6.573 6.573 0 0 1 .415.936c.069.181 0 .271-.191.34-.13.047-.271.069-.4.112-.293.1-.379.22-.329.527a.237.237 0 0 1-.137.285 2.459 2.459 0 0 0-.325.2.331.331 0 0 0-.051.506.355.355 0 0 0 .513.011.849.849 0 0 0 .108-.119.4.4 0 0 1 .538-.2.39.39 0 0 0 .462-.206c.09-.13.163-.278.253-.408a.3.3 0 0 1 .441-.137 2.688 2.688 0 0 1 .936.549.483.483 0 0 1 .1.715 8.47 8.47 0 0 1-.7.784.231.231 0 0 1-.321.007c-.134-.09-.256-.2-.383-.289a.5.5 0 0 0-.7-.022.262.262 0 0 1-.325.025c-.094-.054-.184-.108-.282-.155a.359.359 0 0 0-.5.282.281.281 0 0 0 .191.329.9.9 0 0 0 .217.051c.242.029.448.079.506.383.036.188.224.246.4.249s.343-.011.513 0c.242.007.3.058.311.307a5.3 5.3 0 0 1-.022.831.535.535 0 0 1-.629.542 6.862 6.862 0 0 1-1.044-.152c-.2-.04-.249-.148-.217-.361.018-.126.054-.253.072-.379.033-.235-.033-.387-.253-.455a.36.36 0 0 1-.278-.4.838.838 0 0 0-.02-.197.334.334 0 0 0-.394-.246c-.188.025-.264.126-.249.34a.585.585 0 0 0 .025.159c.069.2.108.379-.116.535a.322.322 0 0 0-.051.441c.076.141.17.271.249.412.112.206.1.271-.065.415a2.29 2.29 0 0 1-.993.5.478.478 0 0 1-.56-.22c-.173-.318-.311-.654-.452-.986-.054-.134.036-.228.152-.282s.26-.1.39-.148c.34-.134.4-.213.387-.567a.272.272 0 0 1 .137-.264 2.861 2.861 0 0 0 .336-.246.286.286 0 0 0-.134-.513.407.407 0 0 0-.488.2c-.163.246-.163.249-.448.177a.42.42 0 0 0-.5.184c-.083.126-.148.26-.231.387-.155.242-.26.289-.506.163a7.266 7.266 0 0 1-.856-.5.419.419 0 0 1-.126-.686 8.439 8.439 0 0 1 .672-.813.268.268 0 0 1 .379-.018c.123.083.235.184.354.275a.468.468 0 0 0 .69.025.3.3 0 0 1 .329-.022c.087.043.17.094.26.13.224.087.365.043.43-.126a.35.35 0 0 0-.2-.477 1.031 1.031 0 0 0-.282-.061c-.119-.011-.206-.047-.235-.173-.051-.224-.231-.3-.423-.343s-.379-.069-.567-.112c-.253-.061-.3-.112-.314-.372a5.1 5.1 0 0 1-.007-.7c.029-.4.2-.574.585-.574a9.706 9.706 0 0 1 1.019.094.22.22 0 0 1 .2.22c.018.17.036.34.04.513.032.265.083.522.422.605z"/><path data-name="Path 108" d="M61.192 114.656c.488-1.355.972-2.706 1.463-4.075h1.214c.065.238.09 4.616.029 5.216h-.86v-3.908l-.083-.011c-.473 1.311-.95 2.619-1.427 3.934h-.791l-1.373-4.187a1.414 1.414 0 0 0-.072.571v3.609h-.834v-5.22h1.351c.437 1.34.878 2.706 1.322 4.071a.4.4 0 0 0 .061 0z"/><path data-name="Path 109" d="M83.233 113.109a1.754 1.754 0 0 1-.878-1.141c-.025-.058-.047-.119-.072-.181-.17-.433-.217-.466-.683-.477-.054 0-.1 0-.181-.007v-.715a2.014 2.014 0 0 1 .881.072.726.726 0 0 1 .43.408c.13.271.249.542.376.816.09.2.177.39.275.578a.614.614 0 0 0 .726.336v-2.214h.907c.022.365.007.733.007 1.1v1.113a.628.628 0 0 0 .737-.376l.3-.639c.061-.137.119-.275.181-.412.285-.6.426-.885 1.467-.784v.7c-.123.007-.235.018-.35.018a.459.459 0 0 0-.462.329c-.065.17-.134.34-.2.506a1.517 1.517 0 0 1-.8.957 2.951 2.951 0 0 1 1.206 1.315c.209.361.426.715.639 1.076.054.09.1.184.163.307h-.946a6.413 6.413 0 0 1-.17-.278c-.307-.527-.61-1.055-.925-1.579a.985.985 0 0 0-.715-.542.608.608 0 0 0-.123.011v2.384h-.9c-.029-.791.007-1.586-.022-2.395a.744.744 0 0 0-.643.282 4.393 4.393 0 0 0-.361.527c-.278.47-.553.939-.82 1.416a.321.321 0 0 1-.329.2c-.224-.011-.448 0-.708 0a1.3 1.3 0 0 1 .076-.213c.3-.506.592-1.015.9-1.517a2.462 2.462 0 0 1 1.017-.981z"/><path data-name="Path 110" d="M11.013 112.185l-.849-.112a1.738 1.738 0 0 1 1.011-1.38 3.418 3.418 0 0 1 2.388-.079 1.179 1.179 0 0 1 .9 1.127c.014.256.04.513.043.769.007.545 0 1.091.007 1.636a8.019 8.019 0 0 0 .025.834 7.64 7.64 0 0 0 .184.827h-.868l-.2-.571c-.112.076-.213.148-.318.217a2.677 2.677 0 0 1-2.073.444 1.432 1.432 0 0 1-1.239-1.286 1.457 1.457 0 0 1 1.022-1.593 12.009 12.009 0 0 1 1.347-.267l1.17-.224c.159-.744-.123-1.192-.809-1.293a3.368 3.368 0 0 0-.831.011.925.925 0 0 0-.8.654c-.034.078-.069.17-.11.286zm2.579 1.055c-.4.087-.78.173-1.167.253-.282.058-.571.087-.849.163a.782.782 0 0 0 .054 1.539 1.725 1.725 0 0 0 1.43-.293 1.109 1.109 0 0 0 .433-.582 2.542 2.542 0 0 0 .1-1.08z"/><path data-name="Path 111" d="M92.971 113.438h-3.8a1.568 1.568 0 0 0 1.654 1.756 1.246 1.246 0 0 0 .968-.549c.1-.148.181-.314.293-.509l.86.1a1.835 1.835 0 0 1-.051.253 2.1 2.1 0 0 1-2.03 1.449 3.187 3.187 0 0 1-.889-.083 2.136 2.136 0 0 1-1.644-1.7 3.993 3.993 0 0 1 .033-1.969 2.287 2.287 0 0 1 2.391-1.73 2.249 2.249 0 0 1 2.171 1.918 3.363 3.363 0 0 1 .044 1.064zm-3.746-.769h2.8a1.355 1.355 0 0 0-1.275-1.474 1.431 1.431 0 0 0-1.524 1.474z"/><path data-name="Path 112" d="M49 113.428h-3.807a1.552 1.552 0 0 0 1.817 1.741 1.22 1.22 0 0 0 .856-.621c.076-.126.141-.26.224-.419.282.033.564.069.885.1a2.131 2.131 0 0 1-.853 1.3 2.494 2.494 0 0 1-1.748.383 2.247 2.247 0 0 1-2.1-2.11 3.943 3.943 0 0 1 .1-1.654 2.3 2.3 0 0 1 2.38-1.712 2.247 2.247 0 0 1 2.175 1.875 3.846 3.846 0 0 1 .069.538c.013.185.002.358.002.579zm-.961-.762a1.384 1.384 0 0 0-1.391-1.477 1.444 1.444 0 0 0-1.409 1.477z"/><path data-name="Path 113" d="M109.548 114.236a2.108 2.108 0 0 1-.874 1.318 2.493 2.493 0 0 1-1.719.368 2.24 2.24 0 0 1-2.091-2.041 3.987 3.987 0 0 1 .083-1.716 2.285 2.285 0 0 1 2.343-1.713 2.245 2.245 0 0 1 2.2 1.842 3.057 3.057 0 0 1 .054 1.138h-3.782a1.554 1.554 0 0 0 1.784 1.748 1.278 1.278 0 0 0 .925-.679c.061-.108.116-.224.184-.361.293.028.577.06.893.096zm-.925-1.571a1.4 1.4 0 0 0-1.51-1.47 1.426 1.426 0 0 0-1.3 1.47z"/><path data-name="Path 114" d="M54.531 113.428h-3.829a1.983 1.983 0 0 0 .5 1.34 1.415 1.415 0 0 0 2.279-.332c.047-.094.1-.188.155-.3.289.032.574.069.885.1a2.057 2.057 0 0 1-1.243 1.514 2.7 2.7 0 0 1-2.066 0 2.1 2.1 0 0 1-1.282-1.43 3.841 3.841 0 0 1 .018-2.247 2.272 2.272 0 0 1 2.312-1.626 2.227 2.227 0 0 1 2.171 1.719 3.323 3.323 0 0 1 .1.567c.014.214 0 .426 0 .695zm-3.764-.766h2.836a1.4 1.4 0 0 0-1.43-1.467 1.443 1.443 0 0 0-1.406 1.464z"/><path data-name="Path 115" d="M32.124 113.669c-.108-.033-.188-.061-.271-.087a1.562 1.562 0 0 1-.939-2.131 1.446 1.446 0 0 1 1.084-.816 1.99 1.99 0 0 1 .412-.061q1.284-.005 2.554 0c.018.014.029.022.036.029a.109.109 0 0 1 .018.025 1.126 1.126 0 0 1 .018.159v4.909a.509.509 0 0 1-.029.112h-.824c-.058-.657.011-1.326-.04-2.008a2.856 2.856 0 0 0-.993.036.871.871 0 0 0-.5.379c-.307.437-.618.874-.9 1.326a.509.509 0 0 1-.538.293 6.516 6.516 0 0 0-.7 0 7.452 7.452 0 0 1 1.612-2.165zm2.016-2.33h-1.7a.533.533 0 0 0-.126.029.806.806 0 0 0-.061 1.561 6.443 6.443 0 0 0 1.886.1l-.001-1.689z"/><path data-name="Path 116" d="M29.949 113.171c-.043.318-.072.636-.134.95a2.278 2.278 0 0 1-2.633 1.8 2.251 2.251 0 0 1-2.052-1.983 4.472 4.472 0 0 1 .025-1.625 2.283 2.283 0 0 1 2.572-1.849 2.336 2.336 0 0 1 2.185 2.417v.289zm-4.013.014a8.157 8.157 0 0 0 .2 1.008 1.428 1.428 0 0 0 2.713.036 2.988 2.988 0 0 0 0-2.073 1.428 1.428 0 0 0-1.38-.961 1.389 1.389 0 0 0-1.322.983 7.784 7.784 0 0 0-.211 1.007z"/><path data-name="Path 117" d="M69.788 113.181c-.04.318-.054.639-.123.95a2.4 2.4 0 0 1-4.707-.329 4.127 4.127 0 0 1 .061-1.561 2.277 2.277 0 0 1 2.536-1.781 2.308 2.308 0 0 1 2.189 2.236c.014.159 0 .322 0 .48a.2.2 0 0 0 .044.005zm-.889.036a7.963 7.963 0 0 0-.17-.946 1.434 1.434 0 0 0-2.778 0 3.153 3.153 0 0 0 .007 1.864 1.418 1.418 0 0 0 1.373 1.055 1.4 1.4 0 0 0 1.387-1.03 7.641 7.641 0 0 0 .179-.943z"/><path data-name="Path 118" d="M80.867 113.229c-.036.267-.065.585-.13.9a2.394 2.394 0 0 1-4.7-.318 4.639 4.639 0 0 1 .054-1.532 2.4 2.4 0 0 1 4.71.289c.03.199.044.401.066.661zm-.889-.033a8.5 8.5 0 0 0-.155-.892 1.441 1.441 0 0 0-2.8 0 3.252 3.252 0 0 0 0 1.774 1.445 1.445 0 0 0 2.807.029c.072-.297.098-.607.153-.911z"/><path data-name="Path 119" d="M99.221 113.139c.036-.257.065-.567.126-.871a2.26 2.26 0 0 1 2.51-1.81 2.291 2.291 0 0 1 2.2 2.117 4.713 4.713 0 0 1-.061 1.528 2.393 2.393 0 0 1-4.7-.278c-.035-.206-.05-.419-.075-.686zm4 .054a8.5 8.5 0 0 0-.155-.907 1.439 1.439 0 0 0-2.792.007 3.188 3.188 0 0 0 0 1.8 1.442 1.442 0 0 0 2.8-.007c.074-.283.095-.586.146-.893z"/><path data-name="Path 120" d="M94.102 115.8v-5.212h.86v2.138h2.42v-2.138h.867v5.212h-.856v-2.279h-2.409v2.279z"/><path data-name="Path 121" d="M119.41 88.897a3.253 3.253 0 0 1-2.695 3.161 3.643 3.643 0 0 1-2.987-.73 2.864 2.864 0 0 1-1.149-2.265 2.951 2.951 0 0 1 .936-2.4 3.383 3.383 0 0 1 1.983-.892 4.086 4.086 0 0 1 1.467.076 3.279 3.279 0 0 1 2.211 1.8 2.54 2.54 0 0 1 .234 1.25zm-3.778-2.633a2.658 2.658 0 0 0-2.052 1.315 2.267 2.267 0 0 0-.2 2.294 2.89 2.89 0 0 0 5.245 0 2.174 2.174 0 0 0 .141-1.47 2.921 2.921 0 0 0-3.134-2.14z"/><path data-name="Path 122" d="M4.848 110.581H5.7v2.149h2.435v-2.142h.82c.072.238.083 4.88.011 5.223h-.824v-2.29h-2.42c0 .246-.011.5-.011.751v1.528h-.838c-.065-.227-.087-4.627-.025-5.219z"/><path data-name="Path 123" d="M23.776 87.993a2.107 2.107 0 0 1-.1.849 1.032 1.032 0 0 1-.849.7 7.6 7.6 0 0 1-1.178.116c-1.4.014-2.8.007-4.2 0a1.388 1.388 0 0 1-.181-.018 1.231 1.231 0 0 1 1.037-1.564 7.623 7.623 0 0 1 1.181-.1c1.358-.011 2.716 0 4.075 0 .052.006.117.017.215.017z"/><path data-name="Path 124" d="M19.178 112.245c-.04-.1-.061-.166-.083-.224a1.225 1.225 0 0 0-2.012-.509 1.416 1.416 0 0 0-.452.686 3.5 3.5 0 0 0 .022 2.055 1.286 1.286 0 0 0 1.243.936 1.2 1.2 0 0 0 1.239-.867c.043-.13.076-.264.119-.426.278.036.545.072.845.108a2.084 2.084 0 0 1-1.257 1.752 2.255 2.255 0 0 1-3.121-1.5 4.328 4.328 0 0 1-.011-2.1 2.212 2.212 0 0 1 2.449-1.7 2.185 2.185 0 0 1 .946.271 1.867 1.867 0 0 1 .9 1.383z"/><path data-name="Path 125" d="M22.934 115.814h-.892v-4.486h-1.647v-.741h4.176v.726h-1.637z"/><path data-name="Path 126" d="M114.4 87h1.882a1.554 1.554 0 0 1 .4.087.881.881 0 0 1 .694.683 1.041 1.041 0 0 1-.343 1.044 5.149 5.149 0 0 1-.455.311l1.239 1.535c-.307 0-.538.014-.766-.007a.4.4 0 0 1-.22-.159 26.817 26.817 0 0 1-.813-.993.5.5 0 0 0-.488-.228 3.993 3.993 0 0 1-.423 0v1.365h-.712zm.726.506v1.239a2.64 2.64 0 0 0 1.095-.072.645.645 0 0 0 .477-.433.556.556 0 0 0-.549-.73c-.329-.029-.662-.004-1.023-.004z"/></g></svg>