<svg id="Layer_1" xmlns="http://www.w3.org/2000/svg" viewBox="0 0 169.26 76.98"><style>.st0{fill:#00f}</style><path class="st0" d="M25.5 48.21c1.14-.13 3.85-2.75 5.39-6.83l1.63.82-1.3 2.08c-2.09 3.33-3.16 4.17-4.18 4.78l6.84 7.61h-2.2l-6.05-7.11h-.13v7.11h-1.65V41.58h1.65v6.63z"/><path d="M155.32 25.16h10.35v10.36m-10.35 37.91h10.35V63.07M13.53 25.16H3.17v10.36m10.36 37.91H3.17V63.07" fill="none" stroke="#00f" stroke-width=".674" stroke-miterlimit="2.414"/><path class="st0" d="M49.12 42.88h-6.58v5.37h4.73v1.32h-4.73v5.76h6.73v1.32H40.9V41.56h8.22zm15.46-1.32h1.63v15.09h-1.65V45.17h-.04l-3.26 7.4-3.23-7.4-.04.04v11.44h-1.65V41.56h1.6l3.32 7.53zm16.48 1.32h-2.15v12.45h2.15v1.32h-5.93v-1.32h2.13V42.88h-2.13v-1.32h5.93zm17.31 1.41c-.97-.82-2.07-1.7-3.43-1.7-1.41 0-2.55.92-2.55 2.31 0 .79.15 1.51 2.29 2.74l1.25.73c2.9 1.7 3.69 2.5 3.69 4.26 0 2.7-1.89 4.32-4.66 4.32-2.05 0-3.56-.94-4.79-2.45l1.27-.96c.77 1.17 2 2.09 3.52 2.09 1.65 0 3.01-1.17 3.01-2.79 0-1.22-.09-1.63-2.88-3.23l-1.43-.82c-1.56-.88-2.93-1.91-2.93-3.79 0-2.37 1.89-3.73 4.27-3.73 1.65 0 3.16.84 4.35 1.89l-.98 1.13zm18.68-1.41h-4.51v13.77h-1.65V42.88h-4.42v-1.32h10.58zm7.81-1.32h4.11c3.96 0 4.31 3.39 4.31 4.28 0 1.55-.62 2.98-2.82 4.17l4.26 6.64h-2l-3.85-6.29c-.79.02-1.58.02-2.37.04v6.25h-1.65V41.56h.01zm3.21 7.5c2.24 0 3.56-1.09 3.56-3.31 0-2.01-.88-2.87-3.5-2.87h-1.62v6.18h1.56zm19.98-7.5h1.82l-4.04 8.72v6.37h-1.65v-6.37l-4.05-8.72h1.83l3.05 6.83zM105 22.96c-.06-.03-.11.05-.06.11.05-.03.07-.06.06-.11m.04-.26c-.04.04-.07.08-.04.15.06 0 .04-.06.1-.09-.02-.04-.04-.05-.06-.06m1.64 3.22c-.05 0-.12.04-.14.08.02.05.05.06.08.1.05-.01.1-.02.15-.07-.03-.04-.06-.06-.09-.11m-1.66-3.49c-.07-.09-.19.06-.07.11.06-.03.07-.07.07-.11m1.81 3.71c-.1-.01-.11.12-.02.1.03-.02.02-.06.02-.1m-1.54-3.6a.349.349 0 0 0-.17-.06c-.16.14.15.25.17.06m1.69 3.85c.06.07.19.16.33.08-.09-.11-.23-.05-.33-.08m.18-.57c-.11-.09-.16-.18-.25-.31-.33.07-.14.3-.01.46.09-.03.2-.09.26-.15m-1.83-3.13c.08.05.15-.01.21-.09-.09-.08-.2 0-.21.09m.22-.56c-.07-.03-.14-.07-.23-.04-.02.04.02.05.02.1-.04.08-.14.13-.14.22.19.1.31-.14.35-.28m-.03.72c-.03-.03-.08.01-.07.05.01 0 .1-.02.07-.05m.23-1.11c-.23-.05-.64-.05-.69.26.09-.01.17-.01.26-.03.05-.05.06-.16.15-.17.04.08-.1.1-.06.18.06.03.12.04.19.03.06-.08.07-.18.15-.27m1.56 4.84c.07.1.23.09.32.04-.1-.04-.18-.13-.32-.04m-.06-.67c-.06.04-.18.06-.19.12.12.01.2.15.36.03-.05-.08-.11-.11-.17-.15m-1.66-2.9c.06-.01.21-.07.21-.13-.08-.03-.21.05-.21.13m.19-.41c-.09-.02-.19.06-.19.15.07.02.2-.06.19-.15m1.59 3.62c-.05.08.01.17.1.17.08-.04.16-.08.25-.12-.09-.09-.19-.15-.35-.05m-1.89-3.75c.18.1.27-.18.33-.28-.06-.02-.12-.06-.2-.04.03.13-.1.21-.13.32m2.2 4.29c.06.04.15.02.24-.02-.02-.08-.2-.07-.24.02m-.08-.29c.1.09.28.09.43-.04-.11-.11-.3-.1-.43.04m-.16-.94c-.07.02-.15.08-.25.12.03.07.07.09.11.11.07-.01.2-.05.26-.11a.345.345 0 0 0-.12-.12m-1.38-2.94c-.09-.01-.2.09-.2.16.11 0 .19-.08.2-.16m-.21-.37c0 .1-.06.18-.09.28.16.04.24-.14.3-.24-.06-.05-.13-.06-.21-.04m1.98 3.66c-.05-.06-.12-.08-.18-.14-.07.01-.16.07-.24.1.04.09.1.12.16.16.1-.06.2-.06.26-.12m.29 1.01c0-.03 0-.06-.02-.1-.05.01-.09 0-.15.03.01.08.11.06.17.07m-2.43-4.84c.05.01.1.03.15.03.06-.1.1-.21.12-.32a.4.4 0 0 0-.19-.02c0 .11-.09.19-.08.31m2.26 3.92c-.08.06-.19.06-.25.12.06.14.26.12.45-.01a.443.443 0 0 0-.2-.11m.01.63c.09.15.29.02.42-.05-.1-.11-.25-.05-.42.05m-1.68-4.29c-.04-.03-.09-.06-.15-.03-.02.07-.05.13-.05.2.09 0 .22-.08.2-.17m-.85-1.19c.06 0 .13-.01.19-.03 0-.06.03-.1 0-.17-.11.01-.19.11-.19.2m3.11 5.76c-.04-.04-.18-.03-.2.04.07-.01.12.01.2-.04m-.13-.68c-.08-.12-.24-.01-.38.06.08.13.29.07.38-.06m-.35-.62c-.09.06-.16.06-.25.09.08.14.27.16.39.02-.03-.07-.08-.07-.14-.11m.26.42c.06-.04.16-.07.16-.13 0-.04-.1-.05-.13-.1-.22.05-.24.2-.03.23m-2.25-5.38c-.1-.02-.21.08-.22.17.05-.01.1 0 .15-.02.03-.05.08-.09.07-.15m.16.19c.03-.04.06-.08.06-.14-.13-.11-.26.17-.06.14m11.46 3.11c.1-.04.29-.09.33-.15-.07-.03-.31.06-.33.15m.8 0c.01.01-.01.02.01.04.13-.02.27.04.39-.05-.14-.03-.26-.07-.4.01m-.66-1.63c.02.03.03.07.05.1.12-.1.22-.2.31-.3-.12.01-.31.12-.36.2m1.75 1.71c-.09-.05-.28-.09-.37.01.12.01.25.08.37-.01m-.38-1.48c.5-.04.53-.6.88-.87-.42.21-.69.55-.88.87m.49-.05c.55-.07.69-.79 1.16-1.1-.56.24-.94.69-1.16 1.1m-2.7-8.71c.06-.01.11-.02.17-.04-.07.02-.14.02-.21.03.02 0 .03 0 .04.01m-1.22-.12c.01.01.03.01.05.02.08-.03.26-.07.29-.07a.55.55 0 0 0 .07-.09c-.14.02-.28.06-.41.14m.6-.15a.7.7 0 0 1-.08.1h.05c.05-.04.1-.07.15-.11-.04 0-.08 0-.12.01m1.1 0c-.17.03-.36.02-.56.01-.03.04-.06.08-.1.12.17 0 .34-.02.51-.11.04-.02.07 0 .09.03.02-.01.04-.03.06-.05m1.28 5.64c.04-.02.09-.04.13-.05.08-.24.09-.51.14-.76-.24.2-.24.52-.27.81m2.9 2.07c-.74.15-1.15.81-1.51 1.27.61-.11.8-.95 1.51-1.27M117 14.33c-.17.03-.43.05-.56.15.18-.06.42-.01.56-.15m-.28-1.01l.15-.12c.03-.04.06-.07.09-.11-.11.01-.22.02-.32.04-.05.06-.09.13-.14.19a.81.81 0 0 1 .22 0m-.69 0c.1-.01.21-.01.31-.01l.12-.15c-.15.04-.3.09-.43.16m1.88-.24c.01-.01.01-.03.02-.04-.14.02-.28.02-.42.03 0 .01-.01.03-.03.04-.06.04-.12.08-.18.11-.02.01-.04.03-.06.04 0 .01-.01.02-.02.02l-.02.02c.22-.04.44-.12.64-.22.03-.02.05-.02.07 0m8.5 4.35c.01 0 .01 0 0 0 .08-.06.14-.13.21-.2-.11-.05-.22-.08-.33-.11.03.08.03.17 0 .27.04.02.08.03.12.04m-.31.33c.07-.07.14-.14.21-.22-.03-.01-.05-.01-.08-.02-.03.08-.08.16-.13.24m-5.13 1.65c.23-.2.44-.42.65-.63-.01 0-.02 0-.03.01-.03.01-.06.01-.1.02-.19.21-.38.41-.57.62l.05-.02zm.8-.78l.4-.4c-.04 0-.09.01-.14.01-.13.13-.26.27-.39.41.04-.01.09-.02.13-.02m.79-.94c-.12.12-.24.25-.37.38.04 0 .09-.01.14-.01.12-.12.23-.25.34-.38-.03 0-.07.01-.11.01m.44-.45c-.1.1-.2.21-.3.32.03 0 .06 0 .09-.01.07-.1.14-.21.21-.31m1.93-.16l.35.06c.02-.02.04-.05.06-.07-.01.02-.03.05-.04.07.15.03.3.07.44.1.02-.03.04-.05.06-.08.02.03.06.01.08.05a.21.21 0 0 1-.04.06c.11.03.21.06.32.08.02-.07.03-.13 0-.18-.01-.04 0-.06.02-.08-.05-.01-.1-.03-.15-.04-.08.1-.19.12-.28.07 0-.04.05-.06.03-.11a.483.483 0 0 0-.39.02c-.04-.05.04-.06.02-.11-.15-.1-.31-.1-.42.07-.02.04-.04.07-.06.09m-.72 2.25c-.11.01-.22.02-.33.04l-.33.27c.24-.09.45-.19.66-.31m.23-.14c.13-.09.26-.17.39-.27-.15 0-.3 0-.45.01-.1.09-.21.19-.32.28.13-.01.25-.02.38-.02m.37-.65c-.09.09-.18.17-.27.26.15-.01.3 0 .45.01.1-.08.2-.16.29-.25-.15-.03-.31-.03-.47-.02m.87-.37c-.15-.03-.31-.04-.47-.05-.09.1-.18.19-.27.29.16 0 .32.01.47.03.08-.07.16-.14.23-.22.01-.02.03-.04.04-.05m-.16-.42c-.06.08-.13.17-.2.25.15.01.29.02.43.06.04-.06.1-.14.16-.22-.12-.05-.25-.08-.39-.09m.25-.35c-.05.08-.1.16-.16.23.13.02.25.05.38.09.05-.08.09-.15.13-.23l-.35-.09m-1.35-.36c.13 0 .26.01.39.03l.2-.29c-.1-.1-.35-.06-.46.08-.04.06-.09.12-.13.18m.81.23c-.06.1-.13.2-.2.31.15.01.3.01.45.03.07-.08.13-.16.19-.24-.15-.04-.29-.07-.44-.1m-.64.87c-.09.1-.19.21-.29.31.14-.02.27-.03.41-.04.11-.1.21-.2.31-.3l-.43.03m-.95.76l.27-.27c-.11.01-.21.03-.32.03-.11.11-.23.21-.34.31.13-.02.26-.04.39-.07m.62-.08c.1-.09.2-.17.3-.26-.14.01-.27.03-.41.05-.09.09-.19.18-.29.26.13-.02.27-.04.4-.05m-.55.45c.12-.1.25-.19.37-.29-.14.02-.28.04-.42.07-.13.11-.27.22-.41.33.15-.05.3-.09.46-.11m-.61.13c.12-.1.24-.21.35-.32-.15.03-.29.06-.44.08-.19.14-.36.28-.53.4.21-.06.42-.11.62-.16m-2.94 1.19l.3-.15c-.1-.01-.21-.04-.31-.07-.09.12-.17.23-.25.35.11-.06.22-.12.26-.13m.22.14l.03.06c.2-.09.38-.21.55-.34-.09.01-.18.01-.27.01 0 .03-.02.05-.05.06-.24.05-.47.22-.68.31-.01 0-.02.01-.03.01.15-.03.31-.1.45-.11m-.15-.47c.02.01.04.01.07.02.11-.08.21-.16.32-.25a.3.3 0 0 1-.1-.04c-.01.01-.03.02-.05.02l-.01.01c-.01.02-.02.03-.02.05-.01.03-.03.04-.06.04-.01.01-.03.02-.04.02-.05.04-.08.09-.11.13m2.86-.53c.13-.1.26-.19.39-.29-.18.04-.35.08-.52.12-.11.08-.23.16-.35.23l.27-.21c-.25.07-.49.14-.74.2-.11.06-.22.12-.35.17.05-.04.1-.08.16-.12-.33.08-.66.17-1 .19-.18.11-.36.21-.56.27.25.04.5.03.76 0 .07-.06.14-.13.21-.19.06-.06.15.04.09.1l-.05.05c.12-.02.24-.05.35-.08.45-.12.9-.27 1.34-.44m-1.81.83c.52-.19 1.06-.3 1.42-.55-.36.13-.74.24-1.11.32-.12.03-.25.05-.38.07-.18.15-.37.29-.57.4.21-.03.49-.18.64-.24m-.64-.76c-.02.03-.04.06-.06.08.04.02.1.03.16.04.2-.16.4-.32.6-.49-.02.01-.04.01-.06.02-.09.03-.18.06-.29.08-.1.07-.22.15-.32.24 0 .02-.01.03-.03.03m.7.04c.29-.06.57-.12.86-.2.18-.14.36-.29.53-.43-.09.01-.19.03-.28.04-.05 0-.1.01-.14.01-.09.08-.19.15-.29.23-.48.37-.36.09-.21-.16h-.02c-.16.17-.37.37-.61.55.05-.02.11-.03.16-.04m1.58-.81c.13-.12.27-.23.4-.35-.12.01-.24.01-.36.01-.16.14-.31.27-.48.41.15-.02.3-.04.44-.07m-1.34.21c.2-.17.39-.34.58-.51-.11.01-.22.01-.32.02-.19.2-.39.4-.59.59.11-.05.22-.08.33-.1m2.48-1.06c-.1.12-.21.23-.32.34.1-.01.21-.03.31-.04.1-.11.21-.22.31-.33l-.3.03m-.94.38c.12 0 .24-.01.36-.02.13-.12.25-.24.37-.36h-.33c-.1.1-.21.21-.32.3-.03.03-.05.06-.08.08m-1.15.05c.11-.01.22-.02.33-.02.13-.13.26-.25.38-.38-.11 0-.23.01-.35.02-.09.09-.17.18-.26.27-.02.03-.06.07-.1.11m2.97-.9c-.07.1-.15.19-.23.29.14-.01.29-.01.43-.01.08-.08.16-.17.23-.26-.14-.01-.29-.02-.43-.02m-.95-.06c-.11.14-.22.28-.35.42h.17c.05 0 .11-.01.17-.01.12-.12.24-.25.35-.38a1.87 1.87 0 0 0-.34-.03m.49.03c-.09.12-.19.24-.29.35.1-.01.2-.02.31-.02l.28-.31c-.11 0-.21-.01-.3-.02m-1.64-.02c-.11.13-.23.26-.35.39h.33c.12-.13.24-.27.35-.41-.11.01-.22.02-.33.02m2-.46c-.08.11-.17.23-.27.35.1.01.21.01.32.02l.29-.32c-.11-.01-.22-.03-.34-.05m-1.51-.31c-.1.23-.23.45-.38.65.11-.01.22-.01.33-.01.24-.31.45-.62.61-.95-.15-.06-.29.02-.42.16-.05.04-.1.1-.14.15m1 .28c-.08.11-.16.23-.25.35.12.01.24.01.36.02.1-.12.19-.24.28-.36-.13 0-.26-.01-.39-.01m-3.71 5.25c.43 0 .69-.74 1.12-1.01-.51.25-.84.64-1.12 1.01m-3.45-9.66c-.1.03-.21.06-.31.1-.02.02-.03.04-.05.06.09-.01.18-.01.27-.01l.09-.15m.52-.01c-.08.06-.16.11-.24.16.26-.01.49-.05.68-.21-.14.03-.29.04-.44.05m4.76 8.43c-.6.29-1.06.78-1.4 1.21.64.02.89-.85 1.4-1.21m-5.3-7.09c.1-.03.31-.08.35-.19-.11-.01-.34.05-.35.19m-1.2-2.51c.05-.01.1-.03.15-.05.04-.06.08-.12.11-.19-.14.06-.31.11-.26.24m6.2 10.44c.09-.07.19-.15.28-.23.04-.03.08-.06.12-.1.01-.01.02-.01.03-.01.02-.02.04-.04.07-.06.03-.15.19-.28.3-.37.03-.02.08-.07.14-.1h-.02c-.02.02-.05.02-.07.01-.04.01-.08.03-.12.05-.09.07-.18.13-.28.18-.02.01-.05.01-.07-.01-.35.35-.67.75-.97 1.04h.02c.07-.04.14-.08.2-.13.11-.09.24-.18.37-.27m1.97-1.37c-.23.01-.46.04-.69.09-.04.02-.09.04-.13.06.18-.01.35-.01.53 0 .1-.05.19-.1.29-.15m.77-.59c-.02 0-.03-.01-.04-.02-.1.05-.19.11-.29.16.15-.01.29-.02.44-.02.07-.04.15-.08.22-.12h-.33m.35-.22h-.02c-.05.03-.11.06-.17.09h.39c.14-.08.28-.15.42-.22-.06.01-.12.01-.18.03-.08.02-.16.03-.25.05-.04.01-.07.01-.11.02-.01.01-.02.01-.02.01-.01.02-.03.03-.06.02.02 0 .01 0 0 0m.49-.26c.15-.02.31-.03.46-.02.36-.17.72-.31 1.08-.4-.43-.07-.97.13-1.54.42m-1.35.94c.12-.07.24-.13.37-.2l-.47.03c-.13.07-.26.13-.38.19.15-.01.31-.02.48-.02m-1.33.49c.02 0 .03.01.04.02h.19c.09-.04.18-.07.27-.11-.17 0-.34.01-.51.02-.02.01-.03.02-.04.03.02.01.04.02.05.04m-5.63-8.69c.01-.02.02-.03.03-.05-.21.06-.41.13-.61.23.12-.05.24-.08.37-.1.05-.03.1-.06.16-.08.01-.01.03-.01.05 0m-1.05-1.4c-.09.06-.18.13-.2.22.13-.02.24-.11.2-.22m6.78 13.26c.03 0 .05.01.06.03.03-.01.05-.03.08-.05-.07-.14-.25-.08-.38.01.09.01.16.02.24.01m-5.01-10.78c-.06.06-.12.13-.18.19.15-.06.3-.15.38-.24-.06.03-.13.04-.2.05m-.36.22c.04-.05.08-.11.13-.16a.55.55 0 0 0-.29.19c.04.01.09.01.15 0-.01-.01 0-.02.01-.03m-.17-1.65c-.08.03-.17.07-.25.12-.02.01-.04.01-.05.01-.05.03-.1.06-.14.09.13-.07.26-.11.4-.14l.04-.08zm.87-.13h-.03c-.03.05-.07.1-.11.15.24-.02.46-.07.61-.23-.15.05-.33.06-.47.08m.36-.21c-.06.02-.12.03-.19.05 0 .01 0 .02-.01.03.06-.01.12-.02.17-.04.02-.02.03-.03.03-.04m3.95 10.48c.11-.07.22-.15.32-.23h.01c.03-.03.07-.06.1-.1.07-.11.14-.22.22-.32l-.01-.01c.01 0 .01 0 .01-.01.04-.05.09-.1.14-.15-.12-.02-.28.05-.32.17-.44.2-.75.59-1.03.91.03-.01.07-.03.11-.04 0-.01.01-.03.03-.03.14-.07.28-.12.42-.19m-4.47-10.95c.46-.12 1.06-.07 1.22-.37-.41.14-.85.16-1.22.37m1.17-.66c-.05-.02-.1-.05-.14-.07-.3.04-.54.19-.76.38.12-.05.25-.09.38-.12v-.01c.09-.02.18-.05.27-.07.01-.02.02-.04.05-.04.07-.01.14-.04.2-.07m1.08 7.05c.14-.09.27-.19.39-.31.04-.04.1 0 .1.04.12-.18.24-.36.37-.55-.56.07-.74.44-.86.82m.23.2c.06-.13.12-.25.2-.37-.15.14-.31.26-.49.36-.02.09-.05.17-.08.25.05-.02.11-.07.17-.11.04-.04.07-.08.1-.12.03-.04.07-.04.1-.01m-1.91-4.82c-.05.01-.12.01-.19.02-.08.06-.17.12-.25.19.18-.02.35-.03.44-.21m-.76.25a.31.31 0 0 1 .08-.02c.08-.07.16-.13.24-.19-.14.02-.26.08-.32.21m5.42 8.85c.1-.08.19-.17.29-.26.01-.01.02-.01.03-.02l.03-.03c.08-.1.17-.19.27-.27-.43.03-1.06.57-1.27.95.2-.11.4-.22.58-.37.02-.02.05-.02.07 0m.55 1.78c-.06.04-.12.1-.16.17.03.01.07.03.1.04 0-.04.02-.08.07-.08h.12c.07-.05.14-.11.19-.17h-.26c-.02.03-.04.04-.06.04m-5.55-11.12c-.01.01-.01.02 0 .03.08-.02.17-.02.27-.02.01-.01.02-.01.03-.02.04-.03.08-.06.12-.08-.15.02-.29.06-.42.09m.96-.19l-.26.03c-.06.05-.13.1-.19.15.17 0 .34-.04.45-.18m-1.53-3.16c-.28.09-.77.18-.83.47.27-.05.78-.2.83-.47m6.19 12.62c.01 0 .01 0 0 0 .12-.15.24-.29.36-.44-.21.07-.4.22-.58.4 0 .01-.01.02-.01.03-.06.07-.13.14-.21.21-.08.1-.16.19-.23.28.15-.1.31-.2.46-.31.07-.05.14-.14.21-.17m-.62-4.44h.23l.26-.32c-.02 0-.04 0-.07.01-.08.01-.11-.12-.02-.13.07-.01.14-.02.2-.02l.27-.33c-.19-.18-.4-.01-.57.17-.05.22-.16.42-.3.62M122 19.16l.21-.03c.07-.03.13-.09.21-.15.1-.09.2-.18.3-.28-.12 0-.24.01-.36.01-.15.14-.28.29-.4.44.02 0 .03.01.04.01m.5-.59c.12 0 .23-.01.35-.01.12-.12.24-.25.35-.37h-.29c-.13.13-.27.26-.41.38m.56-.51h.26l.36-.42h-.23c-.11.14-.25.28-.39.42m1.83 5.91c.07-.05.13-.1.19-.15l-.32-.03c-.08.04-.16.1-.22.16.12.01.23.02.35.02m-5.86-11.69c.04-.06.08-.11.12-.16-.15.04-.26.12-.33.26.07-.02.13-.03.19-.04.01-.02.01-.04.02-.06m.33-.2c-.06.08-.12.15-.18.23.05 0 .1-.01.15-.01l.27-.24c-.08 0-.16.01-.24.02m.19.2c.21-.03.43-.08.65-.23-.11.01-.25.01-.4.01l-.25.22m4.41 10.24c.54-.11.76-.68 1.12-1-.56.05-.86.65-1.12 1m-5.54-12.46c-.04.01-.07.02-.1.03-.04.07-.08.15-.12.22.1-.05.19-.17.22-.25m-.78-.82c.22-.1.62-.13.68-.36-.23.08-.62.12-.68.36m6.39 11.81c.09-.03.18-.07.27-.11-.09-.01-.18-.01-.28-.01l-.21.12c.08-.01.15 0 .22 0m.89-.4c-.12 0-.23-.01-.35-.01-.11.06-.22.11-.32.17.1.01.21.01.31.02l.36-.18m1.47-.96h-.03l-.31.17c-.04.02-.08.05-.12.07.1 0 .21.01.31.01.16-.08.32-.16.49-.23-.12 0-.23-.01-.34-.02m.2-.11c.12.01.24.02.36.04.28-.11.56-.19.83-.24-.26-.18-.75-.02-1.19.2m-.8.6c.07-.04.14-.08.21-.11-.1 0-.2-.01-.3-.01-.07.04-.14.08-.21.11.1 0 .2.01.3.01m-.65.35c.14-.07.28-.15.42-.22h-.33l-.42.21c.11 0 .22.01.33.01m.42 3.48c.04-.04.08-.08.11-.12l-.24-.03c-.07.04-.14.08-.2.13.11.01.22.01.33.02m-5.69-12.19l.12-.11c-.12.01-.23.02-.35.04-.03.03-.05.06-.08.09.11-.01.21-.02.31-.02m-.76.06c.09-.02.18-.03.27-.04.02-.02.04-.05.06-.07l-.34.06c.01.03 0 .03.01.05m.99-.09l-.02.02c.21-.02.41-.06.6-.14l-.46.03c-.05.02-.08.05-.12.09m5.19 10.1c.04-.03.09-.01.11.03.15-.17.33-.34.44-.53-.64.08-1.01.74-1.34 1.13h.02c0-.02.01-.03.03-.04.29-.13.52-.36.74-.59m-6.83-12.05c.22-.05.43-.2.46-.37-.09 0-.18.02-.26.05v.01c-.08.09-.14.2-.2.31m6.51 13.3l.35-.06c.01-.01.02-.02.03-.04-.1-.04-.3 0-.38.1m-5.1-11.82c-.13.04-.26.09-.39.15.07 0 .15.01.23.01.06-.05.11-.1.16-.16m.67-.08h-.08c-.12 0-.23.01-.34.03-.08.07-.15.15-.23.22h.36c.1-.09.19-.17.29-.25m.82-.08c-.02 0-.04 0-.07.01-.18.04-.36.06-.55.06-.09.08-.18.16-.27.23.31-.03.62-.11.89-.3m-2.73-2.77c-.23.06-.59.1-.6.35.2-.06.58-.13.6-.35m7.56 15.64c.03-.03.06-.05.08-.08l-.32-.03c-.04.03-.07.06-.11.1.12 0 .23.01.35.01m-1.42-2.97c.07-.03.15-.06.23-.09-.08 0-.16-.01-.23-.01-.06.03-.12.07-.18.1h.18m1.17-.74c-.14.07-.28.15-.42.23.12 0 .23.01.35.01.13-.07.27-.14.4-.21-.12-.02-.22-.03-.33-.03m.22-.12c.11.01.21.01.32.02.08-.04.15-.08.23-.12-.11-.01-.21-.02-.32-.02-.08.04-.15.08-.23.12m.47-.23l.31.03c.13-.06.27-.12.4-.18-.08-.02-.16-.04-.24-.05-.15.06-.31.13-.47.2m1.37-.47c-.23.04-.45.11-.68.19l.22.06c.19-.07.38-.12.56-.14-.03-.06-.07-.06-.1-.11m-2.37 1.17c-.11 0-.22-.01-.33-.01l-.33.18c.1 0 .2 0 .29.01.13-.06.25-.12.37-.18m-.57 1.8c.69-.28 1.25-.83 1.74-1.34-.88.12-1.19.93-1.74 1.34m-5.82-13.55c-.23.05-.4.24-.5.39.27-.03.46-.18.5-.39m.32 1.19c.03-.02.06-.05.08-.08-.15.02-.32.07-.44.16.11-.02.23.01.35.01-.01-.02-.02-.06.01-.09m.34-.07c-.03-.01-.06-.01-.09-.01-.05.06-.1.12-.16.18.1-.02.18-.06.25-.17m.64.67h-.05c-.09.04-.17.09-.26.13-.02.01-.05.03-.07.04h.18c.07-.05.14-.11.2-.17m.19.01c-.07.06-.14.12-.2.18.03 0 .06.01.09.01.1 0 .2.01.3.01.09-.07.17-.14.26-.22-.14-.01-.28-.01-.42 0-.01 0-.02.01-.03.02m.39.19c.28-.01.55-.04.82-.14-.17-.02-.37-.05-.58-.06-.01.01-.02.01-.02.02-.07.06-.15.12-.22.18m4.64 12.14c.09 0 .18-.01.28-.01 0-.01.01-.02.01-.03-.07.04-.19.03-.29.04m-5.28-10.45c.01.02.02.04.03.07.08-.04.14-.09.13-.16-.06.02-.12.05-.16.09m-1.51-4.66c-.15.01-.49.1-.53.27.17-.01.5-.08.53-.27m7.56 16.03c-.02.02-.04.04-.05.06.01 0 .02-.01.03-.01.03-.01.05 0 .06.02.08 0 .16.01.24.01.03-.02.06-.04.08-.06-.11-.01-.22-.01-.33-.02h-.03m.54-.13a.374.374 0 0 0-.37.01c.12.01.23.01.35.02 0-.01.01-.02.02-.03m-.1-2.14c.09-.06.17-.13.25-.2 0-.01.01-.02.02-.03.11-.09.22-.18.32-.28.02-.02.04-.02.05-.02.13-.12.26-.24.38-.36-.75-.01-1.22.65-1.75 1.08.04.01.09-.04.13-.02-.3.17-.52.36-.77.55.45-.09.93-.58 1.37-.72m-6.16-11.31c-.04.04-.09.07-.14.1h.14l.12-.09c-.04-.01-.08-.01-.12-.01m.61.1c.01 0 .01 0 0 0a.7.7 0 0 1 .1-.08h-.09c-.1 0-.21 0-.32-.01-.03.03-.07.05-.1.08.14 0 .28.01.41.01m.99.07c.01-.02.01-.04.01-.05-.22-.1-.47-.1-.71-.1-.04.03-.07.07-.11.1.28 0 .55.03.81.05m4.03 10.1c-.09.01-.18.01-.28.01-.1.05-.19.1-.29.15.11-.01.21-.02.32-.04.09-.04.17-.08.25-.12m-.01-.13l.34-.03c.06-.03.13-.06.19-.09l-.22-.03c-.1.05-.2.1-.31.15m.53-.25l.22.03c.09-.04.18-.08.27-.11l-.22-.03c-.1.03-.18.07-.27.11m.49-.22c.08.01.15.03.23.04.08-.03.16-.06.24-.08-.06-.03-.12-.05-.18-.07-.09.04-.19.07-.29.11m1.05-.11a.48.48 0 0 0-.19-.16c-.12.03-.25.06-.37.1.06.03.13.06.19.09.13-.03.25-.04.37-.03m-2.75 1.04c.02-.01.04-.02.07-.03-.07.01-.15.01-.22.01-.03.02-.06.03-.1.05l.25-.03m-6.12-11.18c.06.01.12.01.17.02.05-.07.1-.15.16-.22-.13.03-.25.1-.33.2m.3.04c.18.01.35-.02.48-.22a.847.847 0 0 0-.29-.04c-.07.08-.13.15-.18.24l-.01.02zm-.77-1.08c.11-.03.32-.11.31-.22-.14.01-.3.08-.31.22m-.36-1c.24-.04.51-.15.58-.35-.21.04-.56.14-.58.35m7.51 15.4c.08.03.17.02.25 0h-.25c.01 0 .01 0 0 0m.14-.13c.12 0 .25.01.37.01l.19-.13c-.15-.06-.4 0-.56.12m-1.19-4.08c-.02 0-.03 0-.05-.01-.05.05-.1.1-.16.14.07-.04.14-.08.21-.13m.27-.36c-.07.09-.14.17-.21.25.02.01.02.03.02.06.12-.08.23-.17.34-.26-.05-.02-.1-.04-.15-.05m.35-.38l-.13.13c-.03.03-.06.06-.1.09-.01.02-.03.04-.04.06.05.01.1.03.16.05.01 0 .02.01.02.01.1-.08.2-.17.29-.26a.698.698 0 0 0-.2-.08m.37-.4c.04.02.09.05.13.07.07.05 0 .15-.07.11-.05-.03-.1-.06-.15-.08-.06.06-.12.13-.18.19.07.02.14.05.21.08.18-.18.36-.36.52-.54-.09-.02-.18-.03-.27-.04-.07.07-.13.14-.19.21m.55-.28c.07-.08.14-.17.21-.25-.15.01-.3.09-.44.21.08.01.15.02.23.04m-7-8.17c.08-.04.23-.12.26-.21-.14-.06-.22.13-.26.21m7.33 14.69h.28c.02-.02.05-.04.07-.05-.1 0-.19 0-.29-.01l-.06.06m.52-.18c-.1-.07-.2-.05-.29 0h.29m-5.25-13.75c-.08-.04-.16-.07-.25-.1-.03.02-.06.05-.09.07.11.02.23.03.34.03m-.96-.19c-.06 0-.13-.01-.21-.01-.07.05-.13.1-.2.14h.31c.05-.04.1-.08.16-.12-.02-.01-.04-.01-.06-.01m.44.15c.04-.03.07-.06.11-.09-.1-.02-.21-.03-.31-.04l-.15.12c.12 0 .23.01.35.01m-2.35-1.81c.12 0 .25-.05.31-.15-.1-.06-.31.03-.31.15m.59 1.11h.02c.08-.09.17-.17.25-.25-.12.05-.22.13-.27.25m.89-.25c-.1-.03-.24-.05-.38-.04-.01.01-.03.02-.04.04l-.3.27c.19 0 .39-.06.58-.13.05-.04.1-.08.14-.14m-.97-.19c.06-.03.12-.05.18-.06a.7.7 0 0 1 .08-.1c-.13.02-.25.06-.26.16m-.39-1.92c-.15.01-.4.01-.43.19.15-.02.42-.01.43-.19m5.61 12.56c.37-.16.77-.43 1.17-.55-.37-.04-.84.32-1.17.55m1.9 3.48c.07 0 .13.01.2.01.1-.06.19-.12.28-.17-.14-.1-.35.03-.48.16m.6 1h.19c.02-.02.05-.04.07-.06h-.22l-.06.06h.02zM119.78 7.9c.14-.02.35-.04.34-.21-.15-.02-.34.05-.34.21m1.2 1.76c.04-.03.08-.05.12-.07-.06.02-.13.04-.19.07h.07m.45.01c.12 0 .25.01.37.02.03-.03.06-.05.09-.08-.07-.02-.15-.04-.23-.05-.07.04-.14.08-.21.1-.01.01-.02.01-.02.01m5.77 12.22c-.05.03-.09.06-.14.1-.03.03-.06.05-.08.08l-.04.04c.09-.07.18-.13.27-.2 0 0-.01-.01-.01-.02m1.58-1.25c-.54.02-.79.52-1.18.81h.01c.07-.06.21-.11.26-.14.17-.09.34-.17.49-.26.02-.01.03-.01.04-.01.13-.13.28-.26.38-.4m-.78.87c-.23.17-.46.32-.69.49.3-.12.63-.28.72-.48-.01 0-.02-.01-.03-.01m-8.03-14.89c-.12 0-.27 0-.37.05-.03.03-.06.05-.09.08-.02.02-.03.05-.03.09.11.01.25-.06.36-.03.03-.07.13-.11.13-.19m.85 2.28c.19.04.37.13.52-.05-.1-.03-.24-.09-.38-.11-.05.06-.09.11-.14.16m-.42-.46l.02.03c.05-.02.1-.02.14-.01.06-.06.12-.12.18-.19a.408.408 0 0 0-.34.17m7.29 14.67c.09.01.18.01.27.02h.05c.09-.04.17-.1.23-.18-.15-.05-.4.02-.55.16M120.06 7.5c.16-.01.36-.02.37-.21-.14.01-.38.02-.37.21m9.32 13.85c-.07 0-.13.01-.2.01-.04.01-.07.03-.11.04-.26.1-.51.22-.75.34.12-.02.24-.03.36-.04.23-.12.46-.24.7-.35m.29-.14c.21-.09.41-.19.61-.28l-.25.03c-.18.09-.35.18-.54.26.07 0 .13-.01.18-.01m1.8-.88c-.31.08-.69.26-1.1.47.07-.01.15-.01.22-.01.3-.15.6-.3.88-.46m-3.88 1.84c-.08.05-.17.11-.24.16-.01 0-.01.01 0 .02.19.03.45-.1.72-.26-.17.01-.32.04-.48.08m.83-.31c-.16.03-.33.06-.48.1-.01 0-.01.01-.02.01.13-.02.25-.03.38-.04.04-.02.08-.04.12-.07m.21 2.2c.04-.02.07-.05.09-.08-.12.01-.24.02-.36.02a.17.17 0 0 0-.06.06h.33m-8.46-17.77c-.07-.03-.32 0-.31.12.08 0 .16-.03.23 0 .03-.03.08-.07.08-.12m.57 1.71c-.01.02-.03.05-.02.08.07-.01.14-.01.21 0l.11-.11c-.11.02-.21.03-.3.03m.35.11c.02 0 .04.01.06.01.16-.06.32-.12.49-.16-.12-.02-.26-.02-.39-.01l-.16.16m.21.36c-.07.04-.13.09-.19.14.22.03.38.22.66.01-.1-.12-.3-.18-.47-.15m-.95-1.37c.16.01.33-.03.36-.2-.08.02-.16.02-.24.02-.04.06-.12.1-.12.18m1.98 2.17s0-.01-.01-.01c-.02-.13-.68-.13-.84-.04.29.01.56.06.85.05m6 13.89c.07.01.14.01.22.02.1-.05.2-.12.28-.19-.16-.08-.37.03-.5.17m-7.37-15.39c.1-.03.2-.04.31-.03.04-.05.09-.09.14-.14-.18 0-.34.04-.45.17m.8.03c.08-.05.15-.09.22-.15-.13-.01-.27-.03-.41-.04l-.14.14c.11.02.23.04.33.05m.53-.18c-.03.01-.06.01-.08.02-.06.05-.12.1-.18.14.09-.02.18-.07.26-.16m-2.14-1.56c.17.02.31-.07.38-.21-.12-.1-.39.07-.38.21m8.15 16.24c.22-.05.44-.13.67-.23-.09-.01-.18-.01-.26-.01-.14.08-.27.16-.41.24m.84-.5c-.03.02-.07.04-.1.06.09.01.19.03.28.05l.24-.12c-.14 0-.28 0-.42.01m1.15-.41c-.1-.01-.19-.03-.29-.04-.05.02-.1.05-.15.07-.17.08-.34.16-.51.25.14 0 .28 0 .42.01.18-.09.35-.19.53-.29m.3-.17c.17-.1.35-.2.52-.3-.07-.01-.14-.01-.21-.01-.19.1-.38.2-.58.3.08 0 .17.01.27.01m1.04-.59c-.07.02-.14.05-.18.06-.03.01-.06-.01-.07-.04-.09.05-.18.1-.28.15.06 0 .13.01.19.02.11-.06.23-.13.34-.19m-2.37 3.4c.08-.03.15-.07.2-.12-.13.01-.26.03-.39.04-.04.02-.07.06-.09.1.09-.01.19-.01.28-.02"/><path class="st0" d="M128.41 20.42c-.29.01-.71.24-.92.44.33-.06.7-.2.92-.44m-7.76-13.71c.12-.01.37.05.4-.12-.14.03-.39-.07-.4.12m1.54 1.64c-.18-.09-.35-.21-.62-.05.2.09.4.33.62.05m-.26.43c-.03.02-.06.05-.08.08.09.03.18.03.28.03 0-.02.01-.03.02-.05.01-.01.01-.01.02-.01h-.01c-.04-.01-.08-.01-.12-.01-.04-.01-.07-.01-.11-.04.01 0 .01 0 0 0m6.99 14.42c.05 0 .1.01.15.01.14-.03.29-.12.38-.23-.18-.03-.37.09-.53.22m-7.61-15.84c.01 0 .02.01.02.02.01 0 .02 0 .02.01.08.01.16.01.24.03.05-.05.1-.1.15-.14-.15 0-.29.03-.43.08m1.14-.11c-.16 0-.33-.01-.5 0-.06.06-.13.12-.19.18.02 0 .04 0 .06.01.02 0 .04 0 .06.01.13.01.25.01.36 0 .07-.07.14-.14.21-.2m.02.16c.08-.02.17-.03.26-.05.05-.03.11-.05.16-.09-.09 0-.17 0-.26-.01-.06.05-.11.1-.16.15m-1.64-1.02c.19-.01.55.08.59-.2-.2-.01-.53-.07-.59.2m7.41 15.17c.07-.02.17-.04.22-.09-.04-.06-.23.03-.22.09m-7.41-16.15c-.11-.06-.22.11-.25.19.13.03.23-.09.25-.19m8.91 18.58l.25-.03c.08-.04.15-.09.2-.16-.15-.05-.41.03-.49.19.01.01.03.01.04 0m-1.26-2.56c.02 0 .05 0 .08-.01 0-.02.01-.04.03-.05.06-.03.14-.06.21-.08-.09-.01-.29.04-.32.14m-6.36-14.52c-.22.01-.43.06-.6.15.15-.01.3-.01.45 0 .05-.06.1-.1.15-.15m.51.15c.04-.04.08-.08.12-.13-.14-.02-.29-.03-.44-.03-.05.05-.1.1-.16.15.16.01.32.01.48.01m.18 0c.19 0 .38-.02.57-.05-.03 0-.07-.01-.1-.01h-.04c-.11-.01-.22-.03-.34-.04-.03.03-.06.06-.09.1m4.59 11.4c-.08.06-.16.11-.23.16.12-.03.24-.08.37-.15-.04 0-.08-.01-.11-.01-.01.01-.02 0-.03 0m.16-.11l.17.03c.09-.05.19-.11.28-.16-.06-.02-.12-.03-.18-.05-.09.05-.18.11-.27.18m.59-.23c.07-.05.14-.09.21-.14-.05-.01-.1-.03-.15-.04-.07.04-.15.08-.23.12.05.02.11.04.17.06m-4.62-7c.17-.02.33-.01.49 0 .04-.06.1-.11.16-.14-.23-.03-.45-.03-.65.14m.72-.03c-.01 0-.02.01-.03.02.05-.01.1-.02.14-.03l.01-.01.01-.01c.02-.01.04-.01.06 0l.15-.03c-.11 0-.22-.02-.34-.03.04.02.04.07 0 .09m5.14 11.01c-.14.08-.27.16-.4.24.2-.05.42-.12.64-.21-.02 0-.04-.01-.05-.01-.06 0-.12-.01-.19-.02m.25-.13c.1.01.2.03.31.04.13-.06.26-.12.4-.18-.13-.01-.27-.01-.4-.02-.11.05-.21.1-.31.16m1-.53c-.17.09-.33.17-.5.26.14.01.29.01.43.02.16-.08.32-.16.47-.24-.14-.01-.27-.02-.4-.04m1.18-.38c-.05-.01-.1-.03-.14-.04-.06-.01-.11-.03-.17-.04-.17.09-.34.18-.52.28.12.01.25.03.37.05.15-.08.31-.16.46-.25m.46-.24c-.03-.07-.15-.11-.22-.14-.12.07-.24.14-.37.21.1.02.2.05.31.08.09-.05.18-.1.28-.15m-8.75-10.54c.02-.05.04-.11.05-.16-.1-.01-.19-.01-.29-.02-.03.01-.05.03-.08.04l.01.01c-.01-.02 0 0 .01 0 .01.01.02.01.03.02.03.02.07.03.1.05.06.02.11.04.17.06m.18-.16c-.01.07-.03.13-.06.2.07 0 .14.01.21.01.01-.01.02-.01.03-.01.03-.05.05-.12.07-.18-.08-.01-.17-.01-.25-.02m.33.22h.24c.03-.05.05-.1.08-.15l-.25-.03c-.03.06-.05.12-.07.18m.39-.02c0 .01.01.01.01.02h.15c.02-.03.04-.07.06-.1l-.17-.03c-.02.03-.03.07-.05.11m.59.01c-.08-.02-.16-.05-.24-.06-.01.02-.03.04-.04.07.09-.01.19-.01.28-.01m-3.88-4.36c.14-.04.35.04.49-.01l.11-.17h-.5c-.01.07-.13.1-.1.18m8.43 17.17c.09.1.32-.08.4-.15-.15-.07-.28.04-.4.15m-8.52-18.1c-.06.01-.12.09-.12.15.08 0 .11-.09.12-.15m6.62 13.64l.06.03c.1-.03.2-.07.29-.11-.05-.02-.1-.04-.14-.05-.07.05-.14.09-.21.13m.34-.22c.05.02.1.04.16.06.09-.05.17-.11.26-.16-.06-.03-.12-.05-.18-.07-.08.06-.16.11-.24.17m.54-.18c.07-.05.15-.09.22-.14-.03-.02-.06-.03-.08-.05-.02-.01-.04-.01-.06-.02-.08.04-.17.08-.25.14.06.02.11.05.17.07m-4.9-8.62c-.05-.01-.1-.01-.15-.02-.01.05-.02.1-.03.14.01 0 .01.01.02.01h.04c.05-.04.09-.08.12-.12v-.01m.12.07c0 .03-.01.06-.01.09l.27.03.03-.15-.26-.03c0 .01 0 .02-.01.03-.01.01-.01.02-.02.03m.42 0c0 .01-.01.03-.01.04-.01.03-.01.07-.02.11.1.01.2.03.3.03.02-.05.03-.09.05-.14-.1-.01-.21-.03-.32-.04m.41.19c.07 0 .14.01.21.01.02-.03.03-.07.05-.1l-.21-.03c-.02.04-.04.08-.05.12m.53 0c.03 0 .05.01.07.03.01-.02.01-.04.01-.06-.07-.01-.15-.03-.22-.04-.01.02-.02.05-.04.08.06 0 .12-.01.18-.01m-1.45-.5c.01-.07.03-.14.05-.2-.05-.01-.1-.01-.16-.02l-.03.2c.05.01.09.02.14.02m.18-.18c-.02.07-.04.13-.05.2.1.01.21.03.31.04.02-.06.04-.13.06-.19-.11-.01-.22-.03-.32-.05m.45.08l-.06.18.34.04c.02-.06.04-.11.05-.17-.11-.01-.22-.03-.33-.05m.41.25c.06.01.12.02.18.02.02-.01.04-.01.06-.02.02-.05.03-.09.05-.14l-.24-.03c-.02.06-.03.11-.05.17m.63-.08v-.02c-.07 0-.14-.01-.2-.01-.01.03-.02.06-.03.08.07-.02.15-.03.23-.05m-3.91-3.9c.12-.03.3.03.42 0 .03-.06.07-.12.1-.17-.17.01-.49-.07-.52.17M128 18.87c.01.01.03.02.04.02.11-.04.21-.09.32-.14-.02-.01-.05-.02-.07-.03-.1.06-.19.11-.29.15m.41-.23c.03.01.06.03.09.04.1-.05.19-.1.29-.16-.05-.02-.09-.04-.14-.06l-.24.18m.51-.2c.07-.04.13-.08.2-.12-.05-.03-.11-.05-.16-.08-.06.04-.13.08-.19.13.05.03.1.05.15.07m-4.47-9.57c-.02.08-.04.16-.07.24.02 0 .04.01.06.01.01-.01.03-.01.05 0 .07.02.13.04.2.05h.01c.02-.08.05-.16.07-.24-.11-.02-.22-.04-.32-.06m-.61.11c.01-.06.03-.12.04-.18-.05 0-.1-.01-.15-.01-.01.01-.03.01-.05.01-.03-.01-.08-.01-.12-.01-.01.03-.03.06-.04.09-.04.07-.14.01-.11-.06-.07.02-.14.06-.17.12l.24.03c.01-.08.14-.07.13.01v.01c.08.01.16.03.24.04-.01-.02-.01-.04-.01-.05m.12.06c.09.02.19.04.28.05.03-.08.05-.16.07-.24-.1-.01-.2-.03-.3-.04-.02.07-.04.14-.05.21.01.01 0 .01 0 .02m.87.15c.09 0 .17 0 .26-.01.02-.06.04-.11.05-.17-.08-.02-.16-.03-.24-.05-.02.07-.04.15-.07.23m.62-.07h.03c0-.01 0-.03-.01-.04-.07-.02-.14-.03-.21-.05l-.03.12c.08 0 .15-.01.22-.03m4.69 14.06c.13-.02.32 0 .4-.14-.11-.07-.36-.02-.4.14M127.67 18c.01 0 .02 0 .03.01.16-.09.29-.18.43-.28a.076.076 0 0 0-.04-.02c-.02-.01-.03-.01-.05-.01-.04-.01-.07-.01-.11-.01-.06.11-.16.21-.27.3l.01.01zm3.88 3.46c-.19.09-.38.18-.58.27.13 0 .26.01.39.01.16-.08.32-.16.47-.24-.09-.01-.19-.02-.28-.04m.2-.1l.28.03c.12-.06.23-.13.35-.19-.08-.02-.15-.03-.23-.05-.13.08-.26.15-.4.21m.96-.34c-.03-.05-.15-.08-.21-.1-.06.05-.12.09-.19.13.09.02.17.04.26.05.04-.02.09-.05.14-.08m-2.92 1.33c.11-.02.23-.06.35-.09-.06 0-.12-.01-.19-.01-.05.04-.11.07-.16.1m.54-.31c.11.01.23.02.34.02.15-.06.29-.13.44-.2-.13-.01-.26-.01-.39-.02-.13.07-.26.13-.39.2m-2.03-3.01c.04.02.09.04.14.07.11-.05.21-.1.32-.16-.05-.02-.1-.04-.15-.07-.1.06-.21.12-.31.16m1.07-.42l.21-.12c-.08-.02-.16-.05-.24-.07-.06.03-.13.07-.2.11.08.03.15.05.23.08m-.63.18c.06.02.11.05.17.07.1-.05.2-.11.3-.16-.07-.03-.13-.05-.2-.08-.09.05-.18.11-.27.17m-6.65-13.57c.02-.06.11-.1.08-.18-.14-.04-.38-.01-.43.17.12-.01.23.02.35.01m6.69 14.02c.13-.04.27-.09.4-.14-.05-.02-.11-.04-.16-.06-.1.07-.2.13-.29.18.01 0 .01.01.02.01.01.01.02.01.03.01m.38-.29c.07.03.14.05.21.07.12-.05.24-.11.36-.17-.1-.02-.2-.05-.3-.08l-.27.18m.74-.2c.05-.03.11-.07.15-.1-.05-.03-.1-.05-.15-.08-.03-.01-.06-.01-.09-.02-.08.03-.15.08-.23.12.11.03.22.05.32.08m-.96.76c.05-.02.09-.04.14-.06-.05-.01-.1-.03-.14-.04-.03 0-.06.01-.1.01 0 .06.06.06.1.09m.33-.13c.12-.05.24-.1.37-.14a.737.737 0 0 1-.14-.04c-.11.06-.21.12-.33.16.04 0 .07.01.1.02m.58-.23c.14-.06.28-.12.4-.19-.1-.02-.19-.03-.29-.05-.1.07-.2.14-.31.2.07.01.14.02.2.04m.65-.34c-.03 0-.05-.01-.08-.02l-.16.03.18.03a.21.21 0 0 1 .06-.04m-7.48-12.93c-.21 0-.41.03-.59.13.16-.01.32-.01.49.01.03-.05.07-.1.1-.14m.16 0c-.04.05-.07.1-.11.15.11.01.21.03.31.04l.12-.15c-.1-.01-.22-.03-.32-.04m.41.23l.23.03.09-.12c-.07-.02-.14-.03-.21-.05-.05.05-.08.09-.11.14m5.53 13.64c.14-.06.29-.11.43-.17-.05-.01-.09-.03-.14-.04-.12.05-.23.1-.34.15.02.04.05.03.05.06m1.18-.55c.05 0 .07.05.05.08.24-.1.47-.21.7-.34-.04.01-.08.01-.13.02l-.11.03c-.01.03-.03.05-.07.05-.03 0-.07-.01-.1-.02-.05.01-.11.02-.17.03h-.01c-.09.05-.19.1-.28.15.05-.01.09 0 .12 0m-.05.12c-.09 0-.19-.01-.28-.03-.12.06-.25.11-.37.17.05.01.1.03.15.05.17-.06.33-.12.5-.19m.53 3.81c.08-.01.16-.01.24-.01.06-.01.13-.03.19-.04.02-.01.05-.03.07-.05-.14-.02-.4-.06-.5.1m-8.7-18.3c.17.04.41-.02.43-.22-.09-.03-.19-.03-.29-.03-.06.08-.13.16-.14.25m1.33.72l-.11.17.37.06c.03-.05.07-.1.1-.16-.13-.03-.25-.06-.36-.07m-.15-.02c-.22-.02-.42.01-.56.13.15 0 .3.02.45.04.04-.06.07-.12.11-.17m.81.3c.02-.02.04-.04.07-.06 0-.03 0-.06.01-.09-.08-.01-.17-.03-.25-.05l-.09.15c.08.03.17.04.26.05m.58 2.06c.01-.05.02-.1.04-.15l-.27-.03c-.02.04-.03.09-.05.13.09.02.18.04.28.05m-.86-.15c.12.02.24.04.36.07l.04-.1c-.14-.01-.27 0-.4.03m.98.18c.09.01.18.03.27.05.01-.05.03-.1.04-.14l-.27-.06c-.01.04-.02.09-.04.15m.44-.07c-.01.04-.02.09-.04.13.08.01.15.02.23.04.01-.03.02-.06.03-.1-.08-.02-.15-.05-.22-.07m.62.22c-.09-.04-.19-.08-.28-.11l-.02.07c.1.02.2.03.3.04m6.77 13.5c-.1 0-.21-.01-.31-.02-.11.07-.22.14-.33.22.1 0 .2.01.3.01.12-.08.23-.15.34-.21m.53-.34c-.11.02-.21.03-.31.03-.11.04-.22.1-.34.17.1.01.21.01.31.01.12-.08.24-.15.34-.21m-1.35.65c-.21.13-.42.26-.62.34h.14c.23-.07.49-.19.75-.34-.09.01-.18.01-.27 0m-.3 1.26c.16.02.41-.15.52-.27-.19.03-.4.12-.52.27m-9.11-18.8c.1.01.19.03.29.04.06-.06.1-.11.15-.17-.15-.09-.43-.11-.44.13m1.15.81c-.26-.06-.49-.06-.64.12.05.01.09.03.14.04.13-.02.26-.01.38.01.04-.06.08-.12.12-.17m.07.13c-.01.02-.03.04-.04.06.11.02.22.05.33.07l.09-.15c-.1-.03-.21-.06-.31-.08-.03.03-.05.07-.07.1m.56.14c.01-.03.03-.05.07-.05h.06c.01-.02.02-.04.04-.04V5.3c-.07 0-.14-.01-.21-.02-.03.04-.05.09-.08.14.03.01.08.01.12 0m.37 1.97v.02c0 .03 0 .06-.01.08.07.01.15.03.22.04.01-.05.03-.11.04-.16-.08.01-.16.01-.25.02m.36.12l-.01.05c.09.02.18.03.27.05.02-.06.03-.11.05-.17-.09-.02-.18-.04-.27-.05l-.03.09c0 .02-.01.03-.01.03m.65.03l-.22-.06c-.01.05-.03.11-.04.16.08.02.15.03.23.05 0-.05.02-.1.03-.15m.32.23c.01-.05.04-.1.02-.16-.07-.01-.14-.03-.21-.04-.01.05-.03.1-.04.15.07.01.15.03.23.05m-2.05-3.01c-.3-.06-.61-.05-.75.12.19.02.38.06.58.1.06-.07.11-.15.17-.22m.12.03c-.05.07-.1.15-.15.22.11.02.21.04.32.05 0-.01.01-.01.01-.02 0-.02.01-.05.04-.07h.01c.02-.03.03-.06.05-.08-.09-.04-.18-.08-.28-.1m-.89-.79c.07-.02.15-.12.16-.19-.49-.29-.67.38-.16.19m9.17 19.17c.32 0 .76-.33.98-.54-.34-.01-.56.43-.98.54m.27-1.27c-.1.07-.19.13-.29.18.03.01.04.04.04.07.19-.05.39-.14.58-.25h-.33m.54-.13c.09-.06.18-.12.26-.18-.12 0-.24-.01-.36-.01-.09.06-.18.13-.28.19h.38m.58-.4l-.01-.01c-.13-.05-.29 0-.47.1.11 0 .22.01.33.01.06-.04.11-.07.15-.1m-9.54-16.93c-.24-.07-.49-.15-.66.06.19.02.37.05.55.09.04-.05.07-.1.11-.15m.23.22c0-.01.01-.02.01-.03.02-.08.14-.04.12.04v.01c.01 0 .03 0 .04.01-.02-.06.02-.1-.01-.17a.704.704 0 0 1-.28-.04c-.04.04-.07.09-.11.14.08 0 .15.02.23.04m-.65-1.19c-.2-.02-.58-.18-.69.07.22-.01.44.17.69-.07m1.61 3.77l.03-.11c-.08-.01-.16-.02-.24-.02 0 .02-.01.03-.03.04 0 .01-.01.02-.02.02.08.03.17.05.26.07m.15-.08l-.03.12c.07.02.15.03.23.04l.03-.11c-.08-.02-.15-.04-.23-.05m.53.21c.01-.03.02-.06.01-.09-.06-.01-.13-.03-.19-.04-.01.03-.01.07-.02.1l.2.03m-1.43-3.09c.02-.06.04-.11.02-.18h-.04c-.04.06-.09.11-.13.16.05.01.1.02.15.02m-.15-.2c-.18-.05-.36-.12-.5.08.12.04.25.06.37.09.04-.06.08-.12.13-.17m-.31-.94c-.2.02-.55-.18-.65.06.23-.05.5.21.65-.06m9.92 19.39c-.3-.07-.65.31-.88.51.34-.02.71-.27.88-.51m-7.97-15.48c0-.04.03-.08.01-.13-.05-.02-.11-.03-.17-.05-.01.05-.02.1-.03.14.06.02.12.03.19.04m-.32-.06l.03-.14a.81.81 0 0 0-.22 0l-.03.1c.08.01.15.02.22.04m-.97-3.26c-.08-.02-.15-.04-.23-.05-.04.06-.16.09-.17.17.14-.01.4.14.4-.12m.31 1.28c-.07.2.15.13.25.17.21.28.59.2.91.18-.01-.05 0-.09-.03-.15-.39-.03-.76-.13-1.13-.2m8.94 16.44c.02-.01.04-.03.06-.04-.21.02-.44.2-.62.36.09 0 .18 0 .27-.01.12-.06.23-.12.32-.2-.05-.01-.08-.07-.03-.11"/><path class="st0" d="M125.48 4.85c.03.06-.07.07-.04.13.83.41.96-.5.76-1.18-.13.07-.13.18-.25.26-.21-.05-.49-.26-.7-.08.18.13.43.08.61.21-.01.06-.05.12-.1.17-.2-.01-.73-.35-.68.07.11.05.2.02.32-.07.15.09.29.19.45.24-.01.05-.05.1-.1.14-.24-.06-.49-.06-.74-.07-.03.24.35.07.47.18m-.5-1.46c-.1-.08-.22-.03-.29.07.05.07.14.05.21.06.02-.04.08-.07.08-.13m.36-.4c-.09-.04-.27.09-.29.17h.01c.02 0 .03.01.04.03.1.03.25-.1.24-.2m9.17 18.6c.03-.03.05-.06.06-.09-.13-.08-.35.08-.43.21.13-.03.26-.07.37-.12"/><path class="st0" d="M126.08 3.84c.04-.29-.42-.43-.52-.15.19.01.34.12.52.15m-.47 4.9c0-.01 0-.01 0 0-.08-.03-.16-.05-.24-.07-.01.04-.02.08-.03.13.09 0 .18-.02.27-.06m-1.66-.16c.01-.04.03-.09.04-.13-.1-.01-.19-.03-.29-.04-.02.05-.04.1-.05.15.1 0 .2.01.3.02m-.42-.04l.06-.15-.12.03c-.02.01-.04.01-.07.02-.08.03-.16.05-.24.06-.01 0-.01.01-.02.01v.01c.08 0 .15.01.23.02.01-.02.02-.03.03-.05.04-.07.14-.01.12.06 0-.01 0-.01.01-.01m.91.1c.01-.04.03-.09.04-.13-.12-.02-.23-.03-.35-.05-.01.04-.03.09-.04.13.11.02.23.04.35.05m.43-.06c-.09-.01-.17-.03-.26-.04-.01.03-.02.06-.03.1v.04c.08.01.17.03.25.04.01-.03.02-.06.03-.1 0-.02.01-.03.01-.04m.09.15c.08.02.16.03.24.05l.03-.14c-.08-.02-.16-.03-.24-.04l-.03.13m-2.27-2.42a.7.7 0 0 0 .08-.1c-.22-.01-.43.01-.62.12.15.03.31.05.47.06.03-.04.05-.06.07-.08m.24-.09c-.04.06-.09.11-.13.17.12 0 .24 0 .36.01.03-.04.06-.08.08-.12-.11-.03-.21-.05-.31-.06m.37.17c.13 0 .25.01.38.02l.03-.03v-.03c-.11-.02-.22-.04-.34-.06-.02.04-.05.07-.07.1m-1.04 17.44c-.12.02-.23.03-.34.04.07.02.13.05.2.07.05-.03.1-.07.14-.11m.18-6.25c.33-.36.66-.72.99-1.09-.56.06-1.07.67-1.46 1.15.16-.02.31-.05.47-.06m-.59.2c-.03.04-.07.08-.1.11-.14.07-.23.19-.3.31.16-.05.34-.09.51-.11.12-.12.23-.25.35-.37l-.43.06c-.01.01-.02.01-.03 0m-4.68-1.83c-.01.01-.02.03-.03.04.08.02.17.03.25.04.15-.15.3-.29.45-.43-.15.06-.31.13-.44.19-.05.06-.1.12-.15.17-.02.03-.05.02-.08-.01m.81-.93c.2-.05.4-.08.58-.08l.3-.3c-.23.03-.47.08-.72.15-.06.07-.11.14-.16.23 0-.01 0 0 0 0m-.94 1.74c-.32.05-.6.17-.88.3-.52.24-1.08.37-1.63.51-.34.09-.76.14-1.06.35.04 0 .08 0 .12.01.42-.19.88-.23 1.33-.34.19-.05.41-.12.62-.15.43-.15.84-.29 1.22-.45 1.53.16 3.65-.49 5.06-1.79-.24.11-.49.22-.73.32l-.01.01c-.4.23-.82.4-1.24.6-.23.11-.46.26-.7.32h-.03c-.42.14-.86.21-1.29.25-.26.02-.52.02-.78.06"/><path class="st0" d="M119.99 15.92c-.98.31-1.91.47-2.75.47-.01.03-.03.05-.06.04.02.01.05.03.05.07-.02.07-.1.14-.19.13-.02-.03-.04-.07-.06-.1-.01.01-.03.01-.06.01-.11-.05-.27-.01-.4.01-.01.03-.05.04-.08.03-.02.06-.13.08-.19.1-.68.28-2 .51-2.83 1.11.26-.15.57-.22.85-.29.57-.14 1.17-.26 1.7-.51.54-.25 1-.38 1.59-.42.6-.03 1.21-.12 1.76-.35h.04c.18-.08.35-.18.52-.26.04-.01.08-.03.11-.04m-1.97 5.5c-.2.06-.4.11-.6.15-.15.12-.31.23-.48.34.22-.02.44-.06.65-.12.14-.1.29-.23.43-.37m-.51-.24c-.2.05-.4.1-.61.12-.09.08-.19.15-.28.23.2-.01.4-.03.6-.06l.29-.29m4.84-10.29c-.37.12-.71.34-1.05.57.15-.08.31-.15.46-.23.12-.07.43-.2.59-.34m-4.93 3.95c-.08.06-.16.11-.25.16-.01.01-.01.01-.02.01v.02a.3.3 0 0 0 .08-.04c.07-.04.13-.1.19-.15zm4.29-3.16c.23-.12.46-.22.7-.32-.22.01-.48.16-.7.32m-3.15 2.17c.01 0 .02.01.03.01.12-.1.24-.2.36-.29-.13.1-.26.19-.39.28m4.92-3.03a.53.53 0 0 0-.15.08c.04-.01.08-.01.12 0 .36-.1.72-.14 1.05-.21-.28-.02-.7 0-1 .12 0 0-.01.01-.02.01m-.49.34c.02-.1.06-.18.13-.25-.16.08-.31.2-.4.34l.27-.09m-8.11 4.28c-.02 0-.04-.02-.05-.03-.01.01-.02.01-.03.02-.1.09-.19.18-.29.27-.06.06-.13-.02-.09-.08-.13.15-.24.3-.31.46.08-.04.17-.09.25-.15.12-.14.31-.33.52-.49"/><path class="st0" d="M114.92 16.39l.33-.24c-.01 0-.03-.01-.04-.01.1-.13.24-.2.4-.24.18-.12.35-.23.54-.34l.01-.01c.15-.15.32-.28.5-.4.15-.13.29-.25.44-.37.33-.25.67-.49 1-.74.64-.47 1.27-.95 1.93-1.39.51-.34 1.04-.66 1.56-1 .26-.18.64-.46.98-.38.14-.31.55-.55.88-.56.15-.06.32-.1.49-.12-.33.02-.67.07-1.02.15.03-.06.05-.12.07-.19-.11 0-.22.04-.33.09-.03.05-.06.09-.09.13-.03.18-.25.3-.39.38-.27.16-.56.3-.84.45-.45.24-.85.58-1.27.86-.46.31-.95.58-1.38.93-.02.02-.04.02-.06.01-.8.58-1.6 1.17-2.37 1.68l-.06-.09c-.23.02-.46.03-.69.07-.14.06-.29.13-.43.19-.04.04-.08.09-.12.13.26-.18.56-.31.8-.25.09 0 .18-.01.26.05-.04.02-.08.05-.13.07-.01.02-.04.04-.06.04-.93.54-2.01 1.15-2.52 1.89.37-.25 1.08-.75 1.61-.79m8-6.13c-.03.01-.07.03-.11.05 0 .03-.01.06-.01.08-.01.03-.03.05-.05.04 0 .01 0 .02-.01.02.1-.03.2-.05.3-.05.02-.07.03-.14.05-.21-.07.03-.12.05-.17.07m-.06-.41c0 .11-.01.22-.03.32.09-.04.18-.09.22-.11.01-.01.03-.01.04-.02.01-.1.01-.21.01-.31-.07.04-.15.08-.24.12m.02-.42c0 .06-.01.12-.01.18v.1c.08-.04.16-.08.24-.13l-.03-.29c-.07.04-.14.09-.2.14m.01-.17c.06-.04.11-.08.16-.12-.01-.08-.03-.17-.05-.25-.04.03-.08.07-.12.1.01.08.01.17 0 .26.01 0 .01 0 .01.01m-2.62 8.86c.02-.1.04-.2.07-.29-.12.06-.25.12-.38.18-.04.12-.07.23-.11.35.06-.03.11-.06.14-.08.08-.05.18-.1.28-.16m.11-.46c.06-.22.15-.43.26-.63-.37.2-.53.5-.64.82.13-.06.26-.13.38-.19m-.84.52c-.02.11-.03.22-.04.34.09-.03.18-.07.26-.12 0-.11.02-.22.04-.33-.09.04-.18.08-.26.11m.38-.65c-.2.12-.3.29-.35.5.09-.03.17-.07.26-.11.06-.21.14-.41.23-.61-.13.01-.08.15-.14.22m1.51 5.9c-.07.01-.15.03-.22.05l-.01.01c.04-.01.07-.01.11-.02.09-.02.18-.03.28-.05-.05 0-.1.01-.16.01.01 0 0 0 0 0m1.58.12c.09.03.18.07.26.11.01-.01.03-.02.03-.04-.09-.02-.19-.04-.29-.07"/><path class="st0" d="M120.23 18.3c-.11.06-.22.12-.32.16-.03.02-.08.04-.14.07 0 .01-.01.02-.01.03v-.02c-.08.04-.18.09-.28.12-.01.1-.03.19-.06.28-.02-.09-.03-.17-.04-.25-.08.01-.15.01-.21-.03-.07-.05.01-.16.07-.11.03.02.07.03.12.02-.01-.1-.01-.2.01-.3-.07.03-.14.06-.2.09-.04.21-.07.42-.12.62.01.02.05-.02.07 0-.01.03-.03.05-.04.08h.04c0-.05.07-.08.12-.04.12.11.57-.17.68-.23.22-.13.46-.27.61-.49.05-.07.16 0 .11.07-.19.28-.54.49-.85.63-.13.06-.38.2-.56.15-.01.03-.03.04-.06.04-.06 0-.12 0-.17.01l-.12.18c.18-.05.38-.09.56-.12.04-.01.07.02.07.05.16-.07.32-.15.35-.17.21-.13.46-.27.61-.47.05-.07.16.01.11.07-.23.31-.65.54-.99.7-.07.04-.36.18-.48.11h-.01c-.06.02-.13.04-.2.06-.05.01-.11.03-.16.03-.05.02-.1.04-.14.06-.42.41-.97.75-1.51 1.1.1-.02.2-.04.31-.06.17-.12.36-.22.58-.28-.1.08-.21.16-.31.25.13-.02.26-.04.39-.07.1-.1.2-.19.3-.28.08-.02.16.05.21.12l.06-.03c.07-.04.13.08.06.12-.05.03-.11.05-.16.08l-.2.2c.13-.03.25-.04.37-.02.06-.04.11-.07.14-.07.07 0 .13.07.15.15-.03.02-.05.05-.08.07.01-.01.03-.01.04-.02.08-.04.13.08.06.12-.13.06-.26.12-.4.17-.13.11-.26.23-.4.34.37-.17.71-.36 1-.54.07-.04.13.07.06.12-.05.03-.09.06-.14.08.02.08.01.16-.03.22-.15.09-.27.11-.4.14l-.02-.03c.14-.06.23-.16.31-.25-.37.22-.81.44-1.26.58-.2.11-.41.2-.65.26.02-.05.08-.1.16-.14-.16.03-.32.04-.48.04-.4.25-.82.47-1.29.65.14.12.5-.14.72-.14-.06.11-.33.14-.36.26.2.14.57-.22.71-.3-.03.09-.18.14-.15.25.26.02.34-.36.65-.41.04.13-.21.23-.17.39.25-.03.33-.41.63-.49-.02.14-.21.23-.2.38.28-.15.6-.72.98-.59.16-.08.35-.12.5-.08-.34.16-.52.38-.76.57.6.14.76-.8 1.49-.78-.28.23-.66.47-.89.75.02.01.05.01.07.01.04-.01.08-.03.11-.04.05-.02.1-.05.15-.08.01 0 .02-.01.03-.01s.02-.01.03-.01c0-.02.01-.05.04-.06.02-.01.04-.01.05-.02.5-.73 1.64-1.03 2.68-1.38 1.47-.5 3.08-1.16 4.36-1.99.1 0 .23-.08.34-.1.01-.02-.06-.08-.05-.13.44-.4 1.16-.65 1.4-1.1-.06-.02-.12-.05-.17-.07-.09.17-.23.32-.39.42-.06.06-.12.1-.2.15-.01.01-.02.01-.03.01-.1.12-.22.22-.36.28-.21.17-.4.3-.46.33-.71.46-1.48.84-2.24 1.21-.32.16-.64.31-.99.41-.16.05-.32.13-.49.16-.02 0-.04 0-.07.01-.1.04-.21.08-.31.12-.88.33-1.76.67-2.68.87-.04.01-.07-.02-.08-.05 0-.02-.01-.04-.01-.06h-.02c.02-.14-.01-.3-.06-.46.39-.4.78-.8 1.16-1.2.13-.24.29-.45.44-.68.05-.14.1-.27.18-.4 0-.01.01-.01.01-.01-.01 0-.02.01-.03.01.03-.08.07-.16.1-.24-.01-.03 0-.06.03-.07h.01c.38-.7 1.09-1.29 1.8-1.88-.78-.13-1.19.76-1.62 1.12.1-.36.43-.65.68-.96-.86.31-.93 1.33-1.79 1.77-.02-.07-.01-.09-.01-.11m-1.12 2.38c-.03-.03-.07-.06-.09-.11.44-.2.65-.52.83-.83-.12.1-.26.19-.39.26-.14.17-.34.32-.57.45-.62-.25-.28-.55.18-.74-.05.09-.11.17-.19.25l.01.01c.05.08.2.05.37-.04.17-.18.32-.37.48-.57-.01.11-.05.22-.09.32.15-.11.29-.22.4-.32.07-.1.14-.19.22-.28-.01.03-.01.07-.02.1h.01c.06-.06.15.04.09.1-.03.03-.09.08-.16.15-.15.5-.49.91-1.08 1.25m1.35-1.37c.1-.43.15-1 .59-1.31-.12.42-.3.95-.59 1.31"/><path class="st0" d="M121.29 18.46c.01.01.01.03 0 .05-.01.04-.02.09-.04.13.03.01.05.03.05.06.03-.01.07-.01.1-.02.13-.14.26-.28.39-.41-.16.02-.32.06-.46.12-.01.02-.03.04-.04.07"/><path class="st0" d="M100.91 9.66c.14-.14.04-.4.29-.47.67 1.46 1.94 2.86 2.77 4.01.19.26.66.62 1 .5 1.54.57 3.27.61 4.81 1.18.04.11.14.24.08.31-.05-.03-.08-.12-.17-.06.48.47.95 1.54.68 2.1-.05 0-.03-.08-.08-.08-.25.06-.21.35-.46.4-.06-.12.14-.21.04-.31-.17.03-.17.2-.19.31-.13-.02-.15.12-.19.19-.02-.03 0-.04-.02-.07-.12.15-.11.33-.4.4.05.23-.07.16-.21.06-.79-.55-1.83-1.12-2.83-.21-.82.73-1.83 1.61-2.61 2.38-.16 0-.31-.01-.51.09.09.12.24.07.34.14-1.54.07-3.18.41-4.66.29-.03-.13-.03-.31.05-.43-.12.02-.51.13-.5.25.02.12.19.18.24.29.1.24-.06.92.4.8-.48-.65.6-.51 1.07-.61l.09-.01c1.04-.08 2.01-.03 3.05-.11-.09.16-.33.13-.43.17 1.1.12 2.16-1.05 2.9-1.82.41-.43.71-.95 1.14-1.19.37.67 1.11.26 1.48.92-.21.22-.4.52-.48.8-.02-.07-.05-.16-.11-.17-.29.18.1.61-.1.78-.04-.1.04-.26-.1-.31-.25.12.01.41-.09.58-.29-.98-1.05-.76-1.69-.27-1.17.89-1.02 2.26-.89 3.55-.74.29-1.43-.29-1.99-.51.43.73 1.18.74 1.82.96.13-.12.31-.06.34.13-.1.03-.21.05-.25.14-.61-.46-.18.74.06.7.18-.03.22-.28.38-.35.03.03.08.12.09.15-.08.76-.72 1.52-.26 2.34.18-.63-.18-1.82.85-1.83.72.65 1.48 1.33 2.43 1.4.3.02.87-.02 1.09-.08.82-.2.96-.87.69-1.48.12.06.25.3.39.16.09.12.22.26.35.19 0-.1-.14-.15-.15-.25.25-.05.39.23.62.25.05-.06-.03-.11-.03-.18.24-.07.35.26.46.48-.15.17-.27.35-.38.53.09-.05.22-.13.31-.12-.43 1.32-2.46 1.03-3.71 1.99-.19-.03-.57.01-.69.11.11.18.31.08.48.08-.79.61-1.25 1.6-1.88 2.44-.24.32-1.23 1.58-1.41.66-.31-.11-.24.34-.18.45.08.15 1.09.65 1.2.63.42-.09-.3-.33-.36-.4 1.5-.7 1.53-2.19 2.67-3.02.08-.08.1-.25.24-.22-.02.08-.05.24.07.27.27-.24.37-.65.86-.69.01.03-.06.12 0 .11.69-.4 1.46-.72 2.16-.98.57.44 1.29-.45 1.35-.94.46-.27.22-1.07.7-1.4-.02-.15-.03-.3.05-.41.06.06.12.1.18.15.05-.04.09-.08.16-.08-.01-.07-.12-.08-.16-.16.05-.05.15-.07.22-.09.17.36.7.07.23-.09.3-.03 1.06.27.55-.14.16-.04.24.12.42.03.33.21.32.68.55.88.08-.02.04-.12.1-.12.15.14-.01.37.17.46.06-.06-.03-.18.05-.24.13.04.24.15.36.21-.48 1.04-1.04 2.1-1.48 3.14-.19.44-.2.93-.38 1.37-.16.39-.46.66-.21 1.15-.11.09-.14.21-.17.33.09.02.19-.05.25-.12.35.47.7 1.46.79 2.06.06.02.02-.13.08-.08.21.34.12.82.34.98.29.71.24 1.35.51 2.02-.15.2-.42.29-.59.15-.13.62.8.19 1.02-.11.1.14.84-.08.7-.31-.12-.2-.58.26-.79-.07-.08-.12-.15-.39-.08-.51-.55-.75-.25-1.75-.65-2.53-.5-.98-1.15-2.2-.54-2.93.03-.03.03.03.06 0 .16-.48.5-.9.57-1.39.04.07.07.21.14.18-.02-.28-.08-.62.14-.79.02.06.01.1.04.16.2-.26.04-.65.26-.91.03.03.06.09.08.14 0-.79.84-1.29.71-2.12.07-.04.09.05.16.01-.05-.38-.24-.46-.44-.68.18-.21-.41-.41-.38-.64.15-.01.29.17.44.08-.17-.24-.51-.24-.71-.5.61.01 1.12.33 1.76.27 1.4.21 2.8.35 4.27.45 1.36.09 2.82-.16 4.24-.15 1.78.01 3.97-.16 6.06-.59.3-.06.58-.12.92-.26 2.03-.79 3.28-2.31 1.72-4.08.95.02 1.84-.04 2.7.19.02-.02-.04-.06.01-.07.3-.06.48.21.74.25-.01-.04-.02-.08-.01-.11.33.05.66.74.22.91.39.23.63-.56.78-.86.22-.44-.29-1.29-.45-.64-.43.31-.77-.05-1.16-.06.06-.08.05-.28-.09-.27-.09.07-.22.27-.37.21.04-.3-.36-.21-.44-.02-.16-.03-.35-.02-.49-.11 0-.04.08-.05.05-.11-.47.14-.94.27-1.29.05-.55.12-.96-.14-1.43-.23.33-.27-.17-.2-.38-.04-.06-.04-.14-.05-.21-.06.09-.09.3-.14.25-.27-.16-.07-.35.13-.56.2-1.25-.45-2.6-1.2-3.91-1.61-.33-.1-1.77-.24-1.16-.66-.04-.13-.17-.02-.24-.09-.08-.21.24-.21.31-.32-.04-.12-.13-.06-.2-.1.14-.07.01-.24.09-.33.09.04.34 0 .27-.16-.1-.05-.28.07-.3-.13.17-.15.15-.43.26-.63-.02-.04-.07.02-.08-.03 0-.1.01-.19.01-.29-.22.04-.2-.21-.05-.3l-.05-.11c-.2.12-.4-.11-.14-.22-.01-.06-.03-.06-.06-.12-.06 0-.14.06-.18 0 .3-.28.03-.31-.22-.26.18-.1.3-.43-.03-.32-.03.02.03.11-.04.09-.08-.1-.14-.2-.19-.31.01-.09.1-.15.14-.22a.309.309 0 0 0-.12-.15c-.24.2-.32-.07-.17-.18-.03-.05-.08-.06-.11-.11-.07.04-.08.1-.17.12a.2.2 0 0 1-.12-.08c.01-.12.16-.27-.03-.35-.08.13-.32.26-.41.07.01-.08.1-.14.16-.2-.05-.06-.12-.08-.19-.1-.04.06-.07.13-.13.18-.11-.11-.19-.15-.31-.24 1.04-2.31 1.64-4.78 1.78-7.4.54-.15.56-.53-.01-.22.08-.25.27-.45.51-.62-.02-.09-.09-.04-.12-.1.11-.21.25-.42.44-.6-.18-.31.38-.47.14-.71.15-.16.61-.39.28-.56.17-.27.11-.64.33-.86.24-.24.45.14.6.02.21-.15-.47-.52-.65-.32-.07-.12-.16-.15-.28-.12-.11-.34-.95-.18-.61.19.15-.09.33-.2.45-.01-.34.83-.74 1.64-1.28 2.4-.17-.07-.19.14-.28.22-.81-.91-1.88-.86-3.12-.41-1.15.41-1.73.97-2.32 1.69a9.7 9.7 0 0 1-.98 1.04c-.83.74-1.38 1.77-2.13 2.59-2.38 2.62-4.38 5.56-6.19 8.38-.11-.37-.33-1.27-.74-1.63-.04-.02-.11.04-.15.03-.14-.37-.41-.56-.65-.79-.02.11.1.27.16.36-.37-.11-.66-.45-1.11-.35-.15-.1-.28-.26-.47-.24-.02.04.03.1.02.14-.42-.02-.76-.25-1.1-.48-.02.06.04.14.04.2-.16.03-.25-.12-.34-.28-.05-.01-.1 0-.16.02-.02.02.02.07 0 .1-.14-.09-.39-.12-.52-.01-.07 0-.1-.09-.18-.06-.04.01.03.07-.02.08-.3-.09-.63-.1-.95-.16-.02.02.04.07-.02.08-.42-.15-.89-.18-1.23-.57-.04-.02-.06.06-.11.04-1.01-.92-1.76-2.59-2.68-3.75-.04-.23.27-.25.43-.33-.32-.34-1.35.48-1.03.98M98.6 21.13c.02-.06.02-.08-.03-.15.07-.02.12 0 .17.04-.05.03-.09.11-.14.11m.33-.02c-.01-.06.11-.06.14-.03-.04.06-.1.01-.14.03m1.13-.06l-.21.02c-.22-.03-.49.03-.65-.07.37.01.76-.05 1.12-.02-.07.02-.17.04-.26.07m.56-.17c.04-.08.2-.11.23.01-.06.06-.18.07-.23-.01m1.42-.12c.13-.04.24-.04.32.07-.08.02-.29.05-.32-.07m1.97-.47c-.04.09-.34.27-.42.16.07-.07.33-.25.42-.16m2.36-2.3c-.01-.04.02-.11.06-.1.03.05-.01.11-.06.1m-2.05 1.92c.49-.3.79-.72 1.27-1-.23.37-.86.85-1.27 1m1.58-1.47c0 .01.01.02.02.02-.12.44-.5.2-.02-.02m1.3-.05c-.02-.02-.02-.04-.02-.06.05-.02.1-.03.12.02-.03.02-.08.05-.1.04m-.4-.5c.55-.3 1.16.3 1.48.65-.53-.08-.97-.48-1.48-.65m-1.77 14.45c0 .15-.42.37-.43.14.13-.02.29-.11.43-.14m.42-.45c.03.11-.11.21-.21.24l-.02-.03c.07-.07.13-.19.23-.21m.21-.26c-.03-.15.09-.25.2-.36.11.14-.08.34-.2.36m2.04-2.68c.14-.04.26.1.33.17-.12.1-.33-.02-.33-.17m1.92-.82c.25-.25.74-.31 1.05-.37-.31.22-.73.28-1.05.37m.82-.07c-.36.2-.78.38-1.11.35-.01-.02 0-.02-.01-.04.33-.08.72-.13 1.12-.31m-1.43.44c-.04.1-.45.24-.57.15.16-.15.43-.2.57-.15m-2.95 2.54c.1-.2.24-.44.42-.58 0 .18-.22.56-.42.58m.62-.8c.07-.34.33-.6.65-.85.02.29-.47.56-.65.85m4.45-2.68c.17-.07.1-.23.26-.31.5.36-.22 1.03-.26.31m.92-1.26c.06.31-.23.49-.26.76-.53.39-.11-.53.07-.71.07-.03.11.01.19-.05m3.59 10.33c-.03-.03-.08.03-.11-.02.36-.52.23.9.11.02m-1.47-5.37c.02.01.04.03.06.03.04.13-.03.22-.08.32.1.27.22.65.36 1l-.04.02c-.2-.34-.35-.69-.33-.99-.03-.02-.07.07-.12.04-.1-.15 0-.23-.02-.35.09-.02.08-.01.17-.07m.14-.54c0-.61.43-1.32.74-1.92-.22.65-.34 1.37-.74 1.92m.91-2.22c-.01-.16.05-.3.15-.42.12.13-.07.3-.15.42m.24-.58c-.13-.14.54-.84.58-.97.12.23-.57.98-.58.97m23.11-7.94c-.04-.04.06-.34.15-.38.26-.09.04.59-.15.38m-.99-.15c-.29-.04-.57-.09-.81-.25.25-.03.65.08.81.25m-1.01-.19c-.39.08-.73.03-1.07-.04-.01-.01-.01-.02 0-.03.37.01.74.01 1.07.07m-8.83-18c.17-.33.09-.83.45-.98-.09.3-.26.68-.45.98-.02.05-.06.1-.09.14.03-.05.06-.1.09-.14m-15.36 15.12c.06-.01.09-.01.14-.05-.04.16-.07.65-.26.68-.15.02.06-.54.12-.63m-1.98 1.65c-.02-.12.09-.27.22-.28.16.13-.09.36-.22.28m-.33.01c0 .01.01.02.02.02.05.67-.62.26-.02-.02m.65-.48c-.03-.07.15-.15.17-.05-.03.07-.12.03-.17.05m-1.62.71c.05-.11.38-.29.41-.12-.09.04-.3.14-.41.12m.08.22c0 .01 0 .03.01.05-.12.07-.18.15-.27.23-.15-.1.13-.34.26-.28m.46-.23c-.03-.09.04-.15.13-.2.02.01.04.03.06.03.03.08-.06.18-.15.17.16.27-.17.91-.25.29-.04-.04-.04.04-.1.05.11-.11.12-.32.31-.34m2.06-.23c-.09.05-.11-.06-.12-.12.06-.01.13.06.12.12m-.49.19c-.08-.08-.18-.13-.27-.19.08-.06.26-.18.31-.07-.01.04-.01.08-.06.1.06.04.1.11.02.16m-2.71 1.17c-.02-.02-.06-.06-.04-.09-.22.04-.15-.27.04-.17.03-.1.12-.09.21-.09.08-.06.05-.2.2-.21a.5.5 0 0 1 .08.07c.04-.12.22-.4.35-.16-.09.13-.11.33-.29.39a.168.168 0 0 1-.07-.09c-.03.1-.12.27-.23.11-.1.09-.11.25-.25.24m-.22.17c-.15.27-.3.54-.41.83-.13-.28.04-.72.41-.83m3.22-.35c-.05 0-.09-.03-.14-.04-.02-.05.02-.09.08-.11v-.19c-.21.09-.12.32-.31.38-.06-.06-.08-.16-.06-.22-.12.02-.21.13-.24.21.02.02.07-.01.09.01.1.13-.13.26-.21.19-.05.14-.19.08-.28.14l-.03-.06c.02-.03.1-.02.1-.08-.15-.51.68-.77 1.04-.72.43-.35.15.35-.04.49m12.67-5.65c.11.23-.32.45-.59.58-.4-.19.38-.99.59-.58m-1.26 1.01c.39.16-.22.72-.2.3-.32.02 0-.38.2-.3m1.76-.33c-.15.58-.88.18-.33-.1.07-.04.17.03.26 0 .04.02.06.05.07.1m.73-.48c.02.08-.06.27-.17.22-.03-.09.06-.19.17-.22m-2.47 1.64c-.25.27-.75-.05-.21-.09-.08-.18.21-.27.32-.35.02.01.04.03.06.03.04.12-.06.19-.15.26.56-.28.38.38-.02.15m1.78-.7c.02.06-.06.12-.12.13-.03-.06.05-.16.12-.13m-12.24 4.95c-.01-.12.31-.25.34-.08-.06.06-.26.14-.34.08m1.39-.62c.1-.09.23-.18.36-.16.01.07.04.1.04.16-.15.03-.32.14-.4 0m4.71-1.77c.02.07-.17.18-.19.05.02-.06.15-.12.19-.05m.29-.09c0 .05-.06.1-.12.1 0-.01-.01-.02-.02-.02-.08-.11.1-.18.14-.08m-1.12.46c.05.12-.29.25-.35.18-.06-.06.28-.33.35-.18m-5.78 2.7c-.17.14-.39.26-.58.39-.04-.03-.1-.11-.1-.17.22-.04.52-.32.68-.22m.7-.44c.18-.08.42-.31.54-.14-.06.07-.45.29-.54.14m2.68-1.41c.03-.04.07-.07.11-.05.03.06-.05.08-.1.09l-.01-.04zm-5.75 3.12c.12-.2.57-.46.81-.41-.19.15-.56.28-.81.41m5.89-2.77c.03-.15.24-.32.43-.33.06.18-.31.27-.37.37-.03.02-.04-.01-.06-.04m1.68-1.41c.02-.06.14-.14.2-.08l.03.06c-.04.06-.2.14-.23.02m-1.2.7c-.26.03-.62.41-.84.29.24-.18.38-.58.8-.57.04.12 0 .17.04.28m-7.22 1.97c-.11.1-.23.19-.28.31-.11-.17.12-.37.28-.31m-.06.81c.05-.19.23-.69.56-.6.07-.11.22-.14.28-.25.09.04.05.16.07.23l-.43.28c-.02-.03-.01-.04-.02-.07-.03.17-.32.31-.46.41m-.46-.18c-.06-.08-.07-.26.03-.28.03.1 0 .19-.03.28m-.52.01c.03.22-.02.42.04.65-.26-.06-.24-.54-.1-.67.02.02.04.02.06.02m.3.36c.04.12-.06.26.06.35-.01.07-.05.12-.04.2-.12-.15-.19-.52-.02-.55m1.99-.57c.02.08-.08.13-.14.08-.09-.08.1-.19.14-.08m6.21-2.9c.05.08-.09.19-.17.11-.08-.09.12-.2.17-.11m-1.91.77c.07-.06.12.01.12.07-.08.07-.15-.01-.12-.07m.77-.34c-.03-.01-.02-.04-.03-.07-.06 0-.15.1-.21.1l-.02-.03c.23-.11.54-.26.77-.29.07.15-.37.27-.51.29m-1.01.5c.08.2-.48.17-.58.09.11-.11.52-.24.58-.09m-4.27 1.77c.04-.05.17-.13.22-.08.03.08-.19.21-.22.08m3.78-1.92l-.01-.02c.03-.11.28-.25.41-.24.05.06.02.1 0 .14-.12 0-.28.06-.4.12m-.3.15c-.11.08-.19-.1-.07-.13.07 0 .11.07.07.13m-1.2.43c-.22-.07-.02-.33.09-.43.01-.05-.07-.03-.08-.08.5-.25.19.38-.01.51m.15-.84c-.17-.13.22-.36.26-.14.02.09-.17.21-.26.14m-7.05 2.57c.04.1-.06.15-.05.23.12-.05.25-.18.25-.3-.05-.02-.12.03-.18.06.04-.13.3-.19.34-.33.04-.02.06.02.1 0 .02.03-.01.04-.02.07.12.06.2-.08.24-.16-.03-.04-.1.03-.14.04.06-.19.4-.18.55-.2.07.1.14.24.07.31.04.03.12.06.11.14-.14.05-.22-.08-.35-.06-.05.02-.06.05-.07.09-.06-.18-.32-.03-.35.1.26.04.62-.07.79.17-.41-.09-1.17-.17-1.43.31.52-.21 1.03-.25 1.38-.03-.42-.02-1.19-.21-1.48.28.01-.27.09-.5.24-.72m-.38 1.65c.04-.02.05.04.09.01s.05-.08.05-.12c-.02-.02-.04-.04-.06-.04-.05.03 0 .1-.08.12-.02-.19.04-.33.02-.48.07-.03.13-.03.14-.09.04-.03.04.05.07.03.02.06-.03.09-.04.13.03.05.08.03.12.05.06-.09.15-.18.18-.28a.381.381 0 0 0-.31.02c-.02-.14.17-.19.18-.32-.03-.03-.09.04-.12-.01.51-.21 1.02-.18 1.41.05-.01.02-.01.03-.02.05-.13 0-.23-.1-.36-.1-.08.1-.07.22-.13.33.05.04.11.04.17.04.07-.05.01-.19.13-.19.04.09-.04.14-.04.21.05.03.1.06.16.05.04-.03 0-.09.02-.12.09.03.03.16.04.23-.18.19-.29.41-.47.6.03.04.09 0 .12.04-.39.36-1.32.47-1.27-.21m1.15.8c-.43.15-1.01.32-1.08-.25.17.09.32.29.54.15 1.33.07 1.5-1.53 1.26-2.39-.1-.35.13-.23.22.06.25.83.12 2.06-.94 2.43m2.32-1.08l-.02-.04c.01-.02.04-.04.07-.03.02.02.02.04.02.06-.04.02-.05-.01-.07.01m5.88-2.6c.06.1-.18.18-.17.05.02-.05.13-.1.17-.05m-.75.44c-.08.12-.36.21-.51.22.08-.11.37-.3.51-.22m3.69-.81c.12.16-1.05.87-1.18.64.29.02 1.02-.86 1.18-.64m1.28-.45a.62.62 0 0 1-.26.12c-.02-.16.25-.46.26-.12m-9.37 4.25c.07.09.09.22.14.32-.16.16-.38-.29-.14-.32m.7-.39c.04.02.08.03.12.07-.09.05-.22.22-.29.14 0-.09.07-.16.17-.21m5.21-2.21c-.1-.07.06-.21.12-.12.05.07-.05.16-.12.12m-.48.18c.06-.05.19-.11.24-.06.06.11-.26.23-.24.06m-3.81 1.97c-.06-.1.41-.4.49-.19-.06.05-.43.29-.49.19m-.48-.03c-.04-.03-.1-.04-.09-.11.05-.07.25-.17.33-.15.1.15-.12.22-.24.26m.72-.58c0 .01.01.02.02.02 0 .37-.51.03-.02-.02m7.01-3.43c.15.01.28-.24.42-.15.02.14-.48.4-.42.15m-1.92.87c.12-.11.74-.55.81-.43.11.21-.62.56-.81.43m-6.24 2.71c-.04-.08-.03-.15-.06-.23.26-.08.46-.29.7-.28.03.03.02.04.04.08.05.01.07-.05.11-.03.05.14-.18.14-.23.07-.2.12-.38.3-.56.39m-.98.33c.04.02.07.07.05.11-.08.06-.16-.09-.05-.11m2.07-.91c-.02-.07.12-.16.16-.06-.01.01 0 .02 0 .03-.03.04-.13.07-.16.03m.27-.2c.08-.11.26-.04.2.08-.09.06-.21.03-.2-.08m3.5-1.75c.01.04-.03.06-.07.06 0-.03.03-.08.07-.06m1.69-.77c.02.02.04.05.06.1-.04.09-.26.18-.33.11-.03-.11.16-.18.27-.21m-5.72 3.12c-.18.16-.59.3-.83.36l-.01-.02c.12-.14.67-.54.84-.34m1.03-.49c.37-.28 1.1-.84 1.61-.81-.4.35-1.12.61-1.6.85-.01-.01 0-.02-.01-.04m3.96-2.14c.14-.06.29.17.14.25-.06-.05-.1-.17-.14-.25m2.21-.95c-.06 0-.19.06-.19-.03.07-.15.38-.3.53-.35.14.22-.26.32-.32.5-.05-.02-.02-.08-.02-.12m.62-.42c-.06.04-.09-.02-.14-.01.01-.1.15-.07.14.01m.33-.19c.04.1-.16.1-.11 0 .04-.02.09-.04.11 0m-6.79 3.17c-.03.02.02.06 0 .08-.05.05-.17.11-.23.1-.03-.01-.03-.05-.04-.08-.08.03-.17.1-.19 0 .14-.11.85-.6.98-.46.17.2-.38.28-.52.36m-6.62 3.12c.43-.18.95-.53 1.37-.78.15-.08.68-.4.67-.15-.01.16-.15.09-.24.11-.65.17-1.11 1.03-1.8.82m4.11-1.82c.03.03.06.06.08.11-.06.24-.28-.01-.08-.11m-.82.54c0 .01.01.01.02 0 .21.36-.42.14-.02 0m.56-.19c.04-.03.04-.03.09-.04.37.28-.12.48-.09.04m-3.83 2.1l-.01-.02c.61-.14 1.09-.53 1.69-.72-.25.39-.85.57-1.37.87-.1-.06-.23-.02-.31-.13m3.25-1.17c-.17-.16.29-.07.07.02-.04.01-.04.01-.07-.02m-2.32 1.4c.14-.1.25-.34.43-.33.03.15-.27.43-.43.33m-.64.41c.11-.06.32-.16.45-.19-.04.14-.33.25-.45.19m3.34 1.01c-.2.13-.47-.15-.63.13.07.07.18 0 .28 0 .02.01.04.04.05.07.07.01.15-.01.22-.03-.6.54-1.26.03-1.79-.15-.2-.26-.99-.47-.68-.86.03.05.01.08.01.12.07-.01.12.03.18.05.03-.03.08-.05.07-.09-.1-.12-.25-.4-.07-.51.08.06.03.16.09.24.09 0 .17-.09.22-.14-.1-.28.12-.14.22-.04-.01.02-.05.03-.04.06.02.05.05.08.08.11.07-.03.17-.08.25-.12-.01-.07-.17-.24-.08-.31.14.08.23.33.43.23.03.08-.11.06-.13.1.03.05.07.07.11.11.08-.02.17-.03.26-.08-.06-.12-.24-.2-.21-.34.18.01.24.37.46.27.04.05-.03.06-.01.1.04.07.11.08.18.08.06.17.2.13.27.25-.09.04-.16.1-.25.17.12.12.34.07.41.23-.18.05-.31-.08-.48.11.16.12.39.07.55.17.02.05.03.06.03.07m.42-.29c-.24-.56-.67-.96-1.07-1.27-.18-.14-.6-.37-.81-.35-.08.01-.55-.02-.26-.19.42-.25 1.2.31 1.55.63.29.25.55.84.59 1.18m6.07-5.49c.03.02.08-.02.09.04-.27.13-.48.45-.83.46.24-.21.53-.41.71-.65.03.06.03.1.03.15m-.75 2.02c.31-.26.47.52.37.68-.11-.22-.18-.47-.37-.68m-.69 1.16c-.1-.09.15-.29.22-.19.07.09-.12.28-.22.19m.58-.61l.03.07c-.12.35-.39-.09-.03-.07m-.92.06c-.03.02-.06.03-.1-.01-.2-.17.3-.14.1.01m-.62.24c.04-.05.12-.04.19-.09.04.1-.13.19-.19.09m-1.33.62c.05-.01.11-.03.14.03.01.13-.21.09-.14-.03m-.62.51c-.18.06-.32-.01-.45-.1.14-.08.51-.14.45.1m1.34-.62c.08.11-.12.25-.21.16-.13-.14.14-.26.21-.16m.97-.39c.05-.03.1-.04.12.01-.04.04-.1.06-.12-.01m.62-.85c.08.09-.11.29-.21.17-.07-.1.13-.27.21-.17m-1.7.86c-.02-.04-.01-.08 0-.11.07-.02.15-.08.2-.04.05.1-.13.14-.2.15m.22-.19l-.02-.03c.01-.02.09-.07.11-.05.05.05-.05.09-.09.08m-.73.46c-.07.18-.33.12-.48.21.02.23-.35.2-.39 0 .27.01.57-.1.87-.21m-1.76.92c-.18-.04-.34-.13-.49-.26.18-.01.54.05.49.26m1.59-1.55c.09.08.19.12.26.23-.34.36-.93.36-1.32.42-.03-.06-.06-.07-.07-.13.44.01.66-.43 1.13-.52m-1.12.95c-.08.08-.27.03-.25-.09.09.01.17.03.25.09m1.85-1.33c.33-.22.75-.41 1.06-.64-.02.07-.05.1.03.14-.04.25-.94 1.01-1.09.5m2.13-1.06c-.06-.08.11-.2.17-.13.08.09-.08.23-.17.13m-4.54 2.16c.04.11-.11.19-.19.11-.15-.15.14-.26.19-.11m.83-1.09c.12-.1.38-.15.51-.19-.03.17-.38.18-.51.19m-.28.31c.19-.14.48-.11.7-.16-.06.23-.53.23-.7.16m-1.36.65c.03.17.1.31.24.33-.18.18-.59-.25-.24-.33m5.71-2.44c.04-.09.18-.11.27-.13-.05.07-.17.11-.16.2-.06.03-.09-.01-.11-.07m.57-.3c-.01-.04.08-.07.11-.07.01.04-.09.07-.11.07m-5.51 2.7c-.05.03-.11-.02-.1-.07.06-.06.11.02.1.07m1.69.76c.07-.04.12-.02.17.03-.01.01 0 .02 0 .03-.06.08-.18.04-.17-.06m.95-.17c-.16-.19.33-.11.11.03-.06.04-.08.02-.11-.03m1.36-.49c.03.07-.15.23-.23.15-.06-.05.18-.27.23-.15m1.31-.61c.02.03.01.05.01.08-.04.02-.08.02-.1-.03.03-.04.06-.05.09-.05m-4.22 1.95c.03-.01.04 0 .06.01.01.03 0 .04-.01.06-.05.03-.09-.04-.05-.07m2-.87c.1-.1.31-.06.25.09-.12.07-.3.06-.25-.09m-1.66.89c.03.05.03.08.03.12-.11.06-.13-.13-.03-.12m.17.06c-.03-.08.15-.19.22-.15.07.11-.17.21-.22.15m.62-.17c.14-.01.29-.08.45-.13l.03.06c-.15.08-.43.21-.48.07m4.18.33c.02.03.11.22 0 .25-.12.03-.48-.51-.59-.61-.32-.3-.69-.44-.88-.86.04-.05.14-.05.2-.04.35.4.97.74 1.27 1.26m10.24-1.27c-.17.02-.36.03-.54.03-.33.04-.66.05-.99.04-.46.07-.93.06-1.4.07-.42.16-.88.18-1.32.16-.62-.03-1.24-.08-1.86-.11-.53-.03-1.05-.09-1.58-.16-.3-.04-.63-.08-.91-.2-.62-.05-1.24-.12-1.84-.23-.22-.13-.44-.22-.59-.54.1-.16.35-.06.48-.04-.03.07-.19.1-.27.16.23.1.59-.25.83-.06-.06.08-.19.14-.27.19.26.08.66-.28.85-.03l-.27.13c1.41-.15 2.88-.15 4.18.2h.01c.16-.02.38-.04.55-.12-.01-.01-.01-.01-.01-.02-.17-.02-.33-.06-.49-.16.9-.21 1.8.05 2.55.45h.04c.2.09.41.13.62.15h.03c.01 0 .02.01.04.01.05 0 .1-.01.15-.02-.77-.19-1.42-.75-2.21-.79-.47-.02-.9.08-1.35.17-.4.08-.78.03-1.17-.07-.01 0-.01 0-.02-.01-.34.05-.69.03-1.03 0-.01 0-.01 0-.02-.01h-.53c-.02 0-.03-.01-.04-.01-.14-.01-.28-.03-.41-.06-.02 0-.03-.02-.04-.03-.05-.01-.1-.01-.15-.02-.04-.01-.06-.04-.06-.07-.12 0-.21-.02-.26-.11-.2-.01-.42.02-.59-.06 0-.01 0-.02.01-.03 1.6-.02 3.31-.32 4.87-.22.04.01.07.03.11.04.18.01.35.02.52.05.68.1 1.32.37 1.98.5.15.01.3.03.45.06.02 0 .04 0 .07.01.01 0 .02 0 .02.01 2.48.2 5.13-.12 7.64-.01-1.93.64-3.93.57-5.78.76m7.14-1.34c-.37.39-1.05.31-1.54.33-1.02.04-2.04.1-3.06.16-.94.05-1.89.07-2.84.04-.79-.02-1.54-.13-2.3-.31-.42-.05-.81-.12-1.18-.21-.01-.01-.01-.02 0-.03.22 0 .44 0 .66-.01.51-.1 1.04-.15 1.56-.19.16-.01.32-.01.47-.01.11-.01.21-.01.32 0 2.32-.29 4.71.53 7.13-.29.62-.21 1.13-.3 1.75-.45-.2.49-.55.79-.97.97m-6.98-6.84c-.01.06-.03.11-.11.14l-.02-.03c.06-.03.06-.08.13-.11m.14-.59c.01.07-.07.11-.02.19-.13.1-.3.09-.42.1v-.04c.1-.13.31-.21.44-.25m-1.26.53c.06.09-.1.15-.14.1-.06-.08.1-.16.14-.1m1.36-.81c-.17.08-.46.38-.56.19.13-.17.32-.33.54-.47.04.07.02.19.02.28m-1.92.56c-.05.11-.33.33-.41.1.06-.1.32-.19.41-.1m-.66-.03c-.08.16-.37.07-.28-.1.09.02.26-.05.28.1m1.81-1.04c.06.12-.2.35-.31.25-.13-.12.22-.41.31-.25m.73 2.29c.01-.02.04-.03.07-.01.05.03.11.05.16.06.07.01.14.03.2.04v.01c.27.05.57.05.83.12.42.11.83.27 1.23.44.44.19.88.37 1.31.58.19.09.38.19.57.28.3.1.6.21.9.31.84.65 2.01.62 2.6 1.83 0-.08.12-.11.13-.02.01.12-.06.24-.11.34-.03.07-.07.13-.1.2.07-.01.13-.01.2-.02.08.27-.01.41-.17.49-.23.33-.8.32-1.15.41-.02.01-.04.01-.06.02-.17.05-.34.1-.52.15-.61.17-1.21.33-1.86.37-.78.05-1.56.02-2.35-.03-.43-.02-.85-.05-1.28-.06-.2-.01-.4-.02-.59-.02-.08 0-.19-.01-.3-.02l-.36.03c-.01 0-.02.01-.02.01-.02.01-.04.01-.06 0-.51.04-1.02.08-1.54.11s-1.16.08-1.72.06c-.19.03-.39.04-.58.01-.12 0-.25-.02-.37-.05-.39.03-.79.02-1.19.03-.53.02-1.06.13-1.59.16-.51.03-1.01 0-1.52.04-.45.03-.91 0-1.36.05-.03 0-.05-.01-.06-.03-.46.05-.89.05-1.02-.25-.07-.16.46-.46.46-.67-.27-.02-.55-.03-.83-.03-.01-.02 0-.03 0-.04 1.31-.4 1.75-1.47 2.89-1.91.34-.13.53-.59.59-.85.21-.92.95-1.93 2.2-2.32.13-.04.25-.16.35-.21 2.33-1.32 4.16-.06 6.02.39m-1.33-2.3c-.02.07-.16.14-.22.16-.04-.14.1-.21.22-.16m.23 0c-.25-.11.16-.54.33-.53.11.24-.11.38-.33.53m.75-1c.02.09.05.14.1.23-.03.04-.08.13-.11.14-.02.02-.03-.01-.04-.01 0-.07.05-.12.06-.18-.03-.02-.07.01-.09-.02-.07-.08 0-.16.08-.16m-.16-.43c.38.29-.37.67-.1.23-.03-.05-.06-.08-.08-.14.01-.02.02-.05.03-.07.06-.02.1-.01.15-.02m-.68.3c-.04-.04.13-.43.19-.46.3-.2 0 .63-.19.46m.45-.61c.02.03.06.05.05.08-.03.05-.1.05-.13.04-.03-.04-.03-.05-.03-.1.04-.01.07 0 .11-.02m-.77.49c.1.04.17.15.18.27.54-.25.35.87-.07.38.01-.05.07-.08.13-.09.02-.01.01-.04.03-.05-.04-.05-.08-.08-.1-.16-.09.12-.29.19-.35-.02 0-.06.1-.08.08-.15-.95.51.25-1 .1-.18m.46-.78c.09.12-.1.36-.22.25-.16-.15.13-.38.22-.25m-.87.11c.03.05.01.08.02.12.04.02.09 0 .13.04.14.2-.06.44-.24.35-.02-.03.01-.05-.01-.08-.08.08-.28.08-.22-.07.06-.03.12-.06.16-.09-.18-.12.03-.41.16-.27m-.35-.02c-.04.05-.05.1-.07.16-.08.04-.15.02-.21.09-.01-.13.15-.2.21-.3.03.01.05 0 .07.05m.49-.52c.02.03.02.02.03.06-.02.04-.09.05-.11.03v-.06c.03-.03.05-.02.08-.03m2.4-10.38c.2.22-.22.58-.35.78-.11-.23.29-.52.35-.78m-1.89.91c-1.04.83-1.25 1.94-.96 3.22-.16.17-.36.24-.56.26-.01.01-.03.01-.04.02-.02.02-.04.05-.06.07.08.02.16.05.24.08-.04.05-.1.1-.15.14h-.04v.01c-.02.02-.04.03-.06.05.02 0 .03 0 .05-.01-.02.02-.04.05-.07.07-.02.05-.06.09-.11.11-.42.39-.98.75-1.61 1.04-.01.03-.02.05-.03.07.01.01.02.02.02.04.2.17.56.3.8.23.06-.02.08.04.07.09v.01c.02-.02.04-.05.07-.06h-.01c-.04-.05.03-.06.01-.1-.14-.05-.39-.03-.42-.24.15.02.3.05.45.07.02-.01.03-.01.05-.02.08-.05.18-.07.27-.1.01-.02.03-.05.03-.07-.13-.05-.35.04-.4-.14.18-.18.52.14.67-.12-.09-.06-.22 0-.28-.15.01-.01.02-.03.02-.05.23-.05.41.12.63-.13-.06-.08-.19-.03-.2-.18.19-.17.4.17.65-.11-.1-.05-.3-.06-.27-.22.25-.06.51.24.83-.05-.6-.51.05-.07.54-.08v-.02c.01-.08.13-.07.13.01.1-.02.19-.08.24-.18-.01-.12-.07-.13-.04-.26-.27-.02-.62.18-.91.2.05-.13 0-.31.15-.45.2.04.42.15.67-.04-.19-.03-.39-.02-.57-.08.18-.28.52-.06.76-.09a.33.33 0 0 0 0-.14c-.39-.01-.73-.16-1.11-.21-.02.11.03.24-.05.33-.07-.01-.17-.06-.19-.14-.03-.11-.04-.22-.05-.33-.01-.01-.02-.02-.02-.04-.06-.45.08-.88.29-1.27 0-.01.01-.01.01-.01.02-.08.1-.19.12-.22.01-.02.09-.14.16-.19.07-.1.13-.19.22-.27.03-.05.06-.09.09-.13.02-.03.05-.03.08-.02.01-.24.46.05.56.19.52.73.06 1.7.05 2.29l.07.13c-.01 3.51-1.55 6.65-3.96 9.33-.82.91-2.27 1.75-3.67 2.24-1.18-.54-2.68.51-4.23.86-.66.15-1.22-.13-1.78.05-.04-.09.11-.17.03-.23.07-.15.15-.3.24-.46.12-.55.57-1.07.9-1.49.23-.29.45-.6.73-.85.13-.12.29-.21.44-.31.03-.03.07-.07.1-.11.04-.05.09-.1.13-.16l-.29.03c-.24.15-.48.3-.7.49-.76.85-1.18 1.84-1.97 2.64.15-.34.33-.68.53-1.02.17-.54.53-1 .9-1.43.21-.25.43-.49.65-.73.13-.14.28-.28.43-.42-.01 0-.01-.01-.02-.02.03-.04.06-.07.09-.09-.01-.02-.01-.04.01-.06.22-.26.46-.51.7-.75.07-.14.29-.31.35-.37s.12-.11.18-.17c.18-.24.41-.44.66-.6 0-.01.01-.01.01-.01 0-.01.01-.02.01-.02.17-.21.41-.3.63-.43.11-.09.22-.19.32-.28.07-.08.14-.16.24-.22.45-.4.88-.82 1.25-1.25.79-1.64 2.38-3.1 3.4-4.75.55-.88 1.6-1.56 2.36-2.33.18-.03.38-.01.54.11m-1.84-.02c.22-.05.42.15.6 0-.05-.1-.17.02-.2-.11.2-.03.41-.08.58-.02l-.12.09c.02.04.01.09-.04.1-.23.04-.52.4-.69.56-.33.3-.64.62-.93.97-.59.72-1.1 1.49-1.65 2.23-.56.75-1.22 1.44-1.69 2.26-.31.53-.62 1.16-1.14 1.51-.18.19-.38.36-.59.51-.09.1-.19.18-.3.25a.7.7 0 0 1-.1.08c-.02.01-.03.02-.05.02-.01.01-.03.02-.04.03-.01 0-.01 0-.01.01-.02.02-.05.01-.07 0-.05-.01-.08-.07-.03-.11 0 0 0-.01.01-.01.02-.03.05-.06.07-.08.05-.1.09-.21.16-.3.01-.01.02-.02.04-.02.02-.03.04-.07.05-.09.1-.2.2-.4.31-.6.03-.07.07-.13.11-.2.08-.23.23-.44.39-.64.25-.39.51-.78.76-1.18.47-.78 1.09-1.45 1.64-2.17.43-.57.84-1.17 1.28-1.73.33-.61.79-1.18 1.65-1.36m-7.43 7.61c.17-.36.37-.74.67-.97h.01c.3-.44.65-.85 1.02-1.25.46-.5.83-1.07 1.31-1.54.83-1.07 1.7-2.12 2.82-3.06-1.73 2.53-3.75 4.95-5.06 7.62.02.01.03.04.02.07-.05.21-.19.28-.34.42-.2.19-.39.39-.59.58-.38.34-.73.72-1.11 1.06-.31.35-.63.7-.94 1.06-.41.5-.8 1.01-1.17 1.53-.12.2-.23.42-.4.56-.01.02-.01.03-.02.05-.02.06-.1.05-.12.01-.01-.01-.01-.03-.01-.05.13-.69.74-1.32 1.18-1.84.35-.41.75-.78 1.13-1.17.17-.21.33-.43.53-.6l.01-.01c.07-.09.14-.19.21-.29.02-.03.05-.03.07-.02l.37-.4c0-.02.01-.03.04-.04.08-.08.16-.17.24-.25l.2-.2c.02-.03.04-.06.06-.1.12-.34.22-.69.41-1 .01-.02.01-.04.02-.06 0-.01.01-.03.01-.04.02-.12.03-.24.04-.35 0 0 0 .01-.01.01-.38.72-.59 1.54-1.25 2.08-.02.02-.03.04-.05.06-.01.02-.03.02-.05.02-.04.01-.09-.03-.07-.08.02-.05.04-.1.05-.15v-.01c.03-.13.05-.27.1-.4.09-.39.31-.74.57-1.07.02-.07.06-.12.1-.18m-.89 1.2c.01.21-.08.55-.19.78-1.08 1.4-2.39 2.73-3.35 4.18.85-1.77 2.01-3.43 3.54-4.96m-5.11 2.89c.06.13.55 1.24.29 1.3.06-.02-1.11-1.63-.29-1.3m-1.25-.39c-.05.01-.08-.02-.13-.01 0-.06.1-.01.13.01m-.27-.06c-.26-.01-.51-.03-.73-.14.23-.02.55.03.73.14m-.87-.19c-.9-.11-1.81-.3-2.63-.5.96-.08 1.82.26 2.63.5m-2.78-.52c.01.13-.24.1-.23-.03.01 0 .02-.01.02-.02.07 0 .15 0 .21.05"/><path class="st0" d="M122.48 8.42h.03c.03-.01.06.01.07.03h.05c.01-.02.03-.03.04-.04-.09-.02-.17-.04-.26-.08.02.03.04.05.06.08 0 .01.01.01.01.01m1.34 15.3c-.04-.01-.09-.03-.13-.04-.06.02-.13.06-.19.09.07.03.14.07.21.1.04-.03.08-.07.12-.1-.01-.02-.01-.03-.01-.05m-4.27-6.07c-.19.14-.29.33-.35.53.06-.03.12-.05.18-.08.04-.16.09-.31.17-.45m-.85 2.54c.01.06.04.11.08.14.09-.05.17-.1.25-.16-.09 0-.17-.02-.23-.09-.03.04-.07.07-.1.11m4.47 4.24c-.14.01-.28.03-.43.05l-.01-.01c-.23.05-.46.06-.69.06-.26 0-.57.01-.8-.12l-.01-.01c-.87-.05-1.75-.08-2.62-.13.17.02.33.04.48.06.48.06.96.11 1.44.13.55.03 1.09.08 1.63.1.32.01.65.02.97-.04-.01-.02 0-.07.04-.09m.39-.02c.01 0 .02-.01.03-.01-.08 0-.16.01-.24.01h.21m-2-.23h.11c.14-.01.3-.01.45-.05-.05-.01-.09-.04-.13-.1-.08-.03-.16-.06-.25-.08-.12.08-.27.13-.43.15.09.03.17.05.25.08"/><path class="st0" d="M121.85 24.3c.08.03.16.07.24.11.17 0 .35-.01.53-.04-.05-.04-.11-.08-.16-.13.01-.01.02-.02.03-.02a.487.487 0 0 1-.11-.04c-.16.08-.35.1-.53.12m12.27-2.99c.05-.05.1-.1.14-.15.03-.04.08-.1.11-.16-.1.01-.19 0-.28 0-.06.11-.15.2-.25.28l.28.03m-.84-.18c.12-.06.22-.13.3-.22-.01 0-.02-.01-.04-.02-.01.01-.03.02-.05.02-.09-.02-.18-.04-.27-.08-.07.07-.14.13-.21.19.09.04.18.07.27.11m-.74-.39c.11.08.23.15.35.22.07-.06.13-.12.2-.19-.12-.06-.23-.13-.33-.21-.08.06-.15.12-.22.18m-5.87-1.93c.75.21 2.12.72 2.28 1.71.37.12-.12.35-.21.5.12-.03.23-.07.35-.11.08-.13.16-.26.26-.38-.07.01-.14.01-.2.01.96-.73 1.97-.52 2.77-.37.17.18.34.34.52.47.07-.06.14-.12.22-.18-.03-.03-.06-.05-.09-.08a.062.062 0 0 1-.01-.07c-.04-.03-.07-.05-.11-.1.28-.14.53-.34.7-.49.05.23-.16.43-.37.55l.02.02c.01-.01.03-.02.06-.01v.02s.01 0 .01.01h.01c.01-.01.02-.02.03-.02h.01c.04-.02.07-.01.1.01.15-.1.32-.18.33-.33.14-.06.24.01.36 0-.25-.19-.58-.32-.93-.42-.1.18-.27.49-.55.51.04-.22.41-.33.42-.56-.06-.06-.13-.08-.21-.11-.17.14-.41.59-.66.36.26-.11.37-.28.53-.42-.07-.09-.16-.12-.24-.16-.09.23-.53.53-.81.49.19-.18.57-.26.71-.47-.07-.04-.13-.09-.21-.06-.82.25-1.77.97-2.59 1 .64-.27 1.65-.65 2.37-1.08-.04-.08-.12-.06-.17-.1-.72.45-1.6.7-2.25 1.05-.71-.74-1.54-1.09-2.45-1.19m7 2.43c.1-.07.2-.16.28-.27-.08-.01-.15-.02-.23-.04-.07.1-.16.19-.27.25.07.03.14.05.22.06m.64.07h.21c0-.01 0-.01.01-.02.04-.07.08-.14.11-.21l.01-.01h-.01c-.03-.01-.06-.03-.1-.04-.01-.01-.02-.01-.02-.02-.03.09-.12.2-.21.3M122.92 8.53c-.02.01-.05.02-.07.04 0 .09.01.18.02.26.03-.03.07-.06.1-.09-.01-.07-.03-.14-.05-.21m-7.15 7.61c-.12.02-.23.03-.33.03-.3.21-.6.44-.88.66-.06.05-.15-.05-.08-.1.01-.01.03-.02.04-.03-.48.25-.94.49-1.15.85.39-.16.87-.45 1.37-.69.35-.22.69-.47 1.03-.72m.99.17h.13a.693.693 0 0 1-.03-.2c-.26-.03-.54-.06-.75.07-.04.02-.08-.01-.09-.04l-.33.24c.14-.05.28-.07.43-.08.1-.01.19-.02.27 0 .12-.02.25-.01.37.01m-.33.13c.01-.01.02-.01.03-.02a.292.292 0 0 0-.09-.02h-.23c-.06.01-.12.02-.18.04 0 .02-.02.05-.05.05-.03.01-.07.01-.1.02.19-.03.39-.06.51-.05.03 0 .07-.01.11-.02m-.02-.5c.15-.01.3 0 .45.02 0-.16.03-.31.07-.44-.18.1-.36.21-.54.33.01.04.02.07.02.09m1.27 5.06c.07-.07.14-.15.21-.22l-.44.06c-.13.1-.25.2-.38.31.21-.03.42-.09.61-.15m-1.58.76c.07-.03.13-.07.19-.11-.04 0-.09 0-.14-.01-.08-.01-.07-.14.01-.13.1.01.2.01.3.01.09-.07.17-.15.26-.23-.04 0-.08-.01-.13-.01-.08-.01-.07-.14.01-.13s.17.01.25.01l.3-.27c-.02.01-.05.01-.07.02a.064.064 0 0 1-.07-.09c-.49.32-.96.65-1.33 1.07.11-.01.21-.04.3-.07 0-.04.04-.08.08-.06h.04m2.13-.55c.11-.11.22-.22.31-.3-.13 0-.27.03-.41.07-.15.13-.3.27-.46.4.18-.05.37-.1.56-.17m-1.19.41c-.19.02-.39.04-.58.03-.07.06-.14.11-.2.17.13.04.27.07.42.08.12-.08.24-.18.36-.28m-.91.3c-.03.02-.05.04-.08.06-.29.23-.1.28.16.17.09-.04.18-.09.27-.14-.11-.01-.23-.04-.35-.09m1.04-6.37c.08-.02.21-.07.36-.12.05-.07.1-.13.15-.2-.15.04-.3.09-.46.15-.05.05-.02.12-.05.17m1.02-.26c.06-.06.13-.12.19-.18-.17.02-.35.04-.53.08l-.12.18c.18-.06.36-.1.46-.08m5.7-3.94c-.12 0-.24-.01-.35 0-.09.11-.15.25-.21.39.1 0 .21.04.28.1-.07.07-.24.12-.35.08-.03.07-.05.15-.08.22.12.02.25.03.38.03.08-.18.15-.37.23-.55.01-.03.02-.05.03-.08-.1-.02-.19-.04-.3-.05-.01-.01-.01-.02 0-.03.09.02.21.02.32.02.02-.05.03-.09.05-.13m-.56 1.29c-.15.03-.3.03-.44.03-.05.07-.1.15-.15.22.15 0 .3-.01.46-.04.01-.01.02-.02.02-.04a.62.62 0 0 0 .11-.17m-.22-.36c-.04.07-.07.14-.11.21.12.02.25.04.38.06.06-.11.11-.22.15-.33-.14.05-.28.07-.42.06"/><path class="st0" d="M124.17 11.51c-.08.03-.15.03-.22.03a9 9 0 0 0-.22.55c-.07.17-.14.33-.22.48.03 0 .05.01.08.01l-.1.03-.12.21c.02 0 .03-.01.05-.01-.02.01-.04.02-.07.04-.07.11-.14.23-.22.34-.16.24-.33.49-.51.73.13-.03.26-.08.36-.18.05 0 .08.03.12.05.12-.14.23-.27.32-.42-.12-.06-.34.18-.43.04.18-.08.34-.18.48-.28.01-.23.21-.47.32-.66.2-.34.33-.73.46-1.1-.07-.01-.15-.01-.22-.02-.02.04-.04.08-.05.12.08.01.14.02.19.04m-.16.86c-.1.18-.29.41-.36.63.49-.44.7-1.02.86-1.6-.04-.01-.07-.01-.11-.01-.12.33-.23.68-.39.98m-.86.57c-.17.06-.34.09-.51.1-.08.11-.17.22-.25.32h.27c-.12.05-.23.08-.35.1-.23.28-.48.57-.74.84.08.02.15.04.23.07-.09 0-.18-.01-.28-.02-.37.38-.77.72-1.22.96 0 .02-.01.05-.03.06-.23.11-.44.25-.62.42.32-.09.64-.19.95-.31.49-.33 1.01-.63 1.42-1.06l.27-.3c-.14.01-.27 0-.36-.1.14-.07.33-.07.51-.09.25-.31.49-.65.71-.99m-4.72 2.87c-.01.01-.02.01-.02.02-.01.01-.02.01-.03.02 0 0-.01 0-.01.01-.08.06-.15.12-.23.18h.05c0-.02.01-.04.03-.05.2-.1.41-.2.6-.32-.05-.02-.08-.07-.06-.14-.11.09-.22.18-.33.28"/><path class="st0" d="M118.96 15.74c-.16.1-.34.19-.51.28.31-.03.62-.09.95-.16.2-.22.44-.4.7-.54 0-.02.01-.04.03-.06.27-.14.51-.31.73-.49-.15.07-.42.08-.39-.1-.2.18-.41.34-.62.5.01.06-.05.09-.14.1-.14.1-.28.21-.43.3-.02.02-.05.04-.08.06l-.18.12c-.02.03-.05.02-.06-.01m-1.2.31c.06-.02.12-.05.18-.08.18-.11.34-.24.49-.37.02-.02.04-.02.06-.01.35-.29.73-.54 1.08-.83.04-.03.08-.07.12-.1-.17-.01-.34-.04-.39-.04-.07 0-.15 0-.23.01l-.3.33c.13.01.24.04.34.09-.16.02-.32.04-.48.05-.34.33-.7.63-1.04.96.05-.01.11-.01.17-.01m3.48-.84c.69-.33 1.29-.74 1.69-1.19-.14.01-.29.05-.44.08-.15.18-.3.36-.47.51-.24.22-.51.42-.78.6m-.53-.94c-.13-.02-.27-.03-.41-.04-.09.1-.19.2-.28.29.01.01.02.02.03.04.02.07-.06.1-.18.1-.07.07-.15.13-.22.19-.29.23-.6.45-.89.68.08.01.24-.04.36-.06.01-.01.03-.02.04-.03.03-.02.07-.01.09.01.08-.06.16-.11.24-.17-.09-.01-.17-.03-.19-.05-.13-.15.22-.15.42-.13.35-.25.68-.53.99-.83m-2.54.25c-.1.05-.21.1-.31.16.09-.04.18-.07.26-.09.01-.02.03-.05.05-.07m.86-.07c.06-.06.11-.13.16-.19l.02-.03c-.27.03-.54.09-.81.19l-.09.12c.25-.06.49-.08.72-.09m.44.02c.06.01.26-.01.41.01.09-.08.17-.17.26-.26a4.57 4.57 0 0 0-.74 0c-.07.08-.13.16-.2.24.09-.01.18 0 .27.01m1.4.29c.16-.13.31-.28.46-.43-.15-.01-.29-.03-.44-.05-.13.12-.25.25-.39.36.13-.02.24 0 .36.01.04.06.01.08.01.11m.17-1.59c.06-.08.12-.16.18-.25-.26-.02-.52-.01-.79.07-.02.03-.05.05-.07.08.23.02.45.05.68.1m.56.11c.02-.02.03-.04.05-.07.06-.08.11-.15.16-.22l-.43-.06c-.06.09-.13.18-.19.26.13.03.27.06.41.09m.37-.27c-.07.1-.14.2-.21.29l.47.06c.08-.1.17-.2.24-.31-.17 0-.34-.02-.5-.04m-1.99.49l.66.15c.05-.06.09-.11.14-.16l.16-.19c-.27-.05-.53-.07-.78 0-.06.06-.12.13-.18.2m1.11-.18l-.3.36.41.09c.1-.12.2-.23.3-.36-.14-.03-.28-.06-.41-.09m-2.35.7c-.04.05-.09.1-.13.15.25-.05.49-.08.73-.09.11-.14.23-.28.34-.41-.29.02-.59.11-.9.32-.02 0-.03.02-.04.03m1.52.06c.1-.11.2-.22.29-.33-.23-.05-.47-.09-.71-.09-.11.14-.22.27-.34.41.27-.02.52-.01.76.01m.58.07c.1-.1.19-.2.29-.3-.14-.02-.28-.05-.42-.07-.09.11-.18.21-.28.32.13.01.27.02.41.05m1.28-.67c-.16 0-.32-.01-.48-.04-.06.07-.12.15-.18.22-.04.05-.08.09-.12.14.14.03.29.05.43.06-.17.02-.33.02-.49.01-.09.11-.19.21-.29.31.14.03.27.05.4.09.03-.04.07-.07.1-.1.22-.23.43-.46.63-.69m-.64-.95c-.15.01-.31.04-.47.09.12.02.25.04.37.07.03-.05.06-.11.1-.16m.15-.01c-.03.05-.05.09-.08.14a.21.21 0 0 1-.04.06l.42.09.15-.24c-.14-.03-.29-.05-.45-.05m.6.07l-.15.24c.16.03.33.05.5.06.05-.08.1-.15.15-.23-.17-.02-.33-.05-.5-.07m.34-.89c.01-.02.03-.05.05-.07l-.25.03c.06.02.13.03.2.04m.33-.29c.03.02.05.06.02.09.01.02.02.03.01.06-.04.01-.08.03-.11.04-.04.04-.08.09-.12.15.04.04 0 .13-.07.11h-.01l-.09.15c.17.04.34.08.51.11.05-.1.09-.19.13-.29v-.03c.01-.01.01-.01.02-.01.05-.13.11-.29.19-.42-.15-.01-.32.01-.48.04m-1.16.46c.04 0 .08.01.12.01.03-.04.06-.08.09-.11-.07.03-.14.06-.21.1m.27.03c.14.02.27.04.4.07.03-.05.05-.1.08-.15-.04-.01-.08-.02-.12-.02-.04-.01-.09-.01-.13-.02-.01 0-.03 0-.05-.01h-.02c-.01 0-.03 0-.04-.01-.04.05-.08.09-.12.14m-1.22.49c.29-.08.56-.1.82-.1.04-.07.07-.13.11-.2-.29.01-.6.08-.93.3m1.08-.29c-.04.07-.08.13-.12.2.16.01.31.03.46.05.03-.06.07-.12.11-.19-.15-.03-.3-.06-.45-.06m.57.08c-.03.06-.06.13-.09.19.17.03.33.06.5.1.04-.06.07-.13.11-.19-.17-.02-.34-.06-.52-.1m-5.4-1.53c.03.01.06.04.05.08.12-.06.21-.13.19-.26-.05-.02-.13.02-.21.06l-.03.12zm.09-.37v.03c0 .01 0 .02-.01.03.24-.13.56-.22.52-.46-.16.06-.32.1-.48.16 0 .06-.01.13-.01.19 0 .02-.01.04-.02.05m-.19.99c.03-.02.05-.05.08-.07.05-.05.03-.11.04-.17-.02-.01-.05.01-.08.02-.01.08-.03.15-.04.22m5.54 12.8c.04.01.08.03.12.04l.21-.15c-.12-.13-.26-.05-.39.04.03.01.06.04.06.07m7.41-3.68c-.03.11-.09.23-.17.32.04-.01.08-.02.12-.04-.07.03-.12.06-.17.09-.02.02-.04.03-.06.05.44-.06.99-.27 1.41-.57-.31-.14-.72.02-1.13.15m-12.05 2.97c.1.01.21.02.32.02.01-.01.01-.02 0-.03a.878.878 0 0 0-.32.01m15.83-3.07c.08-.06.17-.11.27-.16-.22-.15-.4-.01-.59.16.11-.01.21-.01.32 0M122.48 6.55c-.24.01-.46.06-.65.17.17-.01.33-.01.49 0 .05-.06.1-.11.16-.17m.18 0c-.05.06-.11.12-.17.18l.41.03c.05-.06.1-.13.14-.19-.13-.02-.26-.02-.38-.02m.38.22h.13c.14-.08.3-.11.45-.12l-.45-.06c-.05.05-.09.11-.13.18m2.07 1.43c-.02.06-.04.12-.05.19l.18.03h.06c.01-.06.03-.12.05-.18-.09-.01-.17-.02-.24-.04m-1.24-.13c-.02.03-.04.06-.06.1.09.02.18.03.26.05.02-.06.04-.11.06-.16-.08-.01-.17 0-.26.01m.34.17l.33.06c.02-.06.03-.12.05-.18l-.2-.03h-.01c-.01 0-.02 0-.03-.01-.02 0-.04-.01-.07-.01-.03.05-.05.11-.07.17m.51-.1c-.02.06-.03.12-.05.19.09.02.17.03.26.05.02-.06.03-.12.05-.19-.09-.02-.17-.04-.26-.05m1.02.19s0-.01 0 0c-.09-.03-.19-.04-.28-.06-.01.05-.03.1-.04.15.12-.01.22-.04.32-.09m-9.55 7.35l-.09.06c-.01.01-.02.01-.04.02-.06.03-.11.07-.17.1h.27c.52-.36 1.05-.68 1.65-.84.03-.04.06-.08.09-.13-.36.11-.72.26-1.06.43a.21.21 0 0 0-.06.04l.02-.02c-.18.09-.35.19-.52.29-.03.01-.06.03-.09.05"/></svg>