<svg xmlns="http://www.w3.org/2000/svg" width="117.686" height="94.615"><g data-name="Group 61" fill="#00f"><path data-name="Rectangle 22" d="M114.351 71.463h3.336v22.829h-3.336z"/><path data-name="Path 133" d="M77.973 74.358a8.519 8.519 0 1 0 8.369 8.6 8.321 8.321 0 0 0-8.369-8.6zm.14-3.1a11.62 11.62 0 1 1-11.639 11.668 11.534 11.534 0 0 1 11.639-11.669z" fill-rule="evenodd"/><path data-name="Path 134" d="M7.803 74.042c-2.094 0-3.909 1.44-3.652 3.608a2.811 2.811 0 0 0 1.462 2.109 7.354 7.354 0 0 0 1.418.6c.654.235 1.455.5 2.263.786a13.462 13.462 0 0 1 4.026 1.91 5.848 5.848 0 0 1 1.94 4.364c0 4.313-3.468 7.193-7.561 7.193-4.137 0-7.6-2.844-7.7-7.024h3.218c.419 2.858 2.219 4.122 4.482 4.122 2.1 0 4.262-1.323 4.262-3.791a3.254 3.254 0 0 0-1.837-2.983 9.457 9.457 0 0 0-1.315-.544c-.544-.191-1.161-.389-1.8-.6a20.5 20.5 0 0 1-3.446-1.367 5.346 5.346 0 0 1-2.675-4.644c0-3.843 2.939-6.642 7.083-6.642a6.838 6.838 0 0 1 6.826 6.2h-3.276a3.655 3.655 0 0 0-3.718-3.297z" fill-rule="evenodd"/><path data-name="Path 135" d="M97.51 71.463l10.786-.007v3.064h-9.669v7.414h9.669v3.057h-9.669v9.295h-3.336v-20.61a2.211 2.211 0 0 1 2.219-2.213z" fill-rule="evenodd"/><path data-name="Path 136" d="M46.605 76.782l-.015 17.509h-3.335l.015-20.72a2.314 2.314 0 0 1 2.314-2.314 2.186 2.186 0 0 1 1.969 1.095c3.306 5.364 9.39 15.5 10.052 16.613l.022-17.5h3.336l-.015 20.72a2.314 2.314 0 0 1-2.314 2.314 2.178 2.178 0 0 1-1.969-1.1c-3.314-5.367-9.398-15.507-10.06-16.617z" fill-rule="evenodd"/><path data-name="Path 137" d="M28.251 75.658l-3.358 9.214 6.723.007zm-4.46 12.2l-2.359 6.429H17.95l8.193-21.6a2.268 2.268 0 0 1 4.218 0l8.193 21.6H35.07l-2.36-6.432z" fill-rule="evenodd"/></g><g data-name="Group 62" fill="#00f"><path data-name="Path 138" d="M86.885 20.514c-9.478-13.931-20.1-1.7-30.764-3.211C45.54 15.803 45.173 1.293 58.2.066c.316-.037.632-.051.948-.066a29.407 29.407 0 0 1 27.737 20.514z"/><path data-name="Path 139" d="M87.142 21.345a29.415 29.415 0 0 1-47.069 30.7 18.094 18.094 0 0 0 6.407 1.139c26.65.136 15.276-35.285 40.662-31.839z" fill-rule="evenodd"/><path data-name="Path 140" d="M48.097 49.611c-3.688 2.256-9.537 1.58-13.6-3.982a25.941 25.941 0 0 1-2.278-3.731 29.3 29.3 0 0 1-2.785-12.508 27.656 27.656 0 0 1 .213-3.512c6.414 8.648 13.8 8.384 18.487 11.19a7.375 7.375 0 0 1-.037 12.542z" fill-rule="evenodd"/></g></svg>