<svg xmlns="http://www.w3.org/2000/svg" viewBox="0 0 64 64" width="512" height="512"><path fill="#ffffff" d="M32 26a6 6 0 1 0 6 6 6.006 6.006 0 0 0-6-6zm0 10a4 4 0 1 1 4-4 4 4 0 0 1-4 4z"/><path fill="#ffffff" d="M60.841 13.459C58.3 9.512 51.583 8.884 42.349 11.68 39.744 5.517 36 2 32 2s-7.747 3.52-10.353 9.688a39.463 39.463 0 0 0-7.76-1.594A3.995 3.995 0 0 0 6 11c0 .02.006.039.006.059a6.691 6.691 0 0 0-2.847 2.4C.527 17.548 3.142 24.442 10.13 32 3.141 39.559.527 46.453 3.159 50.541c1.5 2.328 4.447 3.505 8.51 3.505a35.318 35.318 0 0 0 9.982-1.724C24.257 58.484 28 62 32 62a7.409 7.409 0 0 0 3.482-.918A3.959 3.959 0 0 0 38 62a3.989 3.989 0 0 0 2.9-6.742 27.4 27.4 0 0 0 1.449-2.937 35.306 35.306 0 0 0 9.984 1.725c4.062 0 7.012-1.177 8.51-3.505 2.632-4.088.018-10.982-6.969-18.539 1-1.081 1.924-2.171 2.768-3.256A3.961 3.961 0 0 0 58 29a3.987 3.987 0 0 0 2.7-6.937c1.463-3.482 1.529-6.449.141-8.604zM43.3 22.739a77.456 77.456 0 0 0-3.761-2.58 80.655 80.655 0 0 0-5.355-3.131 65.1 65.1 0 0 1 7-2.865 46.128 46.128 0 0 1 2.116 8.576zm.349 2.738A61.237 61.237 0 0 1 44 32a61.28 61.28 0 0 1-.348 6.523 78.178 78.178 0 0 1-5.194 3.636A79.4 79.4 0 0 1 32 45.883a78.832 78.832 0 0 1-6.462-3.726 79.57 79.57 0 0 1-5.191-3.634 61.308 61.308 0 0 1 0-13.046 78.178 78.178 0 0 1 5.194-3.636A79.588 79.588 0 0 1 32 18.117a78.832 78.832 0 0 1 6.462 3.726 80.294 80.294 0 0 1 5.19 3.634zM32 4c3.133 0 6.178 3.012 8.443 8.3A68.647 68.647 0 0 0 32 15.869a68.33 68.33 0 0 0-8.443-3.569C25.822 7.013 28.867 4 32 4zm-9.183 10.162a65.313 65.313 0 0 1 7 2.866 80.903 80.903 0 0 0-5.351 3.129 80.26 80.26 0 0 0-3.764 2.582 46.082 46.082 0 0 1 2.115-8.577zM10 9a2 2 0 1 1-2 2 2 2 0 0 1 2-2zm-5.159 5.54A4.607 4.607 0 0 1 6.558 13a3.971 3.971 0 0 0 7.27-.907 37.513 37.513 0 0 1 7.083 1.46 50.118 50.118 0 0 0-2.462 10.857 70.642 70.642 0 0 0-6.933 6.142C5.427 23.929 2.805 17.7 4.841 14.54zM18.2 36.827A66.631 66.631 0 0 1 12.9 32a66.474 66.474 0 0 1 5.3-4.827c-.119 1.575-.2 3.178-.2 4.827s.081 3.253.2 4.827zM4.841 49.459c-2.036-3.163.586-9.387 6.675-16.014a70.633 70.633 0 0 0 6.933 6.143 50.186 50.186 0 0 0 2.465 10.866C12.9 52.843 6.79 52.488 4.841 49.459zm15.856-8.2c1.239.9 2.492 1.768 3.761 2.58 1.734 1.116 3.535 2.149 5.354 3.131a65 65 0 0 1-6.994 2.865 46.128 46.128 0 0 1-2.118-8.574zM38 60a2 2 0 1 1 2-2 2 2 0 0 1-2 2zm1.213-5.792A3.963 3.963 0 0 0 38 54a4 4 0 0 0-4 4 3.963 3.963 0 0 0 .285 1.46A5.324 5.324 0 0 1 32 60c-3.133 0-6.178-3.012-8.443-8.3A68.78 68.78 0 0 0 32 48.132a68.727 68.727 0 0 0 8.444 3.568 25.485 25.485 0 0 1-1.231 2.508zm1.97-4.37a65.313 65.313 0 0 1-6.995-2.866 80.903 80.903 0 0 0 5.351-3.129 79.526 79.526 0 0 0 3.764-2.583 46.073 46.073 0 0 1-2.12 8.578zm17.976-.379c-1.949 3.027-8.065 3.385-16.073.995a50.2 50.2 0 0 0 2.465-10.867 70.9 70.9 0 0 0 6.934-6.141c6.088 6.625 8.715 12.854 6.674 16.013zM45.8 27.173A66.823 66.823 0 0 1 51.1 32a66.474 66.474 0 0 1-5.3 4.827c.117-1.575.2-3.178.2-4.827s-.081-3.253-.2-4.827zm9.19.435c-.767.981-1.6 1.967-2.506 2.948a71.048 71.048 0 0 0-6.935-6.144 50.173 50.173 0 0 0-2.465-10.866c8.01-2.39 14.124-2.034 16.073 1 1.215 1.885.636 4.485-.223 6.58A3.961 3.961 0 0 0 58 21a4 4 0 0 0-4 4 3.962 3.962 0 0 0 .992 2.608zM58 27a2 2 0 1 1 2-2 2 2 0 0 1-2 2z"/></svg>