<svg xmlns="http://www.w3.org/2000/svg" viewBox="0 0 360.99 360.99"><path fill="#fff" d="M360.99 189.609l-9.322-11.75-43.003 34.118-56.418-32.573v-64.916l45.639-36.209-9.322-11.75-44.455 35.27-57.419-33.151V22.754h-15v48.673l-52.578 30.356-44.436-35.254-9.322 11.75 45.592 36.171v63.564l-65.558 37.851v73.894L0 325.768l9.322 11.75 44.426-35.246 62.29 35.964 64.355-37.156 64.354 37.156 70.651-40.791v-71.664l45.592-36.172zm-235.045-74.451l55.651-32.13 55.65 32.13v64.246l-55.662 32.137-55.639-32.123v-64.26zm45.744 173.627l-55.651 32.131-55.65-32.131v-64.26l55.65-32.131 55.651 32.131v64.26zm128.709 0l-55.651 32.131-55.65-32.131v-64.246l55.663-32.137 55.639 32.124v64.259z"/></svg>