<svg xmlns="http://www.w3.org/2000/svg" width="169.351" height="145.22"><path d="M169.351 10C135.507 12.587 97.93 20.83 68.94 29.436v-5.407C43.916 31.893 11.882 51.053 0 58.986c20.79-10.158 40.174-18.108 73.518-27.903 28.714-8.485 68.5-16.246 95.808-18.229zm-.68 59.489c-32.224 3.785-65.137 12.296-94.653 23.169-29.516 10.873-55.574 24.48-73.846 38.95v3.612C21.6 117.974 50.53 103.902 80.114 93.469c29.585-10.434 61.11-17.944 88.513-21.135zM9.122 32.083v17.961C44.476 29.048 64.36 23.02 64.36 23.02zm30.87-7.57l-.268-6.856-29.369 11.701zM27.42 88.432l-6.036 3.01s-.19 8.32-.25 9.83c-.077 1.965-.586 3.017-1.957 3.793-1.371.776-2.414.086-2.44-1.233-.31-14.659-.216-26.73.198-39.51a3.561 3.561 0 0 1 2.242-3.371c1.32-.509 2 0 2.052 1.474.121 3.234 0 10.736 0 10.736l5.838-2.587s.112-14.331.146-17.358c-1.491 2.018-4.837 2.587-7.165 3.45-5.682 1.914-9.26 4.466-9.761 11.761-.56 8.183-.552 23.437-.354 38.371.07 4.924 3.001 6.614 9.39 2.898 5.174-3.027 7.494-5.286 7.95-11.21.19-2.423.139-10.002.139-10.002m21.72.586c1.958-.862 3.83-1.552 5.786-2.328.113-12.46.225-24.687.345-37.682-1.914.656-2.707.914-5.785 2.01zm105.656-63.438c-.095 9.261-.19 20.591-.268 29.921 0 .983-.672 1.725-1.983 1.863a1.492 1.492 0 0 1-1.828-1.596c.078-9.26.181-20.487.259-29.705-1.889.25-3.777.517-5.735.81-.112 9.9-.215 19.67-.319 29.525 0 4.975 3.45 5.406 7.632 4.665 6.079-1.087 7.484-2.164 7.76-7.028.086-9.674.173-19.625.267-29.11-1.948.207-3.75.414-5.751.664M39.027 87.579c-.07 1.233-.112 2.268-1.596 2.897-1.138.475-1.94.19-2.017-1.034-.138-3.45.155-25.946.284-27.636a2.587 2.587 0 0 1 1.725-2.535c1.509-.535 1.828.25 1.828 1.267.095 6.036-.112 23.652-.267 27.058M37.647 55.15c-6.846 2.587-7.76 4.975-7.881 10.01-.095 4.312-.431 17.764-.25 26.61.077 3.916 2.69 5.226 8.286 2.588 6.14-2.932 6.812-4.191 7.054-9.761.224-5.398.405-19.833.258-26.308-.103-4.484-1.88-5.252-7.467-3.105m94.592-5.329l1.931-15.615h.268l1.414 15.003zm-1.966-20.444c-.173 1.216-5.312 36.431-5.312 36.431s3.898-.862 5.433-1.138l1.345-10.89 4.45-.863.982 10.416 5.976-1.077-4.312-34.37s-4.95.818-8.528 1.482M70.19 64.85a2115.933 2115.933 0 0 1-5.596-18.859c-1.724.552-3.449 1.087-5.07 1.647-.13 12.935-.241 25.084-.345 37.458 1.802-.69 3.087-1.164 4.88-1.82.061-5.803.13-13.468.199-19.547 1.888 5.466 4.19 12.071 6.079 17.323 1.56-.535 3.052-1.052 4.605-1.57.12-12.15.25-23.936.388-36.793-1.777.535-3.122.923-4.933 1.492-.069 6.415-.146 14.348-.207 20.694m6.726-18.47c1.526-.465 2.984-.862 4.519-1.31-.104 10.52-.216 22.333-.302 32.361 1.948-.612 3.82-1.207 5.768-1.794.087-9.985.19-21.712.302-32.206 1.51-.43 2.966-.862 4.484-1.233l.078-4.156a573.498 573.498 0 0 0-14.806 4.13zM112.27 68.73c3.845-.863 7.51-1.794 11.356-2.587v-3.975c-2.01.44-3.7.862-5.58 1.241 0-3.026.078-9.295.113-12.365 1.81-.396 3.535-.784 5.346-1.155 0-2.044 0-1.897.06-3.95-1.81.372-3.535.768-5.346 1.148 0-2.932.07-8.434.104-11.4 1.871-.38 3.656-.767 5.518-1.13 0-2.069 0-1.862.06-3.94-3.88.776-7.45 1.51-11.295 2.38-.138 12.451-.259 23.85-.362 35.733m-9.408-20.436c-.164 1.724-.526 2.673-1.604 3.104a20.177 20.177 0 0 1-2.31.62c0-3.095.077-9.191.12-12.33 0 0 1.06-.327 1.897-.517 1.44-.336 1.871 0 1.958 1.854.069 1.526.103 5.64-.052 7.269m5.518 7.64c-.112-2.656-1.422-3.725-3.595-3.596 1.517-.518 2.871-1.397 3.328-2.906.793-2.639.776-9.399.216-12.072-.466-2.233-1.897-2.733-4.312-2.31-1.276.223-8.183 1.982-10.657 2.586-.138 12.563-.268 24.36-.38 36.216 1.949-.535 3.82-1.104 5.76-1.621.052-4.915.104-11.633.155-16.668 0 0 .811-.233 1.725-.431 1.518-.345 2.147 0 2.25 2.285.06 1.388 0 3.923 0 6.725 0 4.7.26 6.416 2.63 6.235.656-.052 1.975-.449 4.527-1.087-2.198-.362-1.319-5.717-1.63-13.365m54.41 21.678c.44 0 .863 0 .863.5s-.69.422-1.182.422h-.56v-.914zm.388 1.448a.931.931 0 0 0 .983-1.009c0-.767-.603-.974-1.267-.974h-1.552v3.682h.534v-1.725h.682l.94 1.725h.612zm-.569-2.897a2.742 2.742 0 1 1-2.75 2.742 2.725 2.725 0 0 1 2.75-2.742m0 6.036a3.268 3.268 0 1 0-3.276-3.277 3.25 3.25 0 0 0 3.276 3.277" fill="#00f"/></svg>