<svg id="Infiniti_logo" xmlns="http://www.w3.org/2000/svg" width="152.958" height="72.95" viewBox="0 0 152.958 72.95">
  <path id="Path_55" data-name="Path 55" d="M211.91,50.712c-.072.191-.152.379-.218.573q-4.492,13.228-8.974,26.463c-.143.426-.3.623-.8.552a65.643,65.643,0,0,1-13.507-3.212,21.8,21.8,0,0,1-9.958-6.86,13.9,13.9,0,0,1-3.206-9.129,12.858,12.858,0,0,1,3.585-8.366,26.141,26.141,0,0,1,9.424-6.4,53.1,53.1,0,0,1,15.055-3.776,75.85,75.85,0,0,1,15.058-.23c6.868.579,13.537,1.959,19.723,5.151a21.781,21.781,0,0,1,8.234,6.794c3.06,4.414,3.132,9.019.65,13.683a18.578,18.578,0,0,1-8.539,7.877,47.841,47.841,0,0,1-12.46,3.829c-1.446.274-2.908.477-4.435.725q-4.76-13.882-9.487-27.665C212.005,50.715,211.957,50.715,211.91,50.712Zm.048-4.489c.2.256.334.421.459.588q7.435,9.985,14.864,19.973a.811.811,0,0,0,.948.412c1.288-.3,2.613-.471,3.877-.847a17.805,17.805,0,0,0,7.593-4.113,6.872,6.872,0,0,0,1.315-8.882,15.281,15.281,0,0,0-5.777-5.613,39.211,39.211,0,0,0-15.506-4.993,57.6,57.6,0,0,0-14.975-.03A43.45,43.45,0,0,0,190.9,46.7a19.7,19.7,0,0,0-7.077,5.4,7.571,7.571,0,0,0-1.772,6.517,7.816,7.816,0,0,0,3.1,4.429,22.548,22.548,0,0,0,10.033,4.137,1.612,1.612,0,0,0,1.837-.775c4.211-5.744,8.467-11.455,12.708-17.179C210.457,48.252,211.179,47.274,211.957,46.224Z" transform="translate(-135.486 -40.059)" fill="blue"/>
  <path id="Path_56" data-name="Path 56" d="M320.44,226.605c1.515,0,2.988-.006,4.462,0,.549,0,.743.391.9.847q2.049,5.869,4.116,11.733a5.541,5.541,0,0,0,.6,1.291V226.644h2.959V243.9H332.3c-1.005,0-2.013-.039-3.018.012a1.15,1.15,0,0,1-1.3-.939c-1.4-4.038-2.824-8.067-4.241-12.1a1.74,1.74,0,0,0-.367-.662v13.63H320.44Z" transform="translate(-237.38 -170.968)" fill="blue"/>
  <path id="Path_57" data-name="Path 57" d="M99.53,226.624c1.533,0,3.027-.009,4.518.006.522.006.692.4.841.829q1.986,5.686,3.987,11.363a8.986,8.986,0,0,0,.722,1.661V226.66h2.965v17.25c-1.193,0-2.383,0-3.57,0-1.628-.006-1.512.167-2.073-1.441-1.348-3.871-2.717-7.736-4.08-11.6a2.023,2.023,0,0,0-.34-.647v13.639H99.533C99.53,238.151,99.53,232.433,99.53,226.624Z" transform="translate(-82.354 -170.981)" fill="blue"/>
  <path id="Path_58" data-name="Path 58" d="M186.84,243.951V226.74h9.97v3.1h-6.433v3.624h6.3v3.167h-6.338v7.325Z" transform="translate(-143.625 -171.064)" fill="blue"/>
  <path id="Path_59" data-name="Path 59" d="M466.72,229.981h-3.94V226.7h11.429v3.26h-3.889V243.92h-3.6Z" transform="translate(-337.268 -171.036)" fill="blue"/>
  <path id="Path_60" data-name="Path 60" d="M45.668,243.986H41.94V226.76h3.728Z" transform="translate(-41.94 -171.078)" fill="blue"/>
  <path id="Path_61" data-name="Path 61" d="M412.473,243.841h-3.728c-.012-.236-.03-.441-.03-.65,0-5.3.009-10.608-.015-15.911,0-.567.146-.743.716-.716,1,.045,2,.012,3.054.012C412.473,232.344,412.473,238.061,412.473,243.841Z" transform="translate(-299.317 -170.939)" fill="blue"/>
  <path id="Path_62" data-name="Path 62" d="M545.933,243.845H542.2c-.012-.239-.03-.447-.03-.653,0-5.3.009-10.608-.015-15.911,0-.582.17-.731.725-.707,1,.042,2,.012,3.048.012Z" transform="translate(-392.974 -170.946)" fill="blue"/>
  <path id="Path_63" data-name="Path 63" d="M266.318,243.973h-3.7V226.75h3.7Z" transform="translate(-196.804 -171.071)" fill="blue"/>
</svg>
