<svg xmlns="http://www.w3.org/2000/svg" width="161.922" height="102.383" viewBox="0 0 161.922 102.383">
  <g id="cognacremymartin" transform="translate(0)">
    <g id="Group_39" data-name="Group 39" transform="translate(0 65.307)">
      <g id="Group_38" data-name="Group 38" transform="translate(0 0)">
        <path id="Path_7" data-name="Path 7" d="M63.439,195.87a3.2,3.2,0,0,0,.2,1.364c.132.249.435.371.9.371h-.059v.357H58.9V197.6H58.84a.829.829,0,0,0,.811-.371,3.219,3.219,0,0,0,.2-1.364V176.042a3.2,3.2,0,0,0-.2-1.364.833.833,0,0,0-.811-.371H58.9v-.357h6.832a7.322,7.322,0,0,1,5.054,1.613,6.152,6.152,0,0,1,1.94,4.76c0,2.835-1.222,4.4-3.91,5.7,2.077.694,4.394,7.737,5.293,9.652.327.694.733,1.916,1.916,1.926v.357H71.889c-.953,0-1.427-1.232-1.564-1.632-.528-1.505-2.849-7.614-4.316-9.286l-2.566.034v8.792Zm1.427-10.816c3.47,0,4.149-2.2,4.149-5.132,0-2.067-.9-4.032-3.216-4.032-.655,0-2.2.049-2.4.332v8.831Z" transform="translate(-58.84 -172.831)" fill="blue"/>
        <path id="Path_8" data-name="Path 8" d="M96.55,196.786v-.293h.313a.583.583,0,0,0,.591-.313,2.993,2.993,0,0,0,.147-1.139V178.5a2.993,2.993,0,0,0-.147-1.139.59.59,0,0,0-.591-.313H96.55v-.3h9.467l.5,2.644H106.2a1.717,1.717,0,0,0-1.715-.733H101.3c-.269,0-.415.039-.445.117a2.1,2.1,0,0,0-.044.562v6.124h3.211c.582,0,1.447-.205,1.447-.65h.288v3.26h-.288c.02-.772-.714-.694-1.447-.748h-3.211v7.233c0,.279.073.44.225.489a3.318,3.318,0,0,0,.87.073h3.064c1.3,0,1.613-.562,1.759-1.017h.357l-.362,2.683H96.55Zm7.175-25.1,2.292-.029-3.749,4.521-.943.015C101.594,175.883,103.725,171.689,103.725,171.689Z" transform="translate(-78.12 -171.66)" fill="blue"/>
        <path id="Path_9" data-name="Path 9" d="M139.147,182.08v.3c-.528,0-.816.093-.714,1.456l1.486,16.6c.142,1.1.367,1.388.875,1.388v.293h-4.565v-.293c.572,0,.655-.533.586-1.452L135.7,187.275l-4.623,14.354-.244-.039-5.093-14.051s-.635,13.469-.528,13.792a.715.715,0,0,0,.694.489v.293H122.32v-.293a.907.907,0,0,0,.973-.586c.1-.327,1.061-17.4,1.061-17.4,0-1.095-.362-1.452-.714-1.452v-.3h3.45l4.521,12.257,4.125-12.257h3.411Z" transform="translate(-91.295 -176.987)" fill="blue"/>
        <path id="Path_10" data-name="Path 10" d="M171.835,182.08h3.851v.3c-.572,0-1.183.684-1.383,1.183l-4.159,9.677v7.131c0,1.085.161,1.452.826,1.452v.293h-4.878v-.293c.762,0,.914-.552.914-1.452v-7.043l-4.252-9.677c-.147-.3-.655-1.271-1.315-1.271v-.3h4.75v.3c-.4,0-.6.459-.244,1.183l3.3,6.994,3.118-7.189c.166-.445.381-.987-.528-.987Z" transform="translate(-111.296 -176.987)" fill="blue"/>
        <path id="Path_11" data-name="Path 11" d="M265.2,201.946h-4.716v-.293c.528,0,.572-.474.406-1.241l-1.383-4.663h-4.594l-1.109,4.374c-.161.694-.068,1.53.528,1.53v.293H250.52v-.293c.982-.117,1.119-.753,1.447-1.745l4.4-17.829,2.727-.489,5.141,19.085a1.139,1.139,0,0,0,.958.977v.293Zm-8.054-15.674-1.794,7.536h3.788Z" transform="translate(-156.84 -176.737)" fill="blue"/>
        <path id="Path_12" data-name="Path 12" d="M322.62,201.82v.293h-5.132v-.293c.635,0,.938-.371.938-1.452V184.05l-3.084-.044a1.437,1.437,0,0,0-1.539.894h-.313l.723-2.82h11.725l.758,2.82h-.288c-.474-.689-.86-.88-1.334-.88H321.7v16.348C321.7,201.38,322.028,201.82,322.62,201.82Z" transform="translate(-189.034 -176.987)" fill="blue"/>
        <path id="Path_13" data-name="Path 13" d="M350.42,201.82v.293h-4.97v-.293c.63,0,.816-.352.816-1.452V183.83c0-1.031-.249-1.452-.816-1.452v-.3h5.009v.3c-.45,0-.875.43-.875,1.452v16.539C349.59,201.551,349.976,201.82,350.42,201.82Z" transform="translate(-205.374 -176.987)" fill="blue"/>
        <path id="Path_14" data-name="Path 14" d="M374.274,184.568c0-2.018-.489-2.19-1-2.19v-.3h3.636v.3s-.846-.225-.846,2.19V202.26h-1.505l-7.473-15.048v12.472c0,1.6.2,2.131.934,2.131v.293h-3.695v-.293c.611,0,.865-.327.865-2.131V183.62c0-.7-.137-1.241-.934-1.241l.01-.3h3.817s4.794,9.393,6.192,12.174v-9.687Z" transform="translate(-214.991 -176.987)" fill="blue"/>
      </g>
    </g>
    <path id="Path_15" data-name="Path 15" d="M222.6,174.065v.352c-.63,0-.973.107-.85,1.74l1.774,19.833c.171,1.315.44,1.662,1.046,1.662V198h-5.454v-.352c.684,0,.782-.635.7-1.735l-1.329-15.649-5.523,17.155-.293-.049-6.085-16.8s-.758,16.094-.63,16.485a.846.846,0,0,0,.826.582v.352H202.49v-.352a1.084,1.084,0,0,0,1.163-.7c.122-.391,1.271-20.8,1.271-20.8,0-1.31-.43-1.735-.855-1.735v-.352h4.125L213.6,188.7l4.931-14.652H222.6Z" transform="translate(-132.283 -107.575)" fill="blue"/>
    <path id="Path_16" data-name="Path 16" d="M288.59,200.278a2.627,2.627,0,0,0,.171,1.139c.112.21.367.313.767.313h-.049v.3h-4.731v-.3H284.7a.707.707,0,0,0,.689-.313,2.627,2.627,0,0,0,.171-1.139V183.73a2.627,2.627,0,0,0-.171-1.139.716.716,0,0,0-.689-.313h.049v-.3h5.792a6.277,6.277,0,0,1,4.286,1.349,5.1,5.1,0,0,1,1.642,3.973c0,2.365-1.036,3.67-3.314,4.76,1.759.577,3.724,6.456,4.487,8.054.279.577.621,1.6,1.623,1.608v.3h-3.5c-.811,0-1.207-1.026-1.329-1.364-.45-1.256-2.419-6.354-3.661-7.751l-2.175.029v7.341Zm1.212-9.027c2.942,0,3.519-1.838,3.519-4.286,0-1.725-.762-3.367-2.727-3.367-.552,0-1.862.044-2.038.279v7.37H289.8Z" transform="translate(-174.315 -111.629)" fill="blue"/>
    <g id="Group_41" data-name="Group 41" transform="translate(0.948 97.011)">
      <g id="Group_40" data-name="Group 40">
        <path id="Path_17" data-name="Path 17" d="M60.78,236.71h2.8v.562H61.459V239h1.96v.557h-1.96v2.351H60.78Z" transform="translate(-60.78 -236.622)" fill="blue"/>
        <path id="Path_18" data-name="Path 18" d="M75.829,236.71v5.2H75.15v-5.2Z" transform="translate(-68.127 -236.622)" fill="blue"/>
        <path id="Path_19" data-name="Path 19" d="M86.97,241.905v-5.2h.738l1.657,2.629a14.16,14.16,0,0,1,.924,1.691l.024-.01c-.064-.694-.078-1.324-.078-2.126v-2.18h.63v5.2h-.679l-1.652-2.639a15.107,15.107,0,0,1-.963-1.735l-.024.01c.039.655.044,1.28.044,2.146v2.219H86.97Z" transform="translate(-74.17 -236.622)" fill="blue"/>
        <path id="Path_20" data-name="Path 20" d="M108.713,239.471H106.7v1.872h2.253v.562H106.02v-5.2h2.815v.562H106.7v1.642h2.014Z" transform="translate(-83.91 -236.622)" fill="blue"/>
        <path id="Path_21" data-name="Path 21" d="M133.824,241.652a3.324,3.324,0,0,1-1.373.244,2.425,2.425,0,0,1-2.561-2.639,2.582,2.582,0,0,1,2.712-2.727,2.8,2.8,0,0,1,1.232.23l-.171.547a2.4,2.4,0,0,0-1.041-.215,1.933,1.933,0,0,0-2.028,2.146,1.885,1.885,0,0,0,1.989,2.092,2.709,2.709,0,0,0,1.1-.215Z" transform="translate(-96.114 -236.53)" fill="blue"/>
        <path id="Path_22" data-name="Path 22" d="M147.029,236.71v2.175h2.512V236.71h.679v5.2h-.679v-2.439h-2.512v2.439h-.679v-5.2Z" transform="translate(-104.529 -236.622)" fill="blue"/>
        <path id="Path_23" data-name="Path 23" d="M165.122,240.273l-.538,1.632h-.694l1.764-5.2h.811l1.774,5.2h-.718l-.557-1.632Zm1.7-.528-.518-1.5c-.108-.337-.186-.65-.264-.948h-.024c-.068.3-.156.626-.254.938l-.508,1.505Z" transform="translate(-113.497 -236.622)" fill="blue"/>
        <path id="Path_24" data-name="Path 24" d="M187.266,239.628c-.039-.723-.083-1.6-.083-2.243h-.015c-.186.6-.391,1.256-.655,1.974l-.919,2.522h-.508l-.85-2.473c-.244-.738-.445-1.4-.591-2.018h-.015c-.015.65-.054,1.51-.1,2.3l-.137,2.229h-.64l.362-5.2h.855l.885,2.512c.215.64.386,1.212.523,1.75h.015c.137-.523.323-1.095.557-1.75l.924-2.512h.855l.323,5.2h-.665Z" transform="translate(-123.139 -236.627)" fill="blue"/>
        <path id="Path_25" data-name="Path 25" d="M203.4,236.738a6.743,6.743,0,0,1,1.285-.108,2.149,2.149,0,0,1,1.456.43,1.406,1.406,0,0,1,.464,1.085,1.487,1.487,0,0,1-.411,1.109,2.164,2.164,0,0,1-1.588.572,2.624,2.624,0,0,1-.543-.044v2.082h-.67v-5.127Zm.67,2.5a2.286,2.286,0,0,0,.557.054c.816,0,1.3-.4,1.3-1.1s-.484-1.026-1.227-1.026a3.22,3.22,0,0,0-.63.054v2.023Z" transform="translate(-133.697 -236.581)" fill="blue"/>
        <path id="Path_26" data-name="Path 26" d="M218.917,240.273l-.542,1.632h-.694l1.764-5.2h.811l1.774,5.2h-.718l-.557-1.632Zm1.706-.528-.518-1.5c-.108-.337-.186-.65-.264-.948h-.024c-.068.3-.156.626-.254.938l-.508,1.505Z" transform="translate(-140.998 -236.622)" fill="blue"/>
        <path id="Path_27" data-name="Path 27" d="M238.472,241.619a4.687,4.687,0,0,1-1.6.283,2.69,2.69,0,0,1-1.945-.684,2.657,2.657,0,0,1-.723-1.935,2.6,2.6,0,0,1,2.815-2.683,3.28,3.28,0,0,1,1.3.239l-.171.547a2.573,2.573,0,0,0-1.149-.225,1.945,1.945,0,0,0-2.092,2.092,1.9,1.9,0,0,0,2,2.1,2.272,2.272,0,0,0,.894-.137v-1.549h-1.051v-.538h1.711v2.493Z" transform="translate(-149.444 -236.566)" fill="blue"/>
        <path id="Path_28" data-name="Path 28" d="M253.06,241.905v-5.2h.738l1.657,2.629a14.161,14.161,0,0,1,.924,1.691l.024-.01c-.064-.694-.078-1.324-.078-2.126v-2.18h.63v5.2h-.679l-1.652-2.639a15.105,15.105,0,0,1-.963-1.735l-.024.01c.039.655.044,1.28.044,2.146v2.219h-.621Z" transform="translate(-159.086 -236.622)" fill="blue"/>
        <path id="Path_29" data-name="Path 29" d="M273.8,239.471h-2.014v1.872h2.253v.562H271.11v-5.2h2.815v.562h-2.136v1.642H273.8Z" transform="translate(-168.315 -236.622)" fill="blue"/>
        <path id="Path_30" data-name="Path 30" d="M299.914,241.652a3.324,3.324,0,0,1-1.373.244,2.425,2.425,0,0,1-2.561-2.639,2.582,2.582,0,0,1,2.713-2.727,2.8,2.8,0,0,1,1.232.23l-.171.547a2.4,2.4,0,0,0-1.041-.215,1.933,1.933,0,0,0-2.028,2.146,1.885,1.885,0,0,0,1.989,2.092,2.709,2.709,0,0,0,1.1-.215Z" transform="translate(-181.03 -236.53)" fill="blue"/>
        <path id="Path_31" data-name="Path 31" d="M313.156,241.906a2.38,2.38,0,0,1-2.336-2.639,2.459,2.459,0,0,1,2.4-2.727,2.368,2.368,0,0,1,2.346,2.629,2.437,2.437,0,0,1-2.4,2.737h-.01Zm.034-.547c1.065,0,1.667-.977,1.667-2.16,0-1.031-.538-2.111-1.657-2.111s-1.671,1.041-1.671,2.165c0,1.095.6,2.106,1.657,2.106Z" transform="translate(-188.617 -236.535)" fill="blue"/>
        <path id="Path_32" data-name="Path 32" d="M332.652,241.619a4.688,4.688,0,0,1-1.6.283,2.436,2.436,0,0,1-2.669-2.62A2.6,2.6,0,0,1,331.2,236.6a3.28,3.28,0,0,1,1.3.239l-.171.547a2.573,2.573,0,0,0-1.149-.225,1.945,1.945,0,0,0-2.092,2.092,1.9,1.9,0,0,0,2,2.1,2.272,2.272,0,0,0,.894-.137v-1.549h-1.051v-.538h1.711v2.493Z" transform="translate(-197.595 -236.566)" fill="blue"/>
        <path id="Path_33" data-name="Path 33" d="M346.9,241.905v-5.2h.738l1.657,2.629a14.164,14.164,0,0,1,.924,1.691l.024-.01c-.063-.694-.078-1.324-.078-2.126v-2.18h.63v5.2h-.679l-1.652-2.639a15.115,15.115,0,0,1-.963-1.735l-.024.01c.039.655.044,1.28.044,2.146v2.219H346.9Z" transform="translate(-207.064 -236.622)" fill="blue"/>
        <path id="Path_34" data-name="Path 34" d="M365.4,240.273l-.538,1.632h-.694l1.764-5.2h.811l1.774,5.2H367.8l-.557-1.632Zm1.7-.528-.518-1.5c-.108-.337-.186-.65-.264-.948H366.3c-.068.3-.156.626-.254.938l-.508,1.505Z" transform="translate(-215.893 -236.622)" fill="blue"/>
        <path id="Path_35" data-name="Path 35" d="M385.954,241.652a3.324,3.324,0,0,1-1.373.244,2.425,2.425,0,0,1-2.561-2.639,2.582,2.582,0,0,1,2.712-2.727,2.8,2.8,0,0,1,1.232.23l-.171.547a2.4,2.4,0,0,0-1.041-.215,1.933,1.933,0,0,0-2.028,2.146,1.885,1.885,0,0,0,1.989,2.092,2.709,2.709,0,0,0,1.1-.215Z" transform="translate(-225.019 -236.53)" fill="blue"/>
      </g>
    </g>
    <path id="Path_36" data-name="Path 36" d="M184.984,92.717c.977-.367,1.813-.718,1.525-2.444-.122-.733-1.9-4.032-2.2-3.788-.728.582-1.652-2.321-1.769-3.3s-1.222.855-1.222-.977c0-.792-1.1-3.177-.3-5.073s2.395-4.149,6.354-2.688c1.163.43,2.2-1.833,4.457-2.385.733-.181,5.161-1.251,6.539-2.629,1.955-1.955,1.466-2.5,2.014-3.3s.367-.855.122-1.163a5.3,5.3,0,0,0-.855-.733c-.792.122-4.247-.557-4.946-.43-.977.186-2.991,2.5-3.666,2.874s-2.014,2.258-2.566,2.566-3.118,1.652-3.421,1.955-.43.733-1.163.977-1.955,1.28-2.385,1.344a.628.628,0,0,1-.611-.186s-1.9,2.874-2.014,3.177-1.163.122-.733-.489,2.014-3.118,2.014-3.118c-.547-.547-.367-.674-.43-1.163a.965.965,0,0,1,.611-1.036c.367-.117.547-.919.977-1.036a1.812,1.812,0,0,1,.855,0c2.5-4.276,8.005-12.707,8.005-12.707-.674-.244-1.769-.547-1.711-.919s-1.222-1.1-.919-1.769c-.186-.244-.611-.855-.244-1.1s-.244-.919.367-1.344.367-1.637,1.344-1.608c.753.02.274-.86,1.1-.572.694.244.723-.347,1.3.039.367.244.327.694.65.65s.855.244,1.183.161c.264-.068.122.489.406.772l7.737-12.057c.039-.611.733-.772,1.061-.894a1,1,0,0,1-.45,1.139l-7.536,12.257a.586.586,0,0,1-.244.572c.083.283.367.083.367.894,0,.205.65.283.406.855s-.489.816-.283.938,1.061-.977,1.505-.733c.039-1.139,1.75-3.015,2.972-3.338s.953-2.273,2.566-2.81c.367-.122-.156-1.266,3.3-4.071.65-.528,3.91-4.765,4.97-5.7s.855.65.205,1.139c.122.733-.557,1.344-.572,1.627-.039,1.017-.938,1.466-1.183,1.75a13.392,13.392,0,0,0-1.671,2.483,6.5,6.5,0,0,1-1.588,2.849c-.572,1.549-3.788,5.5-3.7,6.231a2.4,2.4,0,0,0,1.466,1.588,7.178,7.178,0,0,1,2.16,2.4c.083.45,1.09.435,1.505,2.321.161.733,1.671,1.222,1.794,2.4.367.816.816.977,1.1,1.671s1.383,1.872,1.261,2.649c.694-2.483.611-4.887,3.46-6.354a2.543,2.543,0,0,0,2.361-.572c.65-.772,3.749-2.932,4.276-2.932s.694-.977,1.916-.772c.816-.205,2.038-1.3,1.994-.528s-.855,2.81-1.183,2.849-1.139.039-1.383.45-.772-.528-.977-.083.327,1.139-.205,1.222-2.649.855-2.727,1.505c1.261,1.183.679,3.9,1.1,4.482.205.283-.406.283-.367.772a3.778,3.778,0,0,1-.283,1.671c-1.261-.406-2.884-2.351-2.6-2.6.572-.528-.083-.938.244-1.222s.572-.161.572-.572-1.017-.528-1.139-.855-1.671,1.1-1.588,1.549-.406,2.971-1.139,3.421c.327,1.588-1.945,4.311-2.038,4.726-.083.367-.772.327-1.75.122a12.143,12.143,0,0,1-11.769,6.148c-1.061-.122-.406,1.266-.406,1.872a7.793,7.793,0,0,1-2.361,4.682c-1.383,1.3,1.584,2.282,2.321,2.321,2.282.122,2.688,1.872,2.971,1.505s.327.572.65.772,1.1,1.344.855,1.549-1.93,1.08-2.893.122c-.283-.283-.122-1.427-.122-1.427-.406-.161-.772.283-1.061.283s-1.427-1.017-1.872-.572c.65.65,1.139,1.427,1.505,1.505s.45.816.45.816a1.984,1.984,0,0,1,.694,1.139c-.572.528-2.527,1.344-3.382-.161.283-.283.039-.45-.244-.611s.205-.572.039-1.139-.694.283-1.261-.205-1.061-1.183-1.383-1.222a11.263,11.263,0,0,1-2.038-.572c-.283-.161-.45,2.6-2.361,2.361C187.306,93.572,185.39,94.222,184.984,92.717ZM183.968,69.58c2.361-3.543,3.3-2.971,3.7-3.421s1.4-2.361,1.794-2.972c.572-.894.733-.406.855-1.222a4.983,4.983,0,0,1,1.794-2.932c.406-1.139-.039-1.833-1.017-1.994L183.24,69.585A.65.65,0,0,0,183.968,69.58Zm2.727,7.087c-.327-.406-2.8-.152-1.549,2.566.489,1.061-.244,1.183-.244,1.183.45,1.061.977,1.222.894,2.116a8.243,8.243,0,0,1,3.015,3.993C191.665,83.431,184.212,81.026,186.695,76.667Zm2.2-25.126c-.083-.406.489.083.489-.283s-.694-.45-.694-.244-.367.733-.406,1.017C188.445,52.23,188.977,51.947,188.894,51.541Zm.694-1.222c.161.283,0,.977.244,1.061S190.644,50.969,189.588,50.319Zm1.505,1.3c.205-.244-.244,0-.244-.572s-.244-.489-.45-.45C190.443,51.619,190.888,51.863,191.093,51.619Zm1.75-.323c-.367-.327-.45-.45-.855-.161s-.816.572-.816.855-.161.572.122.816c-.327,0-.572-.65-1.061-.611s.327-.205-.083-.205-.894-.122-.816-.283-.528.283-.45.528.406-.161.406.039-.528.083-.572.283-.122.694-.327.611-.039-.327-.205-.327.122-.367-.161-.367-.283.816-.327,1.061.367.244.327.894,1.017.611,1.222.894.65.45,1.427.367l1.627-2.566c-.327-.327-.694-.977-.406-1.344.283.283.772.205.694-.45Zm.777,1.872L191.748,56.1a3.876,3.876,0,0,1,1.061,2.932c.65-.489,1.794-.772,1.872-1.061s1.017-.772,1.3-.977c-.45-.367-1.466.528-1.794.65s-.528-1.75-.161-2.527.733-.977.611-1.344-.611,0-.65-.205S194.148,53.007,193.62,53.168Zm-13.24,18.45c-.406,0-.489.528-.244.772s1.017,1.061,1.427.772.977-.855,1.427-1.139,1.549-.528,2.038-1.261,3.216-1.872,3.993-2.688,3.26-3.015,4.193-3.91a3.559,3.559,0,0,1,4.032-.977c1.872.694,2.038-.528,3.91.977a3.067,3.067,0,0,0,0,1.222c.122.244-1.017,1.955-.327,2.238s1.657-1.642,2.116-2.116a8.783,8.783,0,0,1,2.4-1.549c.083-.694-2.717.767-2.771.489-.122-.65.943-.826.855-1.183-.039-.161-.772.367-.894.039s2.043-.9,1.833-1.427c-.083-.205-1.75.694-2.2.205-.5-.552-.489-.572-1.1-.772a.812.812,0,0,1-.65-.938c.039-.327-1.75-.083-1.833-.327s.406-.894.244-1.222-.894.855-1.061.694-.572.083-.65.489-1.833.406-2.6.406a4.184,4.184,0,0,0-2.483.938c-.244.411.611.65.489,1.549s-.528,1.017-.733,1.427-1.916,2.81-3.138,2.566c-.244.733-2.893,2.4-3.46,2.893s-.489.938-.938,1.061-1.549-.039-1.711.161-1.427-.489-1.139-.894-.45.122-.283.406a3.747,3.747,0,0,0,1.3,1.061c.367.122-.122.327-.45.205a9.187,9.187,0,0,1-1.139-.772C180.219,70.641,180.747,71.374,180.38,71.618ZM198.1,56.506a3.1,3.1,0,0,0,1.627,1.017c.572,0,1.466,1.139,1.955,1.261s1.627.244,1.955.816.327-.45-.083-.65a6.216,6.216,0,0,1-1.466-1.061c-.327-.367-1.222.161-1.344-.039s0-.977-.65-1.139-1.75.039-1.833-.244S197.936,56.262,198.1,56.506Zm6.153,3.5c.093.23,1.1.367,1.183,1.017s.816-.611-.205-.977S204.167,59.805,204.25,60.011Zm-3.382-6.026a5.643,5.643,0,0,1,1.427-2.6c.977-.894,1.627-2.81,2.116-3.338s1-.455,1.261-.938c.572-1.061,1.139-2.727,1.427-3.216s.694-.733.816-1.061-1.794.977-1.916,1.3.816-.283.65.083c-.528,1.183-3.5,2.688-3.665,3.3a2.825,2.825,0,0,0,0,1.549c.122.327-3.421,1.549-3.5,2.727S199.729,54.229,200.868,53.985Zm6.759-11.568c1.505-.093,1.833-1.061,1.794-1.549-.489.938-1.1.977-1.505.772C207.916,41.644,206.977,42.455,207.627,42.416Zm1.916-2.527c.161-.572,1.3-1.588.772-1.183s-1.3,1.017-1.3,1.505C209.015,40.422,209.382,40.461,209.543,39.889Zm13.4,17.15a2.364,2.364,0,0,0-.855,1.955c.215.5-.244-.689.938-1.549C223.472,57.117,222.944,57.039,222.944,57.039Zm-6.925,4.11c-.039.938,1.549.611,1.627,1.061C217.974,61.272,215.98,61.477,216.019,61.149ZM213.7,63.92c.938-1.794,2.893-.205,3.7-.406,0,0,.205-.855,0-.45s-1.994-.611-2.893-.244-1.872,2.361-2.4,4.726C212.515,67.058,212.979,65.294,213.7,63.92Zm3.46,1.627-.083.406c.489.244,1.627.816,1.627.977l.039-.45A12.817,12.817,0,0,0,217.158,65.548Zm-4.8,3.343c.039-.122-.938,1.505-1.139,1.916s-.885,1.217-1.139.977a12.02,12.02,0,0,0-5.7-2.727c-.894-.205,1.041.767,1.383,1.671.327.855-3.138-2.321-4.154-2.2s.327.283.489,1.017,1.222,1.833,3.543,1.711,3.455.455,3.871.938C210.726,73.612,212,69.951,212.353,68.891Zm-4.193,4.765c-1.061,1.1-4.56,4.643-9.325,4.276s-3.338-2.4-6.476-1.505c-.264.073.591.914.367,1.139-.161.161-1.3-.894-1.261-1.222a1.266,1.266,0,0,0,1.061,1.794c.367.083.205,1.627.772,1.466s.205-2.077.772-1.955a9.776,9.776,0,0,1,2.771,1.344C200.1,78.949,205.878,78.543,208.16,73.656Zm-23.381,2.033c-.21.2,2.116-.694,2.321-.083s-.811,2.664-.205,3.788c.855,1.588,3.3,3.338,3.338,4.359a4.042,4.042,0,0,1-1.916,3.788c-.161-.894-.733-2.649-1.261-2.893a11.009,11.009,0,0,1,.894,4.8c.65.161.65,2.566-.039,3.015,1.1-.122,1.779-1.6,1.427-2.727-.205-.65.572.244,1.261.489s1.627.327,1.833.611,1.1,1.222,1.549,1.183,1.061-.489,1.061.816.406,0,.45-.244-.039-1.1-1.261-1.139-1.706-1.193-1.994-1.588c-.772-1.061-3.788-.977-3.7-1.427s4.154-3.138,4.316-4.4c-1.061-.489-2.038-.968-1.833-1.75s2.077,1.1,3.46-.039c-2.238-.122-3.421-1.139-3.543-1.549s-.894.039-1.872-.528-2.077-1.383-1.344-3.3S186.451,74.145,184.779,75.689Zm11.04,7.864a11.94,11.94,0,0,1-3.582,2.81c-1.222.528-1.627,1.183-1.627,1.466s.855-.611.938-.244-.494.43-.083.816c.572.528,3.26,1.794,3.421,2.2a2.614,2.614,0,0,1,2.483.327c.45.367.528-.406,1.017-.244s.694.694.855.855c-.161.367-.244,1.1.45,1.222s1.046.1.977-.244c-.244-1.222-1.222-1.627-1.183-2.038-.327-.039-.855-.039-.855-.039-.855-1.427-2.2-1.017-3.665-1.466s-2.038-.894-1.872-1.549S195.776,84.853,195.82,83.553Zm-.572,10.1a1.153,1.153,0,0,1,.122.772c.406-.694.977-.327,1.061-.733S195.492,93.367,195.248,93.65ZM181.48,77.116c-.244,1.549.572,5.049.367,5.376.528-.161.894-.083.938.45s1.061,3.382,1.466,3.26,2.727,3.3,2.849,4.36c.733-1.549-1.261-4.316-1.261-4.97s.166-2.957-1.222-2.361c.65.694.977,2.321.694,2.4s-2.361-3.338-2.4-4.032-.406.65-.45.122a2.009,2.009,0,0,0-.283-1.3A7.687,7.687,0,0,1,181.48,77.116Z" transform="translate(-119.782 -38.034)" fill="blue"/>
  </g>
</svg>
