<svg id="sanofi" xmlns="http://www.w3.org/2000/svg" width="117.686" height="94.615" viewBox="0 0 117.686 94.615">
  <g id="Group_61" data-name="Group 61" transform="translate(0 71.147)">
    <rect id="Rectangle_22" data-name="Rectangle 22" width="3.336" height="22.829" transform="translate(114.351 0.316)" fill="blue"/>
    <path id="Path_133" data-name="Path 133" d="M131.479,117.241a8.519,8.519,0,1,0,8.369,8.6A8.321,8.321,0,0,0,131.479,117.241Zm.14-3.1a11.62,11.62,0,1,1-11.639,11.668A11.534,11.534,0,0,1,131.619,114.14Z" transform="translate(-53.506 -114.03)" fill="blue" fill-rule="evenodd"/>
    <path id="Path_134" data-name="Path 134" d="M37.313,116.885c-2.094,0-3.909,1.44-3.652,3.608a2.811,2.811,0,0,0,1.462,2.109,7.354,7.354,0,0,0,1.418.6c.654.235,1.455.5,2.263.786a13.462,13.462,0,0,1,4.026,1.91,5.848,5.848,0,0,1,1.94,4.364c0,4.313-3.468,7.193-7.561,7.193-4.137,0-7.6-2.844-7.7-7.024h3.218c.419,2.858,2.219,4.122,4.482,4.122,2.1,0,4.262-1.323,4.262-3.791a3.254,3.254,0,0,0-1.837-2.983,9.457,9.457,0,0,0-1.315-.544c-.544-.191-1.161-.389-1.8-.6a20.5,20.5,0,0,1-3.446-1.367,5.346,5.346,0,0,1-2.675-4.644c0-3.843,2.939-6.642,7.083-6.642a6.838,6.838,0,0,1,6.826,6.2H41.031A3.655,3.655,0,0,0,37.313,116.885Z" transform="translate(-29.51 -113.99)" fill="blue" fill-rule="evenodd"/>
    <path id="Path_135" data-name="Path 135" d="M161.419,114.417l10.786-.007v3.064h-9.669v7.414h9.669v3.057h-9.669v9.295H159.2v-20.61A2.211,2.211,0,0,1,161.419,114.417Z" transform="translate(-63.909 -114.101)" fill="blue" fill-rule="evenodd"/>
    <path id="Path_136" data-name="Path 136" d="M91.73,119.665l-.015,17.509H88.38l.015-20.72a2.314,2.314,0,0,1,2.314-2.314,2.186,2.186,0,0,1,1.969,1.095c3.306,5.364,9.39,15.5,10.052,16.613l.022-17.5h3.336l-.015,20.72a2.314,2.314,0,0,1-2.314,2.314,2.178,2.178,0,0,1-1.969-1.1C98.476,130.915,92.392,120.775,91.73,119.665Z" transform="translate(-45.125 -114.03)" fill="blue" fill-rule="evenodd"/>
    <path id="Path_137" data-name="Path 137" d="M64.241,118.541l-3.358,9.214,6.723.007Zm-4.46,12.2-2.359,6.429H53.94l8.193-21.6a2.268,2.268,0,0,1,4.218,0l8.193,21.6H71.06L68.7,130.738Z" transform="translate(-35.99 -114.03)" fill="blue" fill-rule="evenodd"/>
  </g>
  <g id="Group_62" data-name="Group 62" transform="translate(29.434 0)">
    <path id="Path_138" data-name="Path 138" d="M133.83,37.674c-9.478-13.931-20.1-1.7-30.764-3.211-10.581-1.5-10.948-16.01,2.079-17.237.316-.037.632-.051.948-.066A29.407,29.407,0,0,1,133.83,37.674Z" transform="translate(-76.379 -17.16)" fill="blue"/>
    <path id="Path_139" data-name="Path 139" d="M131.119,46.125a29.415,29.415,0,0,1-47.069,30.7,18.094,18.094,0,0,0,6.407,1.139C117.107,78.1,105.733,42.679,131.119,46.125Z" transform="translate(-73.411 -24.78)" fill="blue" fill-rule="evenodd"/>
    <path id="Path_140" data-name="Path 140" d="M88.233,76.113c-3.688,2.256-9.537,1.58-13.6-3.982A25.941,25.941,0,0,1,72.355,68.4,29.3,29.3,0,0,1,69.57,55.892a27.656,27.656,0,0,1,.213-3.512c6.414,8.648,13.8,8.384,18.487,11.19a7.375,7.375,0,0,1-.037,12.542Z" transform="translate(-69.57 -26.502)" fill="blue" fill-rule="evenodd"/>
  </g>
</svg>
