<svg xmlns="http://www.w3.org/2000/svg" width="86" height="86.053" viewBox="0 0 86 86.053">
  <g id="Group_93" data-name="Group 93" transform="translate(-7 -6.974)">
    <path id="Path_1168" data-name="Path 1168" d="M36.983,32.666A30.112,30.112,0,0,0,15.837,41.5h0A30.187,30.187,0,0,0,58.528,84.189h0A30.219,30.219,0,0,0,62.223,45.98a1,1,0,0,0-1.664,1.113l0,.007a28.2,28.2,0,0,1-3.451,35.674h0a28.185,28.185,0,1,1-4.186-43.311,1,1,0,1,0,1.135-1.649l-.015-.01a30.131,30.131,0,0,0-17.062-5.138Z" fill="blue" fill-rule="evenodd"/>
    <path id="Path_1169" data-name="Path 1169" d="M37.385,41.137A21.7,21.7,0,1,0,56.11,52.2a1,1,0,1,0-1.754.965l.01.018a19.709,19.709,0,1,1-7.527-7.526,1,1,0,0,0,1-1.735l-.016-.009a21.654,21.654,0,0,0-10.437-2.78Z" fill="blue" fill-rule="evenodd"/>
    <path id="Path_1170" data-name="Path 1170" d="M37.272,49.611a13.239,13.239,0,0,0-9.456,22.6h0A13.242,13.242,0,0,0,49.784,58.792a1,1,0,0,0-1.914.584l.009.03A11.24,11.24,0,0,1,29.233,70.793h0A11.24,11.24,0,0,1,40.62,52.147a1,1,0,1,0,.632-1.9l-.022-.007a13.26,13.26,0,0,0-3.958-.631Z" fill="blue" fill-rule="evenodd"/>
    <path id="Path_1171" data-name="Path 1171" d="M75.917,7.246,65.158,17.974a1,1,0,0,0-.25.531L61.436,37.178,39.855,58.759a4.8,4.8,0,0,0-2.659-.813,4.911,4.911,0,1,0,0,9.821,4.9,4.9,0,0,0,4.066-7.6L62.843,38.585l18.673-3.44a1.01,1.01,0,0,0,.531-.282L92.775,24.1a1.057,1.057,0,0,0-.75-1.689.869.869,0,0,0-.125,0L74.353,25.7l-.031-.031L77.606,8.153a1.022,1.022,0,0,0-1.689-.907Zm-.876,3.69L72.164,26.45l-8.226,8.225,2.878-15.482ZM89.085,24.98l-8.257,8.257L65.346,36.114l8.225-8.257ZM37.2,59.947a2.909,2.909,0,0,1,0,5.818,2.909,2.909,0,1,1,0-5.818Z" fill="blue" fill-rule="evenodd"/>
  </g>
</svg>
