<svg xmlns="http://www.w3.org/2000/svg" id="Layer_1" width="41" height="41"><style id="style10">.st0{fill:#00f}</style><g id="g1008" transform="translate(-.007 1.763)"><g id="g1006" transform="translate(-98.14 -.003)"><path class="st0" d="M105 22.96c-.06-.03-.11.05-.06.11.05-.03.07-.06.06-.11" id="path36" fill="#00f"/><path class="st0" d="M105.04 22.7c-.04.04-.07.08-.04.15.06 0 .04-.06.1-.09-.02-.04-.04-.05-.06-.06" id="path38" fill="#00f"/><path class="st0" d="M106.68 25.92c-.05 0-.12.04-.14.08.02.05.05.06.08.1.05-.01.1-.02.15-.07-.03-.04-.06-.06-.09-.11" id="path40" fill="#00f"/><path class="st0" d="M105.02 22.43c-.07-.09-.19.06-.07.11.06-.03.07-.07.07-.11" id="path42" fill="#00f"/><path class="st0" d="M106.83 26.14c-.1-.01-.11.12-.02.1.03-.02.02-.06.02-.1" id="path44" fill="#00f"/><path class="st0" d="M105.29 22.54a.349.349 0 0 0-.17-.06c-.16.14.15.25.17.06" id="path46" fill="#00f"/><path class="st0" d="M106.98 26.39c.06.07.19.16.33.08-.09-.11-.23-.05-.33-.08" id="path48" fill="#00f"/><path class="st0" d="M107.16 25.82c-.11-.09-.16-.18-.25-.31-.33.07-.14.3-.01.46.09-.03.2-.09.26-.15" id="path50" fill="#00f"/><path class="st0" d="M105.33 22.69c.08.05.15-.01.21-.09-.09-.08-.2 0-.21.09" id="path52" fill="#00f"/><path class="st0" d="M105.55 22.13c-.07-.03-.14-.07-.23-.04-.02.04.02.05.02.1-.04.08-.14.13-.14.22.19.1.31-.14.35-.28" id="path54" fill="#00f"/><path class="st0" d="M105.52 22.85c-.03-.03-.08.01-.07.05.01 0 .1-.02.07-.05" id="path56" fill="#00f"/><path class="st0" d="M105.75 21.74c-.23-.05-.64-.05-.69.26.09-.01.17-.01.26-.03.05-.05.06-.16.15-.17.04.08-.1.1-.06.18.06.03.12.04.19.03.06-.08.07-.18.15-.27" id="path58" fill="#00f"/><path class="st0" d="M107.31 26.58c.07.1.23.09.32.04-.1-.04-.18-.13-.32-.04" id="path60" fill="#00f"/><path class="st0" d="M107.25 25.91c-.06.04-.18.06-.19.12.12.01.2.15.36.03-.05-.08-.11-.11-.17-.15" id="path62" fill="#00f"/><path class="st0" d="M105.59 23.01c.06-.01.21-.07.21-.13-.08-.03-.21.05-.21.13" id="path64" fill="#00f"/><path class="st0" d="M105.78 22.6c-.09-.02-.19.06-.19.15.07.02.2-.06.19-.15" id="path66" fill="#00f"/><path class="st0" d="M107.37 26.22c-.05.08.01.17.1.17.08-.04.16-.08.25-.12-.09-.09-.19-.15-.35-.05" id="path68" fill="#00f"/><path class="st0" d="M105.48 22.47c.18.1.27-.18.33-.28-.06-.02-.12-.06-.2-.04.03.13-.1.21-.13.32" id="path70" fill="#00f"/><path class="st0" d="M107.68 26.76c.06.04.15.02.24-.02-.02-.08-.2-.07-.24.02" id="path72" fill="#00f"/><path class="st0" d="M107.6 26.47c.1.09.28.09.43-.04-.11-.11-.3-.1-.43.04" id="path74" fill="#00f"/><path class="st0" d="M107.44 25.53c-.07.02-.15.08-.25.12.03.07.07.09.11.11.07-.01.2-.05.26-.11a.345.345 0 0 0-.12-.12" id="path76" fill="#00f"/><path class="st0" d="M106.06 22.59c-.09-.01-.2.09-.2.16.11 0 .19-.08.2-.16" id="path78" fill="#00f"/><path class="st0" d="M105.85 22.22c0 .1-.06.18-.09.28.16.04.24-.14.3-.24-.06-.05-.13-.06-.21-.04" id="path80" fill="#00f"/><path class="st0" d="M107.83 25.88c-.05-.06-.12-.08-.18-.14-.07.01-.16.07-.24.1.04.09.1.12.16.16.1-.06.2-.06.26-.12" id="path82" fill="#00f"/><path class="st0" d="M108.12 26.89c0-.03 0-.06-.02-.1-.05.01-.09 0-.15.03.01.08.11.06.17.07" id="path84" fill="#00f"/><path class="st0" d="M105.69 22.05c.05.01.1.03.15.03.06-.1.1-.21.12-.32a.4.4 0 0 0-.19-.02c0 .11-.09.19-.08.31" id="path86" fill="#00f"/><path class="st0" d="M107.95 25.97c-.08.06-.19.06-.25.12.06.14.26.12.45-.01a.443.443 0 0 0-.2-.11" id="path88" fill="#00f"/><path class="st0" d="M107.96 26.6c.09.15.29.02.42-.05-.1-.11-.25-.05-.42.05" id="path90" fill="#00f"/><path class="st0" d="M106.28 22.31c-.04-.03-.09-.06-.15-.03-.02.07-.05.13-.05.2.09 0 .22-.08.2-.17" id="path92" fill="#00f"/><path class="st0" d="M105.43 21.12c.06 0 .13-.01.19-.03 0-.06.03-.1 0-.17-.11.01-.19.11-.19.2" id="path94" fill="#00f"/><path class="st0" d="M108.54 26.88c-.04-.04-.18-.03-.2.04.07-.01.12.01.2-.04" id="path96" fill="#00f"/><path class="st0" d="M108.41 26.2c-.08-.12-.24-.01-.38.06.08.13.29.07.38-.06" id="path98" fill="#00f"/><path class="st0" d="M108.06 25.58c-.09.06-.16.06-.25.09.08.14.27.16.39.02-.03-.07-.08-.07-.14-.11" id="path100" fill="#00f"/><path class="st0" d="M108.32 26c.06-.04.16-.07.16-.13 0-.04-.1-.05-.13-.1-.22.05-.24.2-.03.23" id="path102" fill="#00f"/><path class="st0" d="M106.07 20.62c-.1-.02-.21.08-.22.17.05-.01.1 0 .15-.02.03-.05.08-.09.07-.15" id="path104" fill="#00f"/><path class="st0" d="M106.23 20.81c.03-.04.06-.08.06-.14-.13-.11-.26.17-.06.14" id="path106" fill="#00f"/><path class="st0" d="M117.69 23.92c.1-.04.29-.09.33-.15-.07-.03-.31.06-.33.15" id="path108" fill="#00f"/><path class="st0" d="M118.49 23.92c.01.01-.01.02.01.04.13-.02.27.04.39-.05-.14-.03-.26-.07-.4.01" id="path110" fill="#00f"/><path class="st0" d="M117.83 22.29c.02.03.03.07.05.1.12-.1.22-.2.31-.3-.12.01-.31.12-.36.2" id="path112" fill="#00f"/><path class="st0" d="M119.58 24c-.09-.05-.28-.09-.37.01.12.01.25.08.37-.01" id="path114" fill="#00f"/><path class="st0" d="M119.2 22.52c.5-.04.53-.6.88-.87-.42.21-.69.55-.88.87" id="path116" fill="#00f"/><path class="st0" d="M119.69 22.47c.55-.07.69-.79 1.16-1.1-.56.24-.94.69-1.16 1.1" id="path118" fill="#00f"/><path class="st0" d="M116.99 13.76c.06-.01.11-.02.17-.04-.07.02-.14.02-.21.03.02 0 .03 0 .04.01" id="path120" fill="#00f"/><path class="st0" d="M115.77 13.64c.01.01.03.01.05.02.08-.03.26-.07.29-.07a.55.55 0 0 0 .07-.09c-.14.02-.28.06-.41.14" id="path122" fill="#00f"/><path class="st0" d="M116.37 13.49a.7.7 0 0 1-.08.1h.05c.05-.04.1-.07.15-.11-.04 0-.08 0-.12.01" id="path124" fill="#00f"/><path class="st0" d="M117.47 13.49c-.17.03-.36.02-.56.01-.03.04-.06.08-.1.12.17 0 .34-.02.51-.11.04-.02.07 0 .09.03.02-.01.04-.03.06-.05" id="path126" fill="#00f"/><path class="st0" d="M118.75 19.13c.04-.02.09-.04.13-.05.08-.24.09-.51.14-.76-.24.2-.24.52-.27.81" id="path128" fill="#00f"/><path class="st0" d="M121.65 21.2c-.74.15-1.15.81-1.51 1.27.61-.11.8-.95 1.51-1.27" id="path130" fill="#00f"/><path class="st0" d="M117 14.33c-.17.03-.43.05-.56.15.18-.06.42-.01.56-.15" id="path132" fill="#00f"/><path class="st0" d="M116.72 13.32l.15-.12c.03-.04.06-.07.09-.11-.11.01-.22.02-.32.04-.05.06-.09.13-.14.19a.81.81 0 0 1 .22 0" id="path134" fill="#00f"/><path class="st0" d="M116.03 13.32c.1-.01.21-.01.31-.01l.12-.15c-.15.04-.3.09-.43.16" id="path136" fill="#00f"/><path class="st0" d="M117.91 13.08c.01-.01.01-.03.02-.04-.14.02-.28.02-.42.03 0 .01-.01.03-.03.04-.06.04-.12.08-.18.11-.02.01-.04.03-.06.04 0 .01-.01.02-.02.02l-.02.02c.22-.04.44-.12.64-.22.03-.02.05-.02.07 0" id="path138" fill="#00f"/><path class="st0" d="M126.41 17.43c.01 0 .01 0 0 0 .08-.06.14-.13.21-.2-.11-.05-.22-.08-.33-.11.03.08.03.17 0 .27.04.02.08.03.12.04" id="path140" fill="#00f"/><path class="st0" d="M126.1 17.76c.07-.07.14-.14.21-.22-.03-.01-.05-.01-.08-.02-.03.08-.08.16-.13.24" id="path142" fill="#00f"/><path class="st0" d="M120.97 19.41c.23-.2.44-.42.65-.63-.01 0-.02 0-.03.01-.03.01-.06.01-.1.02-.19.21-.38.41-.57.62z" id="path144" fill="#00f"/><path class="st0" d="M121.77 18.63l.4-.4c-.04 0-.09.01-.14.01-.13.13-.26.27-.39.41.04-.01.09-.02.13-.02" id="path146" fill="#00f"/><path class="st0" d="M122.56 17.69c-.12.12-.24.25-.37.38.04 0 .09-.01.14-.01.12-.12.23-.25.34-.38-.03 0-.07.01-.11.01" id="path148" fill="#00f"/><path class="st0" d="M123 17.24c-.1.1-.2.21-.3.32.03 0 .06 0 .09-.01.07-.1.14-.21.21-.31" id="path150" fill="#00f"/><path class="st0" d="M124.93 17.08l.35.06c.02-.02.04-.05.06-.07-.01.02-.03.05-.04.07.15.03.3.07.44.1.02-.03.04-.05.06-.08.02.03.06.01.08.05a.21.21 0 0 1-.04.06c.11.03.21.06.32.08.02-.07.03-.13 0-.18-.01-.04 0-.06.02-.08-.05-.01-.1-.03-.15-.04-.08.1-.19.12-.28.07 0-.04.05-.06.03-.11a.483.483 0 0 0-.39.02c-.04-.05.04-.06.02-.11-.15-.1-.31-.1-.42.07-.02.04-.04.07-.06.09" id="path152" fill="#00f"/><path class="st0" d="M124.21 19.33c-.11.01-.22.02-.33.04l-.33.27c.24-.09.45-.19.66-.31" id="path154" fill="#00f"/><path class="st0" d="M124.44 19.19c.13-.09.26-.17.39-.27-.15 0-.3 0-.45.01-.1.09-.21.19-.32.28.13-.01.25-.02.38-.02" id="path156" fill="#00f"/><path class="st0" d="M124.81 18.54c-.09.09-.18.17-.27.26.15-.01.3 0 .45.01.1-.08.2-.16.29-.25-.15-.03-.31-.03-.47-.02" id="path158" fill="#00f"/><path class="st0" d="M125.68 18.17c-.15-.03-.31-.04-.47-.05-.09.1-.18.19-.27.29.16 0 .32.01.47.03.08-.07.16-.14.23-.22.01-.02.03-.04.04-.05" id="path160" fill="#00f"/><path class="st0" d="M125.52 17.75c-.06.08-.13.17-.2.25.15.01.29.02.43.06.04-.06.1-.14.16-.22-.12-.05-.25-.08-.39-.09" id="path162" fill="#00f"/><path class="st0" d="M125.77 17.4c-.05.08-.1.16-.16.23.13.02.25.05.38.09.05-.08.09-.15.13-.23l-.35-.09" id="path164" fill="#00f"/><path class="st0" d="M124.42 17.04c.13 0 .26.01.39.03l.2-.29c-.1-.1-.35-.06-.46.08-.04.06-.09.12-.13.18" id="path166" fill="#00f"/><path class="st0" d="M125.23 17.27c-.06.1-.13.2-.2.31.15.01.3.01.45.03.07-.08.13-.16.19-.24-.15-.04-.29-.07-.44-.1" id="path168" fill="#00f"/><path class="st0" d="M124.59 18.14c-.09.1-.19.21-.29.31.14-.02.27-.03.41-.04.11-.1.21-.2.31-.3l-.43.03" id="path170" fill="#00f"/><path class="st0" d="M123.64 18.9l.27-.27c-.11.01-.21.03-.32.03-.11.11-.23.21-.34.31.13-.02.26-.04.39-.07" id="path172" fill="#00f"/><path class="st0" d="M124.26 18.82c.1-.09.2-.17.3-.26-.14.01-.27.03-.41.05-.09.09-.19.18-.29.26.13-.02.27-.04.4-.05" id="path174" fill="#00f"/><path class="st0" d="M123.71 19.27c.12-.1.25-.19.37-.29-.14.02-.28.04-.42.07-.13.11-.27.22-.41.33.15-.05.3-.09.46-.11" id="path176" fill="#00f"/><path class="st0" d="M123.1 19.4c.12-.1.24-.21.35-.32-.15.03-.29.06-.44.08-.19.14-.36.28-.53.4.21-.06.42-.11.62-.16" id="path178" fill="#00f"/><path class="st0" d="M120.16 20.59l.3-.15c-.1-.01-.21-.04-.31-.07-.09.12-.17.23-.25.35.11-.06.22-.12.26-.13" id="path180" fill="#00f"/><path class="st0" d="M120.38 20.73l.03.06c.2-.09.38-.21.55-.34-.09.01-.18.01-.27.01 0 .03-.02.05-.05.06-.24.05-.47.22-.68.31-.01 0-.02.01-.03.01.15-.03.31-.1.45-.11" id="path182" fill="#00f"/><path class="st0" d="M120.23 20.26c.02.01.04.01.07.02.11-.08.21-.16.32-.25a.3.3 0 0 1-.1-.04c-.01.01-.03.02-.05.02l-.01.01c-.01.02-.02.03-.02.05-.01.03-.03.04-.06.04-.01.01-.03.02-.04.02-.05.04-.08.09-.11.13" id="path184" fill="#00f"/><path class="st0" d="M123.09 19.73c.13-.1.26-.19.39-.29-.18.04-.35.08-.52.12-.11.08-.23.16-.35.23l.27-.21c-.25.07-.49.14-.74.2-.11.06-.22.12-.35.17.05-.04.1-.08.16-.12-.33.08-.66.17-1 .19-.18.11-.36.21-.56.27.25.04.5.03.76 0 .07-.06.14-.13.21-.19.06-.06.15.04.09.1l-.05.05c.12-.02.24-.05.35-.08.45-.12.9-.27 1.34-.44" id="path186" fill="#00f"/><path class="st0" d="M121.28 20.56c.52-.19 1.06-.3 1.42-.55-.36.13-.74.24-1.11.32-.12.03-.25.05-.38.07-.18.15-.37.29-.57.4.21-.03.49-.18.64-.24" id="path188" fill="#00f"/><path class="st0" d="M120.64 19.8c-.02.03-.04.06-.06.08.04.02.1.03.16.04.2-.16.4-.32.6-.49-.02.01-.04.01-.06.02-.09.03-.18.06-.29.08-.1.07-.22.15-.32.24 0 .02-.01.03-.03.03" id="path190" fill="#00f"/><path class="st0" d="M121.34 19.84c.29-.06.57-.12.86-.2.18-.14.36-.29.53-.43-.09.01-.19.03-.28.04-.05 0-.1.01-.14.01-.09.08-.19.15-.29.23-.48.37-.36.09-.21-.16h-.02c-.16.17-.37.37-.61.55.05-.02.11-.03.16-.04" id="path192" fill="#00f"/><path class="st0" d="M122.92 19.03c.13-.12.27-.23.4-.35-.12.01-.24.01-.36.01-.16.14-.31.27-.48.41.15-.02.3-.04.44-.07" id="path194" fill="#00f"/><path class="st0" d="M121.58 19.24c.2-.17.39-.34.58-.51-.11.01-.22.01-.32.02-.19.2-.39.4-.59.59.11-.05.22-.08.33-.1" id="path196" fill="#00f"/><path class="st0" d="M124.06 18.18c-.1.12-.21.23-.32.34.1-.01.21-.03.31-.04.1-.11.21-.22.31-.33l-.3.03" id="path198" fill="#00f"/><path class="st0" d="M123.12 18.56c.12 0 .24-.01.36-.02.13-.12.25-.24.37-.36h-.33c-.1.1-.21.21-.32.3-.03.03-.05.06-.08.08" id="path200" fill="#00f"/><path class="st0" d="M121.97 18.61c.11-.01.22-.02.33-.02.13-.13.26-.25.38-.38-.11 0-.23.01-.35.02-.09.09-.17.18-.26.27-.02.03-.06.07-.1.11" id="path202" fill="#00f"/><path class="st0" d="M124.94 17.71c-.07.1-.15.19-.23.29.14-.01.29-.01.43-.01.08-.08.16-.17.23-.26-.14-.01-.29-.02-.43-.02" id="path204" fill="#00f"/><path class="st0" d="M123.99 17.65c-.11.14-.22.28-.35.42h.17c.05 0 .11-.01.17-.01.12-.12.24-.25.35-.38a1.87 1.87 0 0 0-.34-.03" id="path206" fill="#00f"/><path class="st0" d="M124.48 17.68c-.09.12-.19.24-.29.35.1-.01.2-.02.31-.02l.28-.31c-.11 0-.21-.01-.3-.02" id="path208" fill="#00f"/><path class="st0" d="M122.84 17.66c-.11.13-.23.26-.35.39h.33c.12-.13.24-.27.35-.41-.11.01-.22.02-.33.02" id="path210" fill="#00f"/><path class="st0" d="M124.84 17.2c-.08.11-.17.23-.27.35.1.01.21.01.32.02l.29-.32c-.11-.01-.22-.03-.34-.05" id="path212" fill="#00f"/><path class="st0" d="M123.33 16.89c-.1.23-.23.45-.38.65.11-.01.22-.01.33-.01.24-.31.45-.62.61-.95-.15-.06-.29.02-.42.16-.05.04-.1.1-.14.15" id="path214" fill="#00f"/><path class="st0" d="M124.33 17.17c-.08.11-.16.23-.25.35.12.01.24.01.36.02.1-.12.19-.24.28-.36-.13 0-.26-.01-.39-.01" id="path216" fill="#00f"/><path class="st0" d="M120.62 22.42c.43 0 .69-.74 1.12-1.01-.51.25-.84.64-1.12 1.01" id="path218" fill="#00f"/><path class="st0" d="M117.17 12.76c-.1.03-.21.06-.31.1-.02.02-.03.04-.05.06.09-.01.18-.01.27-.01l.09-.15" id="path220" fill="#00f"/><path class="st0" d="M117.69 12.75c-.08.06-.16.11-.24.16.26-.01.49-.05.68-.21-.14.03-.29.04-.44.05" id="path222" fill="#00f"/><path class="st0" d="M122.45 21.18c-.6.29-1.06.78-1.4 1.21.64.02.89-.85 1.4-1.21" id="path224" fill="#00f"/><path class="st0" d="M117.15 14.09c.1-.03.31-.08.35-.19-.11-.01-.34.05-.35.19" id="path226" fill="#00f"/><path class="st0" d="M115.95 11.58c.05-.01.1-.03.15-.05.04-.06.08-.12.11-.19-.14.06-.31.11-.26.24" id="path228" fill="#00f"/><path class="st0" d="M122.15 22.02c.09-.07.19-.15.28-.23.04-.03.08-.06.12-.1.01-.01.02-.01.03-.01.02-.02.04-.04.07-.06.03-.15.19-.28.3-.37.03-.02.08-.07.14-.1h-.02c-.02.02-.05.02-.07.01-.04.01-.08.03-.12.05-.09.07-.18.13-.28.18-.02.01-.05.01-.07-.01-.35.35-.67.75-.97 1.04h.02c.07-.04.14-.08.2-.13.11-.09.24-.18.37-.27" id="path230" fill="#00f"/><path class="st0" d="M124.12 20.65c-.23.01-.46.04-.69.09-.04.02-.09.04-.13.06.18-.01.35-.01.53 0 .1-.05.19-.1.29-.15" id="path232" fill="#00f"/><path class="st0" d="M124.89 20.06c-.02 0-.03-.01-.04-.02-.1.05-.19.11-.29.16.15-.01.29-.02.44-.02.07-.04.15-.08.22-.12h-.33" id="path234" fill="#00f"/><path class="st0" d="M125.24 19.84h-.02c-.05.03-.11.06-.17.09h.39c.14-.08.28-.15.42-.22-.06.01-.12.01-.18.03-.08.02-.16.03-.25.05-.04.01-.07.01-.11.02-.01.01-.02.01-.02.01-.01.02-.03.03-.06.02.02 0 .01 0 0 0" id="path236" fill="#00f"/><path class="st0" d="M125.73 19.58c.15-.02.31-.03.46-.02.36-.17.72-.31 1.08-.4-.43-.07-.97.13-1.54.42" id="path238" fill="#00f"/><path class="st0" d="M124.38 20.52c.12-.07.24-.13.37-.2l-.47.03c-.13.07-.26.13-.38.19.15-.01.31-.02.48-.02" id="path240" fill="#00f"/><path class="st0" d="M123.05 21.01c.02 0 .03.01.04.02h.19c.09-.04.18-.07.27-.11-.17 0-.34.01-.51.02-.02.01-.03.02-.04.03.02.01.04.02.05.04" id="path242" fill="#00f"/><path class="st0" d="M117.42 12.32c.01-.02.02-.03.03-.05-.21.06-.41.13-.61.23.12-.05.24-.08.37-.1.05-.03.1-.06.16-.08.01-.01.03-.01.05 0" id="path244" fill="#00f"/><path class="st0" d="M116.37 10.92c-.09.06-.18.13-.2.22.13-.02.24-.11.2-.22" id="path246" fill="#00f"/><path class="st0" d="M123.15 24.18c.03 0 .05.01.06.03.03-.01.05-.03.08-.05-.07-.14-.25-.08-.38.01.09.01.16.02.24.01" id="path248" fill="#00f"/><path class="st0" d="M118.14 13.4c-.06.06-.12.13-.18.19.15-.06.3-.15.38-.24-.06.03-.13.04-.2.05" id="path250" fill="#00f"/><path class="st0" d="M117.78 13.62c.04-.05.08-.11.13-.16a.55.55 0 0 0-.29.19c.04.01.09.01.15 0-.01-.01 0-.02.01-.03" id="path252" fill="#00f"/><path class="st0" d="M117.61 11.97c-.08.03-.17.07-.25.12-.02.01-.04.01-.05.01-.05.03-.1.06-.14.09.13-.07.26-.11.4-.14z" id="path254" fill="#00f"/><path class="st0" d="M118.48 11.84h-.03c-.03.05-.07.1-.11.15.24-.02.46-.07.61-.23-.15.05-.33.06-.47.08" id="path256" fill="#00f"/><path class="st0" d="M118.84 11.63c-.06.02-.12.03-.19.05 0 .01 0 .02-.01.03.06-.01.12-.02.17-.04.02-.02.03-.03.03-.04" id="path258" fill="#00f"/><path class="st0" d="M122.79 22.11c.11-.07.22-.15.32-.23h.01c.03-.03.07-.06.1-.1.07-.11.14-.22.22-.32l-.01-.01c.01 0 .01 0 .01-.01.04-.05.09-.1.14-.15-.12-.02-.28.05-.32.17-.44.2-.75.59-1.03.91.03-.01.07-.03.11-.04 0-.01.01-.03.03-.03.14-.07.28-.12.42-.19" id="path260" fill="#00f"/><path class="st0" d="M118.32 11.16c.46-.12 1.06-.07 1.22-.37-.41.14-.85.16-1.22.37" id="path262" fill="#00f"/><path class="st0" d="M119.49 10.5c-.05-.02-.1-.05-.14-.07-.3.04-.54.19-.76.38.12-.05.25-.09.38-.12v-.01c.09-.02.18-.05.27-.07.01-.02.02-.04.05-.04.07-.01.14-.04.2-.07" id="path264" fill="#00f"/><path class="st0" d="M120.57 17.55c.14-.09.27-.19.39-.31.04-.04.1 0 .1.04.12-.18.24-.36.37-.55-.56.07-.74.44-.86.82" id="path266" fill="#00f"/><path class="st0" d="M120.8 17.75c.06-.13.12-.25.2-.37-.15.14-.31.26-.49.36-.02.09-.05.17-.08.25.05-.02.11-.07.17-.11.04-.04.07-.08.1-.12.03-.04.07-.04.1-.01" id="path268" fill="#00f"/><path class="st0" d="M118.89 12.93c-.05.01-.12.01-.19.02-.08.06-.17.12-.25.19.18-.02.35-.03.44-.21" id="path270" fill="#00f"/><path class="st0" d="M118.13 13.18a.31.31 0 0 1 .08-.02c.08-.07.16-.13.24-.19-.14.02-.26.08-.32.21" id="path272" fill="#00f"/><path class="st0" d="M123.55 22.03c.1-.08.19-.17.29-.26.01-.01.02-.01.03-.02l.03-.03c.08-.1.17-.19.27-.27-.43.03-1.06.57-1.27.95.2-.11.4-.22.58-.37.02-.02.05-.02.07 0" id="path274" fill="#00f"/><path class="st0" d="M124.1 23.81c-.06.04-.12.1-.16.17.03.01.07.03.1.04 0-.04.02-.08.07-.08h.12c.07-.05.14-.11.19-.17h-.26c-.02.03-.04.04-.06.04" id="path276" fill="#00f"/><path class="st0" d="M118.55 12.69c-.01.01-.01.02 0 .03.08-.02.17-.02.27-.02.01-.01.02-.01.03-.02.04-.03.08-.06.12-.08-.15.02-.29.06-.42.09" id="path278" fill="#00f"/><path class="st0" d="M119.51 12.5l-.26.03c-.06.05-.13.1-.19.15.17 0 .34-.04.45-.18" id="path280" fill="#00f"/><path class="st0" d="M117.98 9.34c-.28.09-.77.18-.83.47.27-.05.78-.2.83-.47" id="path282" fill="#00f"/><path class="st0" d="M124.17 21.96c.01 0 .01 0 0 0 .12-.15.24-.29.36-.44-.21.07-.4.22-.58.4 0 .01-.01.02-.01.03-.06.07-.13.14-.21.21-.08.1-.16.19-.23.28.15-.1.31-.2.46-.31.07-.05.14-.14.21-.17" id="path284" fill="#00f"/><path class="st0" d="M123.55 17.52h.23l.26-.32c-.02 0-.04 0-.07.01-.08.01-.11-.12-.02-.13.07-.01.14-.02.2-.02l.27-.33c-.19-.18-.4-.01-.57.17-.05.22-.16.42-.3.62" id="path286" fill="#00f"/><path class="st0" d="M122 19.16l.21-.03c.07-.03.13-.09.21-.15.1-.09.2-.18.3-.28-.12 0-.24.01-.36.01-.15.14-.28.29-.4.44.02 0 .03.01.04.01" id="path288" fill="#00f"/><path class="st0" d="M122.5 18.57c.12 0 .23-.01.35-.01.12-.12.24-.25.35-.37h-.29c-.13.13-.27.26-.41.38" id="path290" fill="#00f"/><path class="st0" d="M123.06 18.06h.26l.36-.42h-.23c-.11.14-.25.28-.39.42" id="path292" fill="#00f"/><path class="st0" d="M124.89 23.97c.07-.05.13-.1.19-.15l-.32-.03c-.08.04-.16.1-.22.16.12.01.23.02.35.02" id="path294" fill="#00f"/><path class="st0" d="M119.03 12.28c.04-.06.08-.11.12-.16-.15.04-.26.12-.33.26.07-.02.13-.03.19-.04.01-.02.01-.04.02-.06" id="path296" fill="#00f"/><path class="st0" d="M119.36 12.08c-.06.08-.12.15-.18.23.05 0 .1-.01.15-.01l.27-.24c-.08 0-.16.01-.24.02" id="path298" fill="#00f"/><path class="st0" d="M119.55 12.28c.21-.03.43-.08.65-.23-.11.01-.25.01-.4.01l-.25.22" id="path300" fill="#00f"/><path class="st0" d="M123.96 22.52c.54-.11.76-.68 1.12-1-.56.05-.86.65-1.12 1" id="path302" fill="#00f"/><path class="st0" d="M118.42 10.06c-.04.01-.07.02-.1.03-.04.07-.08.15-.12.22.1-.05.19-.17.22-.25" id="path304" fill="#00f"/><path class="st0" d="M117.64 9.24c.22-.1.62-.13.68-.36-.23.08-.62.12-.68.36" id="path306" fill="#00f"/><path class="st0" d="M124.03 21.05c.09-.03.18-.07.27-.11-.09-.01-.18-.01-.28-.01l-.21.12c.08-.01.15 0 .22 0" id="path308" fill="#00f"/><path class="st0" d="M124.92 20.65c-.12 0-.23-.01-.35-.01-.11.06-.22.11-.32.17.1.01.21.01.31.02l.36-.18" id="path310" fill="#00f"/><path class="st0" d="M126.39 19.69h-.03l-.31.17c-.04.02-.08.05-.12.07.1 0 .21.01.31.01.16-.08.32-.16.49-.23-.12 0-.23-.01-.34-.02" id="path312" fill="#00f"/><path class="st0" d="M126.59 19.58c.12.01.24.02.36.04.28-.11.56-.19.83-.24-.26-.18-.75-.02-1.19.2" id="path314" fill="#00f"/><path class="st0" d="M125.79 20.18c.07-.04.14-.08.21-.11-.1 0-.2-.01-.3-.01-.07.04-.14.08-.21.11.1 0 .2.01.3.01" id="path316" fill="#00f"/><path class="st0" d="M125.14 20.53c.14-.07.28-.15.42-.22h-.33l-.42.21c.11 0 .22.01.33.01" id="path318" fill="#00f"/><path class="st0" d="M125.56 24.01c.04-.04.08-.08.11-.12l-.24-.03c-.07.04-.14.08-.2.13.11.01.22.01.33.02" id="path320" fill="#00f"/><path class="st0" d="M119.87 11.82l.12-.11c-.12.01-.23.02-.35.04-.03.03-.05.06-.08.09.11-.01.21-.02.31-.02" id="path322" fill="#00f"/><path class="st0" d="M119.11 11.88c.09-.02.18-.03.27-.04.02-.02.04-.05.06-.07l-.34.06c.01.03 0 .03.01.05" id="path324" fill="#00f"/><path class="st0" d="M120.1 11.79l-.02.02c.21-.02.41-.06.6-.14l-.46.03c-.05.02-.08.05-.12.09" id="path326" fill="#00f"/><path class="st0" d="M125.29 21.89c.04-.03.09-.01.11.03.15-.17.33-.34.44-.53-.64.08-1.01.74-1.34 1.13h.02c0-.02.01-.03.03-.04.29-.13.52-.36.74-.59" id="path328" fill="#00f"/><path class="st0" d="M118.46 9.84c.22-.05.43-.2.46-.37-.09 0-.18.02-.26.05v.01c-.08.09-.14.2-.2.31" id="path330" fill="#00f"/><path class="st0" d="M124.97 23.14l.35-.06c.01-.01.02-.02.03-.04-.1-.04-.3 0-.38.1" id="path332" fill="#00f"/><path class="st0" d="M119.87 11.32c-.13.04-.26.09-.39.15.07 0 .15.01.23.01.06-.05.11-.1.16-.16" id="path334" fill="#00f"/><path class="st0" d="M120.54 11.24h-.08c-.12 0-.23.01-.34.03-.08.07-.15.15-.23.22h.36c.1-.09.19-.17.29-.25" id="path336" fill="#00f"/><path class="st0" d="M121.36 11.16c-.02 0-.04 0-.07.01-.18.04-.36.06-.55.06-.09.08-.18.16-.27.23.31-.03.62-.11.89-.3" id="path338" fill="#00f"/><path class="st0" d="M118.63 8.39c-.23.06-.59.1-.6.35.2-.06.58-.13.6-.35" id="path340" fill="#00f"/><path class="st0" d="M126.19 24.03c.03-.03.06-.05.08-.08l-.32-.03c-.04.03-.07.06-.11.1.12 0 .23.01.35.01" id="path342" fill="#00f"/><path class="st0" d="M124.77 21.06c.07-.03.15-.06.23-.09-.08 0-.16-.01-.23-.01-.06.03-.12.07-.18.1h.18" id="path344" fill="#00f"/><path class="st0" d="M125.94 20.32c-.14.07-.28.15-.42.23.12 0 .23.01.35.01.13-.07.27-.14.4-.21-.12-.02-.22-.03-.33-.03" id="path346" fill="#00f"/><path class="st0" d="M126.16 20.2c.11.01.21.01.32.02.08-.04.15-.08.23-.12-.11-.01-.21-.02-.32-.02-.08.04-.15.08-.23.12" id="path348" fill="#00f"/><path class="st0" d="M126.63 19.97l.31.03c.13-.06.27-.12.4-.18-.08-.02-.16-.04-.24-.05-.15.06-.31.13-.47.2" id="path350" fill="#00f"/><path class="st0" d="M128 19.5c-.23.04-.45.11-.68.19l.22.06c.19-.07.38-.12.56-.14-.03-.06-.07-.06-.1-.11" id="path352" fill="#00f"/><path class="st0" d="M125.63 20.67c-.11 0-.22-.01-.33-.01l-.33.18c.1 0 .2 0 .29.01.13-.06.25-.12.37-.18" id="path354" fill="#00f"/><path class="st0" d="M125.06 22.47c.69-.28 1.25-.83 1.74-1.34-.88.12-1.19.93-1.74 1.34" id="path356" fill="#00f"/><path class="st0" d="M119.24 8.92c-.23.05-.4.24-.5.39.27-.03.46-.18.5-.39" id="path358" fill="#00f"/><path class="st0" d="M119.56 10.11c.03-.02.06-.05.08-.08-.15.02-.32.07-.44.16.11-.02.23.01.35.01-.01-.02-.02-.06.01-.09" id="path360" fill="#00f"/><path class="st0" d="M119.9 10.04c-.03-.01-.06-.01-.09-.01-.05.06-.1.12-.16.18.1-.02.18-.06.25-.17" id="path362" fill="#00f"/><path class="st0" d="M120.54 10.71h-.05c-.09.04-.17.09-.26.13-.02.01-.05.03-.07.04h.18c.07-.05.14-.11.2-.17" id="path364" fill="#00f"/><path class="st0" d="M120.73 10.72c-.07.06-.14.12-.2.18.03 0 .06.01.09.01.1 0 .2.01.3.01.09-.07.17-.14.26-.22-.14-.01-.28-.01-.42 0-.01 0-.02.01-.03.02" id="path366" fill="#00f"/><path class="st0" d="M121.12 10.91c.28-.01.55-.04.82-.14-.17-.02-.37-.05-.58-.06-.01.01-.02.01-.02.02-.07.06-.15.12-.22.18" id="path368" fill="#00f"/><path class="st0" d="M125.76 23.05c.09 0 .18-.01.28-.01 0-.01.01-.02.01-.03-.07.04-.19.03-.29.04" id="path370" fill="#00f"/><path class="st0" d="M120.48 12.6c.01.02.02.04.03.07.08-.04.14-.09.13-.16-.06.02-.12.05-.16.09" id="path372" fill="#00f"/><path class="st0" d="M118.97 7.94c-.15.01-.49.1-.53.27.17-.01.5-.08.53-.27" id="path374" fill="#00f"/><path class="st0" d="M126.53 23.97c-.02.02-.04.04-.05.06.01 0 .02-.01.03-.01.03-.01.05 0 .06.02.08 0 .16.01.24.01.03-.02.06-.04.08-.06-.11-.01-.22-.01-.33-.02h-.03" id="path376" fill="#00f"/><path class="st0" d="M127.07 23.84a.374.374 0 0 0-.37.01c.12.01.23.01.35.02 0-.01.01-.02.02-.03" id="path378" fill="#00f"/><path class="st0" d="M126.97 21.7c.09-.06.17-.13.25-.2 0-.01.01-.02.02-.03.11-.09.22-.18.32-.28.02-.02.04-.02.05-.02.13-.12.26-.24.38-.36-.75-.01-1.22.65-1.75 1.08.04.01.09-.04.13-.02-.3.17-.52.36-.77.55.45-.09.93-.58 1.37-.72" id="path380" fill="#00f"/><path class="st0" d="M120.81 10.39c-.04.04-.09.07-.14.1h.14l.12-.09c-.04-.01-.08-.01-.12-.01" id="path382" fill="#00f"/><path class="st0" d="M121.42 10.49c.01 0 .01 0 0 0a.7.7 0 0 1 .1-.08h-.09c-.1 0-.21 0-.32-.01-.03.03-.07.05-.1.08.14 0 .28.01.41.01" id="path384" fill="#00f"/><path class="st0" d="M122.41 10.56c.01-.02.01-.04.01-.05-.22-.1-.47-.1-.71-.1-.04.03-.07.07-.11.1.28 0 .55.03.81.05" id="path386" fill="#00f"/><path class="st0" d="M126.44 20.66c-.09.01-.18.01-.28.01-.1.05-.19.1-.29.15.11-.01.21-.02.32-.04.09-.04.17-.08.25-.12" id="path388" fill="#00f"/><path class="st0" d="M126.43 20.53l.34-.03c.06-.03.13-.06.19-.09l-.22-.03c-.1.05-.2.1-.31.15" id="path390" fill="#00f"/><path class="st0" d="M126.96 20.28l.22.03c.09-.04.18-.08.27-.11l-.22-.03c-.1.03-.18.07-.27.11" id="path392" fill="#00f"/><path class="st0" d="M127.45 20.06c.08.01.15.03.23.04.08-.03.16-.06.24-.08-.06-.03-.12-.05-.18-.07-.09.04-.19.07-.29.11" id="path394" fill="#00f"/><path class="st0" d="M128.5 19.95a.48.48 0 0 0-.19-.16c-.12.03-.25.06-.37.1.06.03.13.06.19.09.13-.03.25-.04.37-.03" id="path396" fill="#00f"/><path class="st0" d="M125.75 20.99c.02-.01.04-.02.07-.03-.07.01-.15.01-.22.01-.03.02-.06.03-.1.05l.25-.03" id="path398" fill="#00f"/><path class="st0" d="M119.63 9.81c.06.01.12.01.17.02.05-.07.1-.15.16-.22-.13.03-.25.1-.33.2" id="path400" fill="#00f"/><path class="st0" d="M119.93 9.85c.18.01.35-.02.48-.22a.847.847 0 0 0-.29-.04c-.07.08-.13.15-.18.24z" id="path402" fill="#00f"/><path class="st0" d="M119.16 8.77c.11-.03.32-.11.31-.22-.14.01-.3.08-.31.22" id="path404" fill="#00f"/><path class="st0" d="M118.8 7.77c.24-.04.51-.15.58-.35-.21.04-.56.14-.58.35" id="path406" fill="#00f"/><path class="st0" d="M126.31 23.17c.08.03.17.02.25 0h-.25c.01 0 .01 0 0 0" id="path408" fill="#00f"/><path class="st0" d="M126.45 23.04c.12 0 .25.01.37.01l.19-.13c-.15-.06-.4 0-.56.12" id="path410" fill="#00f"/><path class="st0" d="M125.26 18.96c-.02 0-.03 0-.05-.01-.05.05-.1.1-.16.14.07-.04.14-.08.21-.13" id="path412" fill="#00f"/><path class="st0" d="M125.53 18.6c-.07.09-.14.17-.21.25.02.01.02.03.02.06.12-.08.23-.17.34-.26-.05-.02-.1-.04-.15-.05" id="path414" fill="#00f"/><path class="st0" d="M125.88 18.22l-.13.13c-.03.03-.06.06-.1.09-.01.02-.03.04-.04.06.05.01.1.03.16.05.01 0 .02.01.02.01.1-.08.2-.17.29-.26-.06-.04-.13-.06-.2-.08" id="path416" fill="#00f"/><path class="st0" d="M126.25 17.82c.04.02.09.05.13.07.07.05 0 .15-.07.11-.05-.03-.1-.06-.15-.08-.06.06-.12.13-.18.19.07.02.14.05.21.08.18-.18.36-.36.52-.54-.09-.02-.18-.03-.27-.04-.07.07-.13.14-.19.21" id="path418" fill="#00f"/><path class="st0" d="M126.8 17.54c.07-.08.14-.17.21-.25-.15.01-.3.09-.44.21.08.01.15.02.23.04" id="path420" fill="#00f"/><path class="st0" d="M119.8 9.37c.08-.04.23-.12.26-.21-.14-.06-.22.13-.26.21" id="path422" fill="#00f"/><path class="st0" d="M127.13 24.06h.28c.02-.02.05-.04.07-.05-.1 0-.19 0-.29-.01l-.06.06" id="path424" fill="#00f"/><path class="st0" d="M127.65 23.88c-.1-.07-.2-.05-.29 0h.29" id="path426" fill="#00f"/><path class="st0" d="M122.4 10.13c-.08-.04-.16-.07-.25-.1-.03.02-.06.05-.09.07.11.02.23.03.34.03" id="path428" fill="#00f"/><path class="st0" d="M121.44 9.94c-.06 0-.13-.01-.21-.01-.07.05-.13.1-.2.14h.31c.05-.04.1-.08.16-.12-.02-.01-.04-.01-.06-.01" id="path430" fill="#00f"/><path class="st0" d="M121.88 10.09c.04-.03.07-.06.11-.09-.1-.02-.21-.03-.31-.04l-.15.12c.12 0 .23.01.35.01" id="path432" fill="#00f"/><path class="st0" d="M119.53 8.28c.12 0 .25-.05.31-.15-.1-.06-.31.03-.31.15" id="path434" fill="#00f"/><path class="st0" d="M120.12 9.39h.02c.08-.09.17-.17.25-.25-.12.05-.22.13-.27.25" id="path436" fill="#00f"/><path class="st0" d="M121.01 9.14c-.1-.03-.24-.05-.38-.04-.01.01-.03.02-.04.04l-.3.27c.19 0 .39-.06.58-.13.05-.04.1-.08.14-.14" id="path438" fill="#00f"/><path class="st0" d="M120.04 8.95c.06-.03.12-.05.18-.06a.7.7 0 0 1 .08-.1c-.13.02-.25.06-.26.16" id="path440" fill="#00f"/><path class="st0" d="M119.65 7.03c-.15.01-.4.01-.43.19.15-.02.42-.01.43-.19" id="path442" fill="#00f"/><path class="st0" d="M125.26 19.59c.37-.16.77-.43 1.17-.55-.37-.04-.84.32-1.17.55" id="path444" fill="#00f"/><path class="st0" d="M127.16 23.07c.07 0 .13.01.2.01.1-.06.19-.12.28-.17-.14-.1-.35.03-.48.16" id="path446" fill="#00f"/><path class="st0" d="M127.76 24.07h.19c.02-.02.05-.04.07-.06h-.22l-.06.06z" id="path448" fill="#00f"/><path class="st0" d="M119.78 7.9c.14-.02.35-.04.34-.21-.15-.02-.34.05-.34.21" id="path450" fill="#00f"/><path class="st0" d="M120.98 9.66c.04-.03.08-.05.12-.07-.06.02-.13.04-.19.07h.07" id="path452" fill="#00f"/><path class="st0" d="M121.43 9.67c.12 0 .25.01.37.02.03-.03.06-.05.09-.08-.07-.02-.15-.04-.23-.05-.07.04-.14.08-.21.1-.01.01-.02.01-.02.01" id="path454" fill="#00f"/><path class="st0" d="M127.2 21.89c-.05.03-.09.06-.14.1-.03.03-.06.05-.08.08l-.04.04c.09-.07.18-.13.27-.2 0 0-.01-.01-.01-.02" id="path456" fill="#00f"/><path class="st0" d="M128.78 20.64c-.54.02-.79.52-1.18.81h.01c.07-.06.21-.11.26-.14.17-.09.34-.17.49-.26.02-.01.03-.01.04-.01.13-.13.28-.26.38-.4" id="path458" fill="#00f"/><path class="st0" d="M128 21.51c-.23.17-.46.32-.69.49.3-.12.63-.28.72-.48-.01 0-.02-.01-.03-.01" id="path460" fill="#00f"/><path class="st0" d="M119.97 6.62c-.12 0-.27 0-.37.05-.03.03-.06.05-.09.08-.02.02-.03.05-.03.09.11.01.25-.06.36-.03.03-.07.13-.11.13-.19" id="path462" fill="#00f"/><path class="st0" d="M120.82 8.9c.19.04.37.13.52-.05-.1-.03-.24-.09-.38-.11-.05.06-.09.11-.14.16" id="path464" fill="#00f"/><path class="st0" d="M120.4 8.44l.02.03c.05-.02.1-.02.14-.01.06-.06.12-.12.18-.19a.408.408 0 0 0-.34.17" id="path466" fill="#00f"/><path class="st0" d="M127.69 23.11c.09.01.18.01.27.02h.05c.09-.04.17-.1.23-.18-.15-.05-.4.02-.55.16" id="path468" fill="#00f"/><path class="st0" d="M120.06 7.5c.16-.01.36-.02.37-.21-.14.01-.38.02-.37.21" id="path470" fill="#00f"/><path class="st0" d="M129.38 21.35c-.07 0-.13.01-.2.01-.04.01-.07.03-.11.04-.26.1-.51.22-.75.34.12-.02.24-.03.36-.04.23-.12.46-.24.7-.35" id="path472" fill="#00f"/><path class="st0" d="M129.67 21.21c.21-.09.41-.19.61-.28l-.25.03c-.18.09-.35.18-.54.26.07 0 .13-.01.18-.01" id="path474" fill="#00f"/><path class="st0" d="M131.47 20.33c-.31.08-.69.26-1.1.47.07-.01.15-.01.22-.01.3-.15.6-.3.88-.46" id="path476" fill="#00f"/><path class="st0" d="M127.59 22.17c-.08.05-.17.11-.24.16-.01 0-.01.01 0 .02.19.03.45-.1.72-.26-.17.01-.32.04-.48.08" id="path478" fill="#00f"/><path class="st0" d="M128.42 21.86c-.16.03-.33.06-.48.1-.01 0-.01.01-.02.01.13-.02.25-.03.38-.04.04-.02.08-.04.12-.07" id="path480" fill="#00f"/><path class="st0" d="M128.63 24.06c.04-.02.07-.05.09-.08-.12.01-.24.02-.36.02a.17.17 0 0 0-.06.06h.33" id="path482" fill="#00f"/><path class="st0" d="M120.17 6.29c-.07-.03-.32 0-.31.12.08 0 .16-.03.23 0 .03-.03.08-.07.08-.12" id="path484" fill="#00f"/><path class="st0" d="M120.74 8c-.01.02-.03.05-.02.08.07-.01.14-.01.21 0l.11-.11c-.11.02-.21.03-.3.03" id="path486" fill="#00f"/><path class="st0" d="M121.09 8.11c.02 0 .04.01.06.01.16-.06.32-.12.49-.16-.12-.02-.26-.02-.39-.01l-.16.16" id="path488" fill="#00f"/><path class="st0" d="M121.3 8.47c-.07.04-.13.09-.19.14.22.03.38.22.66.01-.1-.12-.3-.18-.47-.15" id="path490" fill="#00f"/><path class="st0" d="M120.35 7.1c.16.01.33-.03.36-.2-.08.02-.16.02-.24.02-.04.06-.12.1-.12.18" id="path492" fill="#00f"/><path class="st0" d="M122.33 9.27s0-.01-.01-.01c-.02-.13-.68-.13-.84-.04.29.01.56.06.85.05" id="path494" fill="#00f"/><path class="st0" d="M128.33 23.16c.07.01.14.01.22.02.1-.05.2-.12.28-.19-.16-.08-.37.03-.5.17" id="path496" fill="#00f"/><path class="st0" d="M120.96 7.77c.1-.03.2-.04.31-.03.04-.05.09-.09.14-.14-.18 0-.34.04-.45.17" id="path498" fill="#00f"/><path class="st0" d="M121.76 7.8c.08-.05.15-.09.22-.15-.13-.01-.27-.03-.41-.04l-.14.14c.11.02.23.04.33.05" id="path500" fill="#00f"/><path class="st0" d="M122.29 7.62c-.03.01-.06.01-.08.02-.06.05-.12.1-.18.14.09-.02.18-.07.26-.16" id="path502" fill="#00f"/><path class="st0" d="M120.15 6.06c.17.02.31-.07.38-.21-.12-.1-.39.07-.38.21" id="path504" fill="#00f"/><path class="st0" d="M128.3 22.3c.22-.05.44-.13.67-.23-.09-.01-.18-.01-.26-.01-.14.08-.27.16-.41.24" id="path506" fill="#00f"/><path class="st0" d="M129.14 21.8c-.03.02-.07.04-.1.06.09.01.19.03.28.05l.24-.12c-.14 0-.28 0-.42.01" id="path508" fill="#00f"/><path class="st0" d="M130.29 21.39c-.1-.01-.19-.03-.29-.04-.05.02-.1.05-.15.07-.17.08-.34.16-.51.25.14 0 .28 0 .42.01.18-.09.35-.19.53-.29" id="path510" fill="#00f"/><path class="st0" d="M130.59 21.22c.17-.1.35-.2.52-.3-.07-.01-.14-.01-.21-.01-.19.1-.38.2-.58.3.08 0 .17.01.27.01" id="path512" fill="#00f"/><path class="st0" d="M131.63 20.63c-.07.02-.14.05-.18.06-.03.01-.06-.01-.07-.04-.09.05-.18.1-.28.15.06 0 .13.01.19.02.11-.06.23-.13.34-.19" id="path514" fill="#00f"/><path class="st0" d="M129.26 24.03c.08-.03.15-.07.2-.12-.13.01-.26.03-.39.04-.04.02-.07.06-.09.1.09-.01.19-.01.28-.02" id="path516" fill="#00f"/><path class="st0" d="M128.41 20.42c-.29.01-.71.24-.92.44.33-.06.7-.2.92-.44" id="path518" fill="#00f"/><path class="st0" d="M120.65 6.71c.12-.01.37.05.4-.12-.14.03-.39-.07-.4.12" id="path520" fill="#00f"/><path class="st0" d="M122.19 8.35c-.18-.09-.35-.21-.62-.05.2.09.4.33.62.05" id="path522" fill="#00f"/><path class="st0" d="M121.93 8.78c-.03.02-.06.05-.08.08.09.03.18.03.28.03 0-.02.01-.03.02-.05.01-.01.01-.01.02-.01h-.01c-.04-.01-.08-.01-.12-.01-.04-.01-.07-.01-.11-.04.01 0 .01 0 0 0" id="path524" fill="#00f"/><path class="st0" d="M128.92 23.2c.05 0 .1.01.15.01.14-.03.29-.12.38-.23-.18-.03-.37.09-.53.22" id="path526" fill="#00f"/><path class="st0" d="M121.31 7.36c.01 0 .02.01.02.02.01 0 .02 0 .02.01.08.01.16.01.24.03.05-.05.1-.1.15-.14-.15 0-.29.03-.43.08" id="path528" fill="#00f"/><path class="st0" d="M122.45 7.25c-.16 0-.33-.01-.5 0-.06.06-.13.12-.19.18.02 0 .04 0 .06.01.02 0 .04 0 .06.01.13.01.25.01.36 0 .07-.07.14-.14.21-.2" id="path530" fill="#00f"/><path class="st0" d="M122.47 7.41c.08-.02.17-.03.26-.05.05-.03.11-.05.16-.09-.09 0-.17 0-.26-.01-.06.05-.11.1-.16.15" id="path532" fill="#00f"/><path class="st0" d="M120.83 6.39c.19-.01.55.08.59-.2-.2-.01-.53-.07-.59.2" id="path534" fill="#00f"/><path class="st0" d="M128.24 21.56c.07-.02.17-.04.22-.09-.04-.06-.23.03-.22.09" id="path536" fill="#00f"/><path class="st0" d="M120.83 5.41c-.11-.06-.22.11-.25.19.13.03.23-.09.25-.19" id="path538" fill="#00f"/><path class="st0" d="M129.74 23.99l.25-.03c.08-.04.15-.09.2-.16-.15-.05-.41.03-.49.19.01.01.03.01.04 0" id="path540" fill="#00f"/><path class="st0" d="M128.48 21.43c.02 0 .05 0 .08-.01 0-.02.01-.04.03-.05.06-.03.14-.06.21-.08-.09-.01-.29.04-.32.14" id="path542" fill="#00f"/><path class="st0" d="M122.12 6.91c-.22.01-.43.06-.6.15.15-.01.3-.01.45 0 .05-.06.1-.1.15-.15" id="path544" fill="#00f"/><path class="st0" d="M122.63 7.06c.04-.04.08-.08.12-.13-.14-.02-.29-.03-.44-.03-.05.05-.1.1-.16.15.16.01.32.01.48.01" id="path546" fill="#00f"/><path class="st0" d="M122.81 7.06c.19 0 .38-.02.57-.05-.03 0-.07-.01-.1-.01h-.04c-.11-.01-.22-.03-.34-.04-.03.03-.06.06-.09.1" id="path548" fill="#00f"/><path class="st0" d="M127.4 18.46c-.08.06-.16.11-.23.16.12-.03.24-.08.37-.15-.04 0-.08-.01-.11-.01-.01.01-.02 0-.03 0" id="path550" fill="#00f"/><path class="st0" d="M127.56 18.35l.17.03c.09-.05.19-.11.28-.16-.06-.02-.12-.03-.18-.05-.09.05-.18.11-.27.18" id="path552" fill="#00f"/><path class="st0" d="M128.15 18.12c.07-.05.14-.09.21-.14-.05-.01-.1-.03-.15-.04-.07.04-.15.08-.23.12.05.02.11.04.17.06" id="path554" fill="#00f"/><path class="st0" d="M123.53 11.12c.17-.02.33-.01.49 0 .04-.06.1-.11.16-.14-.23-.03-.45-.03-.65.14" id="path556" fill="#00f"/><path class="st0" d="M124.25 11.09c-.01 0-.02.01-.03.02.05-.01.1-.02.14-.03l.01-.01.01-.01c.02-.01.04-.01.06 0l.15-.03c-.11 0-.22-.02-.34-.03.04.02.04.07 0 .09" id="path558" fill="#00f"/><path class="st0" d="M129.39 22.1c-.14.08-.27.16-.4.24.2-.05.42-.12.64-.21-.02 0-.04-.01-.05-.01-.06 0-.12-.01-.19-.02" id="path560" fill="#00f"/><path class="st0" d="M129.64 21.97c.1.01.2.03.31.04.13-.06.26-.12.4-.18-.13-.01-.27-.01-.4-.02-.11.05-.21.1-.31.16" id="path562" fill="#00f"/><path class="st0" d="M130.64 21.44c-.17.09-.33.17-.5.26.14.01.29.01.43.02.16-.08.32-.16.47-.24-.14-.01-.27-.02-.4-.04" id="path564" fill="#00f"/><path class="st0" d="M131.82 21.06c-.05-.01-.1-.03-.14-.04-.06-.01-.11-.03-.17-.04-.17.09-.34.18-.52.28.12.01.25.03.37.05.15-.08.31-.16.46-.25" id="path566" fill="#00f"/><path class="st0" d="M132.28 20.82c-.03-.07-.15-.11-.22-.14-.12.07-.24.14-.37.21.1.02.2.05.31.08.09-.05.18-.1.28-.15" id="path568" fill="#00f"/><path class="st0" d="M123.53 10.28c.02-.05.04-.11.05-.16-.1-.01-.19-.01-.29-.02-.03.01-.05.03-.08.04l.01.01c-.01-.02 0 0 .01 0 .01.01.02.01.03.02.03.02.07.03.1.05.06.02.11.04.17.06" id="path570" fill="#00f"/><path class="st0" d="M123.71 10.12c-.01.07-.03.13-.06.2.07 0 .14.01.21.01.01-.01.02-.01.03-.01.03-.05.05-.12.07-.18-.08-.01-.17-.01-.25-.02" id="path572" fill="#00f"/><path class="st0" d="M124.04 10.34h.24c.03-.05.05-.1.08-.15l-.25-.03c-.03.06-.05.12-.07.18" id="path574" fill="#00f"/><path class="st0" d="M124.43 10.32c0 .01.01.01.01.02h.15c.02-.03.04-.07.06-.1l-.17-.03c-.02.03-.03.07-.05.11" id="path576" fill="#00f"/><path class="st0" d="M125.02 10.33c-.08-.02-.16-.05-.24-.06-.01.02-.03.04-.04.07.09-.01.19-.01.28-.01" id="path578" fill="#00f"/><path class="st0" d="M121.14 5.97c.14-.04.35.04.49-.01l.11-.17h-.5c-.01.07-.13.1-.1.18" id="path580" fill="#00f"/><path class="st0" d="M129.57 23.14c.09.1.32-.08.4-.15-.15-.07-.28.04-.4.15" id="path582" fill="#00f"/><path class="st0" d="M121.05 5.04c-.06.01-.12.09-.12.15.08 0 .11-.09.12-.15" id="path584" fill="#00f"/><path class="st0" d="M127.67 18.68l.06.03c.1-.03.2-.07.29-.11-.05-.02-.1-.04-.14-.05-.07.05-.14.09-.21.13" id="path586" fill="#00f"/><path class="st0" d="M128.01 18.46c.05.02.1.04.16.06.09-.05.17-.11.26-.16-.06-.03-.12-.05-.18-.07-.08.06-.16.11-.24.17" id="path588" fill="#00f"/><path class="st0" d="M128.55 18.28c.07-.05.15-.09.22-.14-.03-.02-.06-.03-.08-.05-.02-.01-.04-.01-.06-.02-.08.04-.17.08-.25.14.06.02.11.05.17.07" id="path590" fill="#00f"/><path class="st0" d="M123.65 9.66c-.05-.01-.1-.01-.15-.02-.01.05-.02.1-.03.14.01 0 .01.01.02.01h.04c.05-.04.09-.08.12-.12v-.01" id="path592" fill="#00f"/><path class="st0" d="M123.77 9.73c0 .03-.01.06-.01.09l.27.03.03-.15-.26-.03c0 .01 0 .02-.01.03-.01.01-.01.02-.02.03" id="path594" fill="#00f"/><path class="st0" d="M124.19 9.73c0 .01-.01.03-.01.04-.01.03-.01.07-.02.11.1.01.2.03.3.03.02-.05.03-.09.05-.14-.1-.01-.21-.03-.32-.04" id="path596" fill="#00f"/><path class="st0" d="M124.6 9.92c.07 0 .14.01.21.01.02-.03.03-.07.05-.1l-.21-.03c-.02.04-.04.08-.05.12" id="path598" fill="#00f"/><path class="st0" d="M125.13 9.92c.03 0 .05.01.07.03.01-.02.01-.04.01-.06-.07-.01-.15-.03-.22-.04-.01.02-.02.05-.04.08.06 0 .12-.01.18-.01" id="path600" fill="#00f"/><path class="st0" d="M123.68 9.42c.01-.07.03-.14.05-.2-.05-.01-.1-.01-.16-.02l-.03.2c.05.01.09.02.14.02" id="path602" fill="#00f"/><path class="st0" d="M123.86 9.24c-.02.07-.04.13-.05.2.1.01.21.03.31.04.02-.06.04-.13.06-.19-.11-.01-.22-.03-.32-.05" id="path604" fill="#00f"/><path class="st0" d="M124.31 9.32l-.06.18.34.04c.02-.06.04-.11.05-.17-.11-.01-.22-.03-.33-.05" id="path606" fill="#00f"/><path class="st0" d="M124.72 9.57c.06.01.12.02.18.02.02-.01.04-.01.06-.02.02-.05.03-.09.05-.14l-.24-.03c-.02.06-.03.11-.05.17" id="path608" fill="#00f"/><path class="st0" d="M125.35 9.49v-.02c-.07 0-.14-.01-.2-.01-.01.03-.02.06-.03.08.07-.02.15-.03.23-.05" id="path610" fill="#00f"/><path class="st0" d="M121.44 5.59c.12-.03.3.03.42 0 .03-.06.07-.12.1-.17-.17.01-.49-.07-.52.17" id="path612" fill="#00f"/><path class="st0" d="M128 18.87c.01.01.03.02.04.02.11-.04.21-.09.32-.14-.02-.01-.05-.02-.07-.03-.1.06-.19.11-.29.15" id="path614" fill="#00f"/><path class="st0" d="M128.41 18.64c.03.01.06.03.09.04.1-.05.19-.1.29-.16-.05-.02-.09-.04-.14-.06l-.24.18" id="path616" fill="#00f"/><path class="st0" d="M128.92 18.44c.07-.04.13-.08.2-.12-.05-.03-.11-.05-.16-.08-.06.04-.13.08-.19.13.05.03.1.05.15.07" id="path618" fill="#00f"/><path class="st0" d="M124.45 8.87c-.02.08-.04.16-.07.24.02 0 .04.01.06.01.01-.01.03-.01.05 0 .07.02.13.04.2.05h.01c.02-.08.05-.16.07-.24-.11-.02-.22-.04-.32-.06" id="path620" fill="#00f"/><path class="st0" d="M123.84 8.98c.01-.06.03-.12.04-.18-.05 0-.1-.01-.15-.01-.01.01-.03.01-.05.01-.03-.01-.08-.01-.12-.01-.01.03-.03.06-.04.09-.04.07-.14.01-.11-.06-.07.02-.14.06-.17.12l.24.03c.01-.08.14-.07.13.01v.01c.08.01.16.03.24.04-.01-.02-.01-.04-.01-.05" id="path622" fill="#00f"/><path class="st0" d="M123.96 9.04c.09.02.19.04.28.05.03-.08.05-.16.07-.24-.1-.01-.2-.03-.3-.04-.02.07-.04.14-.05.21.01.01 0 .01 0 .02" id="path624" fill="#00f"/><path class="st0" d="M124.83 9.19c.09 0 .17 0 .26-.01.02-.06.04-.11.05-.17-.08-.02-.16-.03-.24-.05-.02.07-.04.15-.07.23" id="path626" fill="#00f"/><path class="st0" d="M125.45 9.12h.03c0-.01 0-.03-.01-.04-.07-.02-.14-.03-.21-.05l-.03.12c.08 0 .15-.01.22-.03" id="path628" fill="#00f"/><path class="st0" d="M130.14 23.18c.13-.02.32 0 .4-.14-.11-.07-.36-.02-.4.14" id="path630" fill="#00f"/><path class="st0" d="M127.67 18c.01 0 .02 0 .03.01.16-.09.29-.18.43-.28a.076.076 0 0 0-.04-.02c-.02-.01-.03-.01-.05-.01-.04-.01-.07-.01-.11-.01-.06.11-.16.21-.27.3z" id="path632" fill="#00f"/><path class="st0" d="M131.55 21.46c-.19.09-.38.18-.58.27.13 0 .26.01.39.01.16-.08.32-.16.47-.24-.09-.01-.19-.02-.28-.04" id="path634" fill="#00f"/><path class="st0" d="M131.75 21.36l.28.03c.12-.06.23-.13.35-.19-.08-.02-.15-.03-.23-.05-.13.08-.26.15-.4.21" id="path636" fill="#00f"/><path class="st0" d="M132.71 21.02c-.03-.05-.15-.08-.21-.1-.06.05-.12.09-.19.13.09.02.17.04.26.05.04-.02.09-.05.14-.08" id="path638" fill="#00f"/><path class="st0" d="M129.79 22.35c.11-.02.23-.06.35-.09-.06 0-.12-.01-.19-.01-.05.04-.11.07-.16.1" id="path640" fill="#00f"/><path class="st0" d="M130.33 22.04c.11.01.23.02.34.02.15-.06.29-.13.44-.2-.13-.01-.26-.01-.39-.02-.13.07-.26.13-.39.2" id="path642" fill="#00f"/><path class="st0" d="M128.3 19.03c.04.02.09.04.14.07.11-.05.21-.1.32-.16-.05-.02-.1-.04-.15-.07-.1.06-.21.12-.31.16" id="path644" fill="#00f"/><path class="st0" d="M129.37 18.61l.21-.12c-.08-.02-.16-.05-.24-.07-.06.03-.13.07-.2.11.08.03.15.05.23.08" id="path646" fill="#00f"/><path class="st0" d="M128.74 18.79c.06.02.11.05.17.07.1-.05.2-.11.3-.16-.07-.03-.13-.05-.2-.08-.09.05-.18.11-.27.17" id="path648" fill="#00f"/><path class="st0" d="M122.09 5.22c.02-.06.11-.1.08-.18-.14-.04-.38-.01-.43.17.12-.01.23.02.35.01" id="path650" fill="#00f"/><path class="st0" d="M128.78 19.24c.13-.04.27-.09.4-.14-.05-.02-.11-.04-.16-.06-.1.07-.2.13-.29.18.01 0 .01.01.02.01.01.01.02.01.03.01" id="path652" fill="#00f"/><path class="st0" d="M129.16 18.95c.07.03.14.05.21.07.12-.05.24-.11.36-.17-.1-.02-.2-.05-.3-.08l-.27.18" id="path654" fill="#00f"/><path class="st0" d="M129.9 18.75c.05-.03.11-.07.15-.1-.05-.03-.1-.05-.15-.08-.03-.01-.06-.01-.09-.02-.08.03-.15.08-.23.12.11.03.22.05.32.08" id="path656" fill="#00f"/><path class="st0" d="M128.94 19.51c.05-.02.09-.04.14-.06-.05-.01-.1-.03-.14-.04-.03 0-.06.01-.1.01 0 .06.06.06.1.09" id="path658" fill="#00f"/><path class="st0" d="M129.27 19.38c.12-.05.24-.1.37-.14a.737.737 0 0 1-.14-.04c-.11.06-.21.12-.33.16.04 0 .07.01.1.02" id="path660" fill="#00f"/><path class="st0" d="M129.85 19.15c.14-.06.28-.12.4-.19-.1-.02-.19-.03-.29-.05-.1.07-.2.14-.31.2.07.01.14.02.2.04" id="path662" fill="#00f"/><path class="st0" d="M130.5 18.81c-.03 0-.05-.01-.08-.02l-.16.03.18.03c.02-.02.04-.03.06-.04" id="path664" fill="#00f"/><path class="st0" d="M123.02 5.88c-.21 0-.41.03-.59.13.16-.01.32-.01.49.01.03-.05.07-.1.1-.14" id="path666" fill="#00f"/><path class="st0" d="M123.18 5.88c-.04.05-.07.1-.11.15.11.01.21.03.31.04l.12-.15c-.1-.01-.22-.03-.32-.04" id="path668" fill="#00f"/><path class="st0" d="M123.59 6.11l.23.03.09-.12c-.07-.02-.14-.03-.21-.05-.05.05-.08.09-.11.14" id="path670" fill="#00f"/><path class="st0" d="M129.12 19.75c.14-.06.29-.11.43-.17-.05-.01-.09-.03-.14-.04-.12.05-.23.1-.34.15.02.04.05.03.05.06" id="path672" fill="#00f"/><path class="st0" d="M130.3 19.2c.05 0 .07.05.05.08.24-.1.47-.21.7-.34-.04.01-.08.01-.13.02l-.11.03c-.01.03-.03.05-.07.05-.03 0-.07-.01-.1-.02-.05.01-.11.02-.17.03h-.01c-.09.05-.19.1-.28.15.05-.01.09 0 .12 0" id="path674" fill="#00f"/><path class="st0" d="M130.25 19.32c-.09 0-.19-.01-.28-.03-.12.06-.25.11-.37.17.05.01.1.03.15.05.17-.06.33-.12.5-.19" id="path676" fill="#00f"/><path class="st0" d="M130.78 23.13c.08-.01.16-.01.24-.01.06-.01.13-.03.19-.04.02-.01.05-.03.07-.05-.14-.02-.4-.06-.5.1" id="path678" fill="#00f"/><path class="st0" d="M122.08 4.83c.17.04.41-.02.43-.22-.09-.03-.19-.03-.29-.03-.06.08-.13.16-.14.25" id="path680" fill="#00f"/><path class="st0" d="M123.41 5.55l-.11.17.37.06c.03-.05.07-.1.1-.16-.13-.03-.25-.06-.36-.07" id="path682" fill="#00f"/><path class="st0" d="M123.26 5.53c-.22-.02-.42.01-.56.13.15 0 .3.02.45.04.04-.06.07-.12.11-.17" id="path684" fill="#00f"/><path class="st0" d="M124.07 5.83c.02-.02.04-.04.07-.06 0-.03 0-.06.01-.09-.08-.01-.17-.03-.25-.05l-.09.15c.08.03.17.04.26.05" id="path686" fill="#00f"/><path class="st0" d="M124.65 7.89c.01-.05.02-.1.04-.15l-.27-.03c-.02.04-.03.09-.05.13.09.02.18.04.28.05" id="path688" fill="#00f"/><path class="st0" d="M123.79 7.74c.12.02.24.04.36.07l.04-.1c-.14-.01-.27 0-.4.03" id="path690" fill="#00f"/><path class="st0" d="M124.77 7.92c.09.01.18.03.27.05.01-.05.03-.1.04-.14l-.27-.06c-.01.04-.02.09-.04.15" id="path692" fill="#00f"/><path class="st0" d="M125.21 7.85c-.01.04-.02.09-.04.13.08.01.15.02.23.04.01-.03.02-.06.03-.1-.08-.02-.15-.05-.22-.07" id="path694" fill="#00f"/><path class="st0" d="M125.83 8.07c-.09-.04-.19-.08-.28-.11l-.02.07c.1.02.2.03.3.04" id="path696" fill="#00f"/><path class="st0" d="M132.6 21.57c-.1 0-.21-.01-.31-.02-.11.07-.22.14-.33.22.1 0 .2.01.3.01.12-.08.23-.15.34-.21" id="path698" fill="#00f"/><path class="st0" d="M133.13 21.23c-.11.02-.21.03-.31.03-.11.04-.22.1-.34.17.1.01.21.01.31.01.12-.08.24-.15.34-.21" id="path700" fill="#00f"/><path class="st0" d="M131.78 21.88c-.21.13-.42.26-.62.34h.14c.23-.07.49-.19.75-.34-.09.01-.18.01-.27 0" id="path702" fill="#00f"/><path class="st0" d="M131.48 23.14c.16.02.41-.15.52-.27-.19.03-.4.12-.52.27" id="path704" fill="#00f"/><path class="st0" d="M122.37 4.34c.1.01.19.03.29.04.06-.06.1-.11.15-.17-.15-.09-.43-.11-.44.13" id="path706" fill="#00f"/><path class="st0" d="M123.52 5.15c-.26-.06-.49-.06-.64.12.05.01.09.03.14.04.13-.02.26-.01.38.01.04-.06.08-.12.12-.17" id="path708" fill="#00f"/><path class="st0" d="M123.59 5.28c-.01.02-.03.04-.04.06.11.02.22.05.33.07l.09-.15c-.1-.03-.21-.06-.31-.08-.03.03-.05.07-.07.1" id="path710" fill="#00f"/><path class="st0" d="M124.15 5.42c.01-.03.03-.05.07-.05h.06c.01-.02.02-.04.04-.04V5.3c-.07 0-.14-.01-.21-.02-.03.04-.05.09-.08.14.03.01.08.01.12 0" id="path712" fill="#00f"/><path class="st0" d="M124.52 7.39v.02c0 .03 0 .06-.01.08.07.01.15.03.22.04.01-.05.03-.11.04-.16-.08.01-.16.01-.25.02" id="path714" fill="#00f"/><path class="st0" d="M124.88 7.51l-.01.05c.09.02.18.03.27.05.02-.06.03-.11.05-.17-.09-.02-.18-.04-.27-.05l-.03.09c0 .02-.01.03-.01.03" id="path716" fill="#00f"/><path class="st0" d="M125.53 7.54l-.22-.06c-.01.05-.03.11-.04.16.08.02.15.03.23.05 0-.05.02-.1.03-.15" id="path718" fill="#00f"/><path class="st0" d="M125.85 7.77c.01-.05.04-.1.02-.16-.07-.01-.14-.03-.21-.04-.01.05-.03.1-.04.15.07.01.15.03.23.05" id="path720" fill="#00f"/><path class="st0" d="M123.8 4.76c-.3-.06-.61-.05-.75.12.19.02.38.06.58.1.06-.07.11-.15.17-.22" id="path722" fill="#00f"/><path class="st0" d="M123.92 4.79c-.05.07-.1.15-.15.22.11.02.21.04.32.05 0-.01.01-.01.01-.02 0-.02.01-.05.04-.07h.01c.02-.03.03-.06.05-.08-.09-.04-.18-.08-.28-.1" id="path724" fill="#00f"/><path class="st0" d="M123.03 4c.07-.02.15-.12.16-.19-.49-.29-.67.38-.16.19" id="path726" fill="#00f"/><path class="st0" d="M132.2 23.17c.32 0 .76-.33.98-.54-.34-.01-.56.43-.98.54" id="path728" fill="#00f"/><path class="st0" d="M132.47 21.9c-.1.07-.19.13-.29.18.03.01.04.04.04.07.19-.05.39-.14.58-.25h-.33" id="path730" fill="#00f"/><path class="st0" d="M133.01 21.77c.09-.06.18-.12.26-.18-.12 0-.24-.01-.36-.01-.09.06-.18.13-.28.19h.38" id="path732" fill="#00f"/><path class="st0" d="M133.59 21.37l-.01-.01c-.13-.05-.29 0-.47.1.11 0 .22.01.33.01.06-.04.11-.07.15-.1" id="path734" fill="#00f"/><path class="st0" d="M124.05 4.44c-.24-.07-.49-.15-.66.06.19.02.37.05.55.09.04-.05.07-.1.11-.15" id="path736" fill="#00f"/><path class="st0" d="M124.28 4.66c0-.01.01-.02.01-.03.02-.08.14-.04.12.04v.01c.01 0 .03 0 .04.01-.02-.06.02-.1-.01-.17a.704.704 0 0 1-.28-.04c-.04.04-.07.09-.11.14.08 0 .15.02.23.04" id="path738" fill="#00f"/><path class="st0" d="M123.63 3.47c-.2-.02-.58-.18-.69.07.22-.01.44.17.69-.07" id="path740" fill="#00f"/><path class="st0" d="M125.24 7.24l.03-.11c-.08-.01-.16-.02-.24-.02 0 .02-.01.03-.03.04 0 .01-.01.02-.02.02.08.03.17.05.26.07" id="path742" fill="#00f"/><path class="st0" d="M125.39 7.16l-.03.12c.07.02.15.03.23.04l.03-.11c-.08-.02-.15-.04-.23-.05" id="path744" fill="#00f"/><path class="st0" d="M125.92 7.37c.01-.03.02-.06.01-.09-.06-.01-.13-.03-.19-.04-.01.03-.01.07-.02.1l.2.03" id="path746" fill="#00f"/><path class="st0" d="M124.49 4.28c.02-.06.04-.11.02-.18h-.04c-.04.06-.09.11-.13.16.05.01.1.02.15.02" id="path748" fill="#00f"/><path class="st0" d="M124.34 4.08c-.18-.05-.36-.12-.5.08.12.04.25.06.37.09.04-.06.08-.12.13-.17" id="path750" fill="#00f"/><path class="st0" d="M124.03 3.14c-.2.02-.55-.18-.65.06.23-.05.5.21.65-.06" id="path752" fill="#00f"/><path class="st0" d="M133.95 22.53c-.3-.07-.65.31-.88.51.34-.02.71-.27.88-.51" id="path754" fill="#00f"/><path class="st0" d="M125.98 7.05c0-.04.03-.08.01-.13-.05-.02-.11-.03-.17-.05-.01.05-.02.1-.03.14.06.02.12.03.19.04" id="path756" fill="#00f"/><path class="st0" d="M125.66 6.99l.03-.14a.81.81 0 0 0-.22 0l-.03.1c.08.01.15.02.22.04" id="path758" fill="#00f"/><path class="st0" d="M124.69 3.73c-.08-.02-.15-.04-.23-.05-.04.06-.16.09-.17.17.14-.01.4.14.4-.12" id="path760" fill="#00f"/><path class="st0" d="M125 5.01c-.07.2.15.13.25.17.21.28.59.2.91.18-.01-.05 0-.09-.03-.15-.39-.03-.76-.13-1.13-.2" id="path762" fill="#00f"/><path class="st0" d="M133.94 21.45c.02-.01.04-.03.06-.04-.21.02-.44.2-.62.36.09 0 .18 0 .27-.01.12-.06.23-.12.32-.2-.05-.01-.08-.07-.03-.11" id="path764" fill="#00f"/><path class="st0" d="M125.48 4.85c.03.06-.07.07-.04.13.83.41.96-.5.76-1.18-.13.07-.13.18-.25.26-.21-.05-.49-.26-.7-.08.18.13.43.08.61.21-.01.06-.05.12-.1.17-.2-.01-.73-.35-.68.07.11.05.2.02.32-.07.15.09.29.19.45.24-.01.05-.05.1-.1.14-.24-.06-.49-.06-.74-.07-.03.24.35.07.47.18" id="path766" fill="#00f"/><path class="st0" d="M124.98 3.39c-.1-.08-.22-.03-.29.07.05.07.14.05.21.06.02-.04.08-.07.08-.13" id="path768" fill="#00f"/><path class="st0" d="M125.34 2.99c-.09-.04-.27.09-.29.17h.01c.02 0 .03.01.04.03.1.03.25-.1.24-.2" id="path770" fill="#00f"/><path class="st0" d="M134.51 21.59c.03-.03.05-.06.06-.09-.13-.08-.35.08-.43.21.13-.03.26-.07.37-.12" id="path772" fill="#00f"/><path class="st0" d="M126.08 3.84c.04-.29-.42-.43-.52-.15.19.01.34.12.52.15" id="path774" fill="#00f"/><path class="st0" d="M125.61 8.74c0-.01 0-.01 0 0-.08-.03-.16-.05-.24-.07-.01.04-.02.08-.03.13.09 0 .18-.02.27-.06" id="path776" fill="#00f"/><path class="st0" d="M123.95 8.58c.01-.04.03-.09.04-.13-.1-.01-.19-.03-.29-.04-.02.05-.04.1-.05.15.1 0 .2.01.3.02" id="path778" fill="#00f"/><path class="st0" d="M123.53 8.54l.06-.15-.12.03c-.02.01-.04.01-.07.02-.08.03-.16.05-.24.06-.01 0-.01.01-.02.01v.01c.08 0 .15.01.23.02.01-.02.02-.03.03-.05.04-.07.14-.01.12.06 0-.01 0-.01.01-.01" id="path780" fill="#00f"/><path class="st0" d="M124.44 8.64c.01-.04.03-.09.04-.13-.12-.02-.23-.03-.35-.05-.01.04-.03.09-.04.13.11.02.23.04.35.05" id="path782" fill="#00f"/><path class="st0" d="M124.87 8.58c-.09-.01-.17-.03-.26-.04-.01.03-.02.06-.03.1v.04c.08.01.17.03.25.04.01-.03.02-.06.03-.1 0-.02.01-.03.01-.04" id="path784" fill="#00f"/><path class="st0" d="M124.96 8.73c.08.02.16.03.24.05l.03-.14c-.08-.02-.16-.03-.24-.04l-.03.13" id="path786" fill="#00f"/><path class="st0" d="M122.69 6.31a.7.7 0 0 0 .08-.1c-.22-.01-.43.01-.62.12.15.03.31.05.47.06.03-.04.05-.06.07-.08" id="path788" fill="#00f"/><path class="st0" d="M122.93 6.22c-.04.06-.09.11-.13.17.12 0 .24 0 .36.01.03-.04.06-.08.08-.12-.11-.03-.21-.05-.31-.06" id="path790" fill="#00f"/><path class="st0" d="M123.3 6.39c.13 0 .25.01.38.02l.03-.03v-.03c-.11-.02-.22-.04-.34-.06-.02.04-.05.07-.07.1" id="path792" fill="#00f"/><path class="st0" d="M122.26 23.83c-.12.02-.23.03-.34.04.07.02.13.05.2.07.05-.03.1-.07.14-.11" id="path794" fill="#00f"/><path class="st0" d="M122.44 17.58c.33-.36.66-.72.99-1.09-.56.06-1.07.67-1.46 1.15.16-.02.31-.05.47-.06" id="path796" fill="#00f"/><path class="st0" d="M121.85 17.78c-.03.04-.07.08-.1.11-.14.07-.23.19-.3.31.16-.05.34-.09.51-.11.12-.12.23-.25.35-.37l-.43.06c-.01.01-.02.01-.03 0" id="path798" fill="#00f"/><path class="st0" d="M117.17 15.95c-.01.01-.02.03-.03.04.08.02.17.03.25.04.15-.15.3-.29.45-.43-.15.06-.31.13-.44.19-.05.06-.1.12-.15.17-.02.03-.05.02-.08-.01" id="path800" fill="#00f"/><path class="st0" d="M117.98 15.02c.2-.05.4-.08.58-.08l.3-.3c-.23.03-.47.08-.72.15-.06.07-.11.14-.16.23 0-.01 0 0 0 0" id="path802" fill="#00f"/><path class="st0" d="M117.04 16.76c-.32.05-.6.17-.88.3-.52.24-1.08.37-1.63.51-.34.09-.76.14-1.06.35.04 0 .08 0 .12.01.42-.19.88-.23 1.33-.34.19-.05.41-.12.62-.15.43-.15.84-.29 1.22-.45 1.53.16 3.65-.49 5.06-1.79-.24.11-.49.22-.73.32l-.01.01c-.4.23-.82.4-1.24.6-.23.11-.46.26-.7.32h-.03c-.42.14-.86.21-1.29.25-.26.02-.52.02-.78.06" id="path804" fill="#00f"/><path class="st0" d="M119.99 15.92c-.98.31-1.91.47-2.75.47-.01.03-.03.05-.06.04.02.01.05.03.05.07-.02.07-.1.14-.19.13-.02-.03-.04-.07-.06-.1-.01.01-.03.01-.06.01-.11-.05-.27-.01-.4.01-.01.03-.05.04-.08.03-.02.06-.13.08-.19.1-.68.28-2 .51-2.83 1.11.26-.15.57-.22.85-.29.57-.14 1.17-.26 1.7-.51.54-.25 1-.38 1.59-.42.6-.03 1.21-.12 1.76-.35h.04c.18-.08.35-.18.52-.26.04-.01.08-.03.11-.04" id="path806" fill="#00f"/><path class="st0" d="M118.02 21.42c-.2.06-.4.11-.6.15-.15.12-.31.23-.48.34.22-.02.44-.06.65-.12.14-.1.29-.23.43-.37" id="path808" fill="#00f"/><path class="st0" d="M117.51 21.18c-.2.05-.4.1-.61.12-.09.08-.19.15-.28.23.2-.01.4-.03.6-.06l.29-.29" id="path810" fill="#00f"/><path class="st0" d="M122.35 10.89c-.37.12-.71.34-1.05.57.15-.08.31-.15.46-.23.12-.07.43-.2.59-.34" id="path812" fill="#00f"/><path class="st0" d="M117.42 14.84c-.08.06-.16.11-.25.16-.01.01-.01.01-.02.01v.02a.3.3 0 0 0 .08-.04c.07-.04.13-.1.19-.15z" id="path814" fill="#00f"/><path class="st0" d="M121.71 11.68c.23-.12.46-.22.7-.32-.22.01-.48.16-.7.32" id="path816" fill="#00f"/><path class="st0" d="M118.56 13.85c.01 0 .02.01.03.01.12-.1.24-.2.36-.29-.13.1-.26.19-.39.28" id="path818" fill="#00f"/><path class="st0" d="M123.48 10.82a.53.53 0 0 0-.15.08c.04-.01.08-.01.12 0 .36-.1.72-.14 1.05-.21-.28-.02-.7 0-1 .12 0 0-.01.01-.02.01" id="path820" fill="#00f"/><path class="st0" d="M122.99 11.16c.02-.1.06-.18.13-.25-.16.08-.31.2-.4.34l.27-.09" id="path822" fill="#00f"/><path class="st0" d="M114.88 15.44c-.02 0-.04-.02-.05-.03-.01.01-.02.01-.03.02-.1.09-.19.18-.29.27-.06.06-.13-.02-.09-.08-.13.15-.24.3-.31.46.08-.04.17-.09.25-.15.12-.14.31-.33.52-.49" id="path824" fill="#00f"/><path class="st0" d="M114.92 16.39l.33-.24c-.01 0-.03-.01-.04-.01.1-.13.24-.2.4-.24.18-.12.35-.23.54-.34l.01-.01c.15-.15.32-.28.5-.4.15-.13.29-.25.44-.37.33-.25.67-.49 1-.74.64-.47 1.27-.95 1.93-1.39.51-.34 1.04-.66 1.56-1 .26-.18.64-.46.98-.38.14-.31.55-.55.88-.56.15-.06.32-.1.49-.12-.33.02-.67.07-1.02.15.03-.06.05-.12.07-.19-.11 0-.22.04-.33.09-.03.05-.06.09-.09.13-.03.18-.25.3-.39.38-.27.16-.56.3-.84.45-.45.24-.85.58-1.27.86-.46.31-.95.58-1.38.93-.02.02-.04.02-.06.01-.8.58-1.6 1.17-2.37 1.68l-.06-.09c-.23.02-.46.03-.69.07-.14.06-.29.13-.43.19-.04.04-.08.09-.12.13.26-.18.56-.31.8-.25.09 0 .18-.01.26.05-.04.02-.08.05-.13.07-.01.02-.04.04-.06.04-.93.54-2.01 1.15-2.52 1.89.37-.25 1.08-.75 1.61-.79" id="path826" fill="#00f"/><path class="st0" d="M122.92 10.26c-.03.01-.07.03-.11.05 0 .03-.01.06-.01.08-.01.03-.03.05-.05.04 0 .01 0 .02-.01.02.1-.03.2-.05.3-.05.02-.07.03-.14.05-.21-.07.03-.12.05-.17.07" id="path828" fill="#00f"/><path class="st0" d="M122.86 9.85c0 .11-.01.22-.03.32.09-.04.18-.09.22-.11.01-.01.03-.01.04-.02.01-.1.01-.21.01-.31-.07.04-.15.08-.24.12" id="path830" fill="#00f"/><path class="st0" d="M122.88 9.43c0 .06-.01.12-.01.18v.1c.08-.04.16-.08.24-.13l-.03-.29c-.07.04-.14.09-.2.14" id="path832" fill="#00f"/><path class="st0" d="M122.89 9.26c.06-.04.11-.08.16-.12-.01-.08-.03-.17-.05-.25-.04.03-.08.07-.12.1.01.08.01.17 0 .26.01 0 .01 0 .01.01" id="path834" fill="#00f"/><path class="st0" d="M120.27 18.12c.02-.1.04-.2.07-.29-.12.06-.25.12-.38.18-.04.12-.07.23-.11.35.06-.03.11-.06.14-.08.08-.05.18-.1.28-.16" id="path836" fill="#00f"/><path class="st0" d="M120.38 17.66c.06-.22.15-.43.26-.63-.37.2-.53.5-.64.82.13-.06.26-.13.38-.19" id="path838" fill="#00f"/><path class="st0" d="M119.54 18.18c-.02.11-.03.22-.04.34.09-.03.18-.07.26-.12 0-.11.02-.22.04-.33-.09.04-.18.08-.26.11" id="path840" fill="#00f"/><path class="st0" d="M119.92 17.53c-.2.12-.3.29-.35.5.09-.03.17-.07.26-.11.06-.21.14-.41.23-.61-.13.01-.08.15-.14.22" id="path842" fill="#00f"/><path class="st0" d="M121.43 23.43c-.07.01-.15.03-.22.05l-.01.01c.04-.01.07-.01.11-.02.09-.02.18-.03.28-.05-.05 0-.1.01-.16.01.01 0 0 0 0 0" id="path844" fill="#00f"/><path class="st0" d="M123.01 23.55c.09.03.18.07.26.11.01-.01.03-.02.03-.04-.09-.02-.19-.04-.29-.07" id="path846" fill="#00f"/><path class="st0" d="M120.23 18.3c-.11.06-.22.12-.32.16-.03.02-.08.04-.14.07 0 .01-.01.02-.01.03v-.02c-.08.04-.18.09-.28.12-.01.1-.03.19-.06.28-.02-.09-.03-.17-.04-.25-.08.01-.15.01-.21-.03-.07-.05.01-.16.07-.11.03.02.07.03.12.02-.01-.1-.01-.2.01-.3-.07.03-.14.06-.2.09-.04.21-.07.42-.12.62.01.02.05-.02.07 0-.01.03-.03.05-.04.08h.04c0-.05.07-.08.12-.04.12.11.57-.17.68-.23.22-.13.46-.27.61-.49.05-.07.16 0 .11.07-.19.28-.54.49-.85.63-.13.06-.38.2-.56.15-.01.03-.03.04-.06.04-.06 0-.12 0-.17.01l-.12.18c.18-.05.38-.09.56-.12.04-.01.07.02.07.05.16-.07.32-.15.35-.17.21-.13.46-.27.61-.47.05-.07.16.01.11.07-.23.31-.65.54-.99.7-.07.04-.36.18-.48.11h-.01c-.06.02-.13.04-.2.06-.05.01-.11.03-.16.03-.05.02-.1.04-.14.06-.42.41-.97.75-1.51 1.1.1-.02.2-.04.31-.06.17-.12.36-.22.58-.28-.1.08-.21.16-.31.25.13-.02.26-.04.39-.07.1-.1.2-.19.3-.28.08-.02.16.05.21.12l.06-.03c.07-.04.13.08.06.12-.05.03-.11.05-.16.08l-.2.2c.13-.03.25-.04.37-.02.06-.04.11-.07.14-.07.07 0 .13.07.15.15-.03.02-.05.05-.08.07.01-.01.03-.01.04-.02.08-.04.13.08.06.12-.13.06-.26.12-.4.17-.13.11-.26.23-.4.34.37-.17.71-.36 1-.54.07-.04.13.07.06.12-.05.03-.09.06-.14.08.02.08.01.16-.03.22-.15.09-.27.11-.4.14l-.02-.03c.14-.06.23-.16.31-.25-.37.22-.81.44-1.26.58-.2.11-.41.2-.65.26.02-.05.08-.1.16-.14-.16.03-.32.04-.48.04-.4.25-.82.47-1.29.65.14.12.5-.14.72-.14-.06.11-.33.14-.36.26.2.14.57-.22.71-.3-.03.09-.18.14-.15.25.26.02.34-.36.65-.41.04.13-.21.23-.17.39.25-.03.33-.41.63-.49-.02.14-.21.23-.2.38.28-.15.6-.72.98-.59.16-.08.35-.12.5-.08-.34.16-.52.38-.76.57.6.14.76-.8 1.49-.78-.28.23-.66.47-.89.75.02.01.05.01.07.01.04-.01.08-.03.11-.04.05-.02.1-.05.15-.08.01 0 .02-.01.03-.01.01 0 .02-.01.03-.01 0-.02.01-.05.04-.06.02-.01.04-.01.05-.02.5-.73 1.64-1.03 2.68-1.38 1.47-.5 3.08-1.16 4.36-1.99.1 0 .23-.08.34-.1.01-.02-.06-.08-.05-.13.44-.4 1.16-.65 1.4-1.1-.06-.02-.12-.05-.17-.07-.09.17-.23.32-.39.42-.06.06-.12.1-.2.15-.01.01-.02.01-.03.01-.1.12-.22.22-.36.28-.21.17-.4.3-.46.33-.71.46-1.48.84-2.24 1.21-.32.16-.64.31-.99.41-.16.05-.32.13-.49.16-.02 0-.04 0-.07.01-.1.04-.21.08-.31.12-.88.33-1.76.67-2.68.87-.04.01-.07-.02-.08-.05 0-.02-.01-.04-.01-.06h-.02c.02-.14-.01-.3-.06-.46.39-.4.78-.8 1.16-1.2.13-.24.29-.45.44-.68.05-.14.1-.27.18-.4 0-.01.01-.01.01-.01-.01 0-.02.01-.03.01.03-.08.07-.16.1-.24-.01-.03 0-.06.03-.07h.01c.38-.7 1.09-1.29 1.8-1.88-.78-.13-1.19.76-1.62 1.12.1-.36.43-.65.68-.96-.86.31-.93 1.33-1.79 1.77-.02-.07-.01-.09-.01-.11m-1.12 2.38c-.03-.03-.07-.06-.09-.11.44-.2.65-.52.83-.83-.12.1-.26.19-.39.26-.14.17-.34.32-.57.45-.62-.25-.28-.55.18-.74-.05.09-.11.17-.19.25l.01.01c.05.08.2.05.37-.04.17-.18.32-.37.48-.57-.01.11-.05.22-.09.32.15-.11.29-.22.4-.32.07-.1.14-.19.22-.28-.01.03-.01.07-.02.1h.01c.06-.06.15.04.09.1-.03.03-.09.08-.16.15-.15.5-.49.91-1.08 1.25m1.35-1.37c.1-.43.15-1 .59-1.31-.12.42-.3.95-.59 1.31" id="path848" fill="#00f"/><path class="st0" d="M121.29 18.46c.01.01.01.03 0 .05-.01.04-.02.09-.04.13.03.01.05.03.05.06.03-.01.07-.01.1-.02.13-.14.26-.28.39-.41-.16.02-.32.06-.46.12-.01.02-.03.04-.04.07" id="path850" fill="#00f"/><path class="st0" d="M100.91 9.66c.14-.14.04-.4.29-.47.67 1.46 1.94 2.86 2.77 4.01.19.26.66.62 1 .5 1.54.57 3.27.61 4.81 1.18.04.11.14.24.08.31-.05-.03-.08-.12-.17-.06.48.47.95 1.54.68 2.1-.05 0-.03-.08-.08-.08-.25.06-.21.35-.46.4-.06-.12.14-.21.04-.31-.17.03-.17.2-.19.31-.13-.02-.15.12-.19.19-.02-.03 0-.04-.02-.07-.12.15-.11.33-.4.4.05.23-.07.16-.21.06-.79-.55-1.83-1.12-2.83-.21-.82.73-1.83 1.61-2.61 2.38-.16 0-.31-.01-.51.09.09.12.24.07.34.14-1.54.07-3.18.41-4.66.29-.03-.13-.03-.31.05-.43-.12.02-.51.13-.5.25.02.12.19.18.24.29.1.24-.06.92.4.8-.48-.65.6-.51 1.07-.61l.09-.01c1.04-.08 2.01-.03 3.05-.11-.09.16-.33.13-.43.17 1.1.12 2.16-1.05 2.9-1.82.41-.43.71-.95 1.14-1.19.37.67 1.11.26 1.48.92-.21.22-.4.52-.48.8-.02-.07-.05-.16-.11-.17-.29.18.1.61-.1.78-.04-.1.04-.26-.1-.31-.25.12.01.41-.09.58-.29-.98-1.05-.76-1.69-.27-1.17.89-1.02 2.26-.89 3.55-.74.29-1.43-.29-1.99-.51.43.73 1.18.74 1.82.96.13-.12.31-.06.34.13-.1.03-.21.05-.25.14-.61-.46-.18.74.06.7.18-.03.22-.28.38-.35.03.03.08.12.09.15-.08.76-.72 1.52-.26 2.34.18-.63-.18-1.82.85-1.83.72.65 1.48 1.33 2.43 1.4.3.02.87-.02 1.09-.08.82-.2.96-.87.69-1.48.12.06.25.3.39.16.09.12.22.26.35.19 0-.1-.14-.15-.15-.25.25-.05.39.23.62.25.05-.06-.03-.11-.03-.18.24-.07.35.26.46.48-.15.17-.27.35-.38.53.09-.05.22-.13.31-.12-.43 1.32-2.46 1.03-3.71 1.99-.19-.03-.57.01-.69.11.11.18.31.08.48.08-.79.61-1.25 1.6-1.88 2.44-.24.32-1.23 1.58-1.41.66-.31-.11-.24.34-.18.45.08.15 1.09.65 1.2.63.42-.09-.3-.33-.36-.4 1.5-.7 1.53-2.19 2.67-3.02.08-.08.1-.25.24-.22-.02.08-.05.24.07.27.27-.24.37-.65.86-.69.01.03-.06.12 0 .11.69-.4 1.46-.72 2.16-.98.57.44 1.29-.45 1.35-.94.46-.27.22-1.07.7-1.4-.02-.15-.03-.3.05-.41.06.06.12.1.18.15.05-.04.09-.08.16-.08-.01-.07-.12-.08-.16-.16.05-.05.15-.07.22-.09.17.36.7.07.23-.09.3-.03 1.06.27.55-.14.16-.04.24.12.42.03.33.21.32.68.55.88.08-.02.04-.12.1-.12.15.14-.01.37.17.46.06-.06-.03-.18.05-.24.13.04.24.15.36.21-.48 1.04-1.04 2.1-1.48 3.14-.19.44-.2.93-.38 1.37-.16.39-.46.66-.21 1.15-.11.09-.14.21-.17.33.09.02.19-.05.25-.12.35.47.7 1.46.79 2.06.06.02.02-.13.08-.08.21.34.12.82.34.98.29.71.24 1.35.51 2.02-.15.2-.42.29-.59.15-.13.62.8.19 1.02-.11.1.14.84-.08.7-.31-.12-.2-.58.26-.79-.07-.08-.12-.15-.39-.08-.51-.55-.75-.25-1.75-.65-2.53-.5-.98-1.15-2.2-.54-2.93.03-.03.03.03.06 0 .16-.48.5-.9.57-1.39.04.07.07.21.14.18-.02-.28-.08-.62.14-.79.02.06.01.1.04.16.2-.26.04-.65.26-.91.03.03.06.09.08.14 0-.79.84-1.29.71-2.12.07-.04.09.05.16.01-.05-.38-.24-.46-.44-.68.18-.21-.41-.41-.38-.64.15-.01.29.17.44.08-.17-.24-.51-.24-.71-.5.61.01 1.12.33 1.76.27 1.4.21 2.8.35 4.27.45 1.36.09 2.82-.16 4.24-.15 1.78.01 3.97-.16 6.06-.59.3-.06.58-.12.92-.26 2.03-.79 3.28-2.31 1.72-4.08.95.02 1.84-.04 2.7.19.02-.02-.04-.06.01-.07.3-.06.48.21.74.25-.01-.04-.02-.08-.01-.11.33.05.66.74.22.91.39.23.63-.56.78-.86.22-.44-.29-1.29-.45-.64-.43.31-.77-.05-1.16-.06.06-.08.05-.28-.09-.27-.09.07-.22.27-.37.21.04-.3-.36-.21-.44-.02-.16-.03-.35-.02-.49-.11 0-.04.08-.05.05-.11-.47.14-.94.27-1.29.05-.55.12-.96-.14-1.43-.23.33-.27-.17-.2-.38-.04-.06-.04-.14-.05-.21-.06.09-.09.3-.14.25-.27-.16-.07-.35.13-.56.2-1.25-.45-2.6-1.2-3.91-1.61-.33-.1-1.77-.24-1.16-.66-.04-.13-.17-.02-.24-.09-.08-.21.24-.21.31-.32-.04-.12-.13-.06-.2-.1.14-.07.01-.24.09-.33.09.04.34 0 .27-.16-.1-.05-.28.07-.3-.13.17-.15.15-.43.26-.63-.02-.04-.07.02-.08-.03 0-.1.01-.19.01-.29-.22.04-.2-.21-.05-.3l-.05-.11c-.2.12-.4-.11-.14-.22-.01-.06-.03-.06-.06-.12-.06 0-.14.06-.18 0 .3-.28.03-.31-.22-.26.18-.1.3-.43-.03-.32-.03.02.03.11-.04.09-.08-.1-.14-.2-.19-.31.01-.09.1-.15.14-.22a.309.309 0 0 0-.12-.15c-.24.2-.32-.07-.17-.18-.03-.05-.08-.06-.11-.11-.07.04-.08.1-.17.12a.2.2 0 0 1-.12-.08c.01-.12.16-.27-.03-.35-.08.13-.32.26-.41.07.01-.08.1-.14.16-.2-.05-.06-.12-.08-.19-.1-.04.06-.07.13-.13.18-.11-.11-.19-.15-.31-.24 1.04-2.31 1.64-4.78 1.78-7.4.54-.15.56-.53-.01-.22.08-.25.27-.45.51-.62-.02-.09-.09-.04-.12-.1.11-.21.25-.42.44-.6-.18-.31.38-.47.14-.71.15-.16.61-.39.28-.56.17-.27.11-.64.33-.86.24-.24.45.14.6.02.21-.15-.47-.52-.65-.32-.07-.12-.16-.15-.28-.12-.11-.34-.95-.18-.61.19.15-.09.33-.2.45-.01-.34.83-.74 1.64-1.28 2.4-.17-.07-.19.14-.28.22-.81-.91-1.88-.86-3.12-.41-1.15.41-1.73.97-2.32 1.69a9.7 9.7 0 0 1-.98 1.04c-.83.74-1.38 1.77-2.13 2.59-2.38 2.62-4.38 5.56-6.19 8.38-.11-.37-.33-1.27-.74-1.63-.04-.02-.11.04-.15.03-.14-.37-.41-.56-.65-.79-.02.11.1.27.16.36-.37-.11-.66-.45-1.11-.35-.15-.1-.28-.26-.47-.24-.02.04.03.1.02.14-.42-.02-.76-.25-1.1-.48-.02.06.04.14.04.2-.16.03-.25-.12-.34-.28-.05-.01-.1 0-.16.02-.02.02.02.07 0 .1-.14-.09-.39-.12-.52-.01-.07 0-.1-.09-.18-.06-.04.01.03.07-.02.08-.3-.09-.63-.1-.95-.16-.02.02.04.07-.02.08-.42-.15-.89-.18-1.23-.57-.04-.02-.06.06-.11.04-1.01-.92-1.76-2.59-2.68-3.75-.04-.23.27-.25.43-.33-.32-.34-1.35.48-1.03.98M98.6 21.13c.02-.06.02-.08-.03-.15.07-.02.12 0 .17.04-.05.03-.09.11-.14.11m.33-.02c-.01-.06.11-.06.14-.03-.04.06-.1.01-.14.03m1.13-.06l-.21.02c-.22-.03-.49.03-.65-.07.37.01.76-.05 1.12-.02-.07.02-.17.04-.26.07m.56-.17c.04-.08.2-.11.23.01-.06.06-.18.07-.23-.01m1.42-.12c.13-.04.24-.04.32.07-.08.02-.29.05-.32-.07m1.97-.47c-.04.09-.34.27-.42.16.07-.07.33-.25.42-.16m2.36-2.3c-.01-.04.02-.11.06-.1.03.05-.01.11-.06.1m-2.05 1.92c.49-.3.79-.72 1.27-1-.23.37-.86.85-1.27 1m1.58-1.47c0 .01.01.02.02.02-.12.44-.5.2-.02-.02m1.3-.05c-.02-.02-.02-.04-.02-.06.05-.02.1-.03.12.02-.03.02-.08.05-.1.04m-.4-.5c.55-.3 1.16.3 1.48.65-.53-.08-.97-.48-1.48-.65m-1.77 14.45c0 .15-.42.37-.43.14.13-.02.29-.11.43-.14m.42-.45c.03.11-.11.21-.21.24l-.02-.03c.07-.07.13-.19.23-.21m.21-.26c-.03-.15.09-.25.2-.36.11.14-.08.34-.2.36m2.04-2.68c.14-.04.26.1.33.17-.12.1-.33-.02-.33-.17m1.92-.82c.25-.25.74-.31 1.05-.37-.31.22-.73.28-1.05.37m.82-.07c-.36.2-.78.38-1.11.35-.01-.02 0-.02-.01-.04.33-.08.72-.13 1.12-.31m-1.43.44c-.04.1-.45.24-.57.15.16-.15.43-.2.57-.15m-2.95 2.54c.1-.2.24-.44.42-.58 0 .18-.22.56-.42.58m.62-.8c.07-.34.33-.6.65-.85.02.29-.47.56-.65.85m4.45-2.68c.17-.07.1-.23.26-.31.5.36-.22 1.03-.26.31m.92-1.26c.06.31-.23.49-.26.76-.53.39-.11-.53.07-.71.07-.03.11.01.19-.05m3.59 10.33c-.03-.03-.08.03-.11-.02.36-.52.23.9.11.02m-1.47-5.37c.02.01.04.03.06.03.04.13-.03.22-.08.32.1.27.22.65.36 1l-.04.02c-.2-.34-.35-.69-.33-.99-.03-.02-.07.07-.12.04-.1-.15 0-.23-.02-.35.09-.02.08-.01.17-.07m.14-.54c0-.61.43-1.32.74-1.92-.22.65-.34 1.37-.74 1.92m.91-2.22c-.01-.16.05-.3.15-.42.12.13-.07.3-.15.42m.24-.58c-.13-.14.54-.84.58-.97.12.23-.57.98-.58.97m23.11-7.94c-.04-.04.06-.34.15-.38.26-.09.04.59-.15.38m-.99-.15c-.29-.04-.57-.09-.81-.25.25-.03.65.08.81.25m-1.01-.19c-.39.08-.73.03-1.07-.04-.01-.01-.01-.02 0-.03.37.01.74.01 1.07.07m-8.83-18c.17-.33.09-.83.45-.98-.09.3-.26.68-.45.98-.02.05-.06.1-.09.14.03-.05.06-.1.09-.14m-15.36 15.12c.06-.01.09-.01.14-.05-.04.16-.07.65-.26.68-.15.02.06-.54.12-.63m-1.98 1.65c-.02-.12.09-.27.22-.28.16.13-.09.36-.22.28m-.33.01c0 .01.01.02.02.02.05.67-.62.26-.02-.02m.65-.48c-.03-.07.15-.15.17-.05-.03.07-.12.03-.17.05m-1.62.71c.05-.11.38-.29.41-.12-.09.04-.3.14-.41.12m.08.22c0 .01 0 .03.01.05-.12.07-.18.15-.27.23-.15-.1.13-.34.26-.28m.46-.23c-.03-.09.04-.15.13-.2.02.01.04.03.06.03.03.08-.06.18-.15.17.16.27-.17.91-.25.29-.04-.04-.04.04-.1.05.11-.11.12-.32.31-.34m2.06-.23c-.09.05-.11-.06-.12-.12.06-.01.13.06.12.12m-.49.19c-.08-.08-.18-.13-.27-.19.08-.06.26-.18.31-.07-.01.04-.01.08-.06.1.06.04.1.11.02.16m-2.71 1.17c-.02-.02-.06-.06-.04-.09-.22.04-.15-.27.04-.17.03-.1.12-.09.21-.09.08-.06.05-.2.2-.21a.5.5 0 0 1 .08.07c.04-.12.22-.4.35-.16-.09.13-.11.33-.29.39a.168.168 0 0 1-.07-.09c-.03.1-.12.27-.23.11-.1.09-.11.25-.25.24m-.22.17c-.15.27-.3.54-.41.83-.13-.28.04-.72.41-.83m3.22-.35c-.05 0-.09-.03-.14-.04-.02-.05.02-.09.08-.11v-.19c-.21.09-.12.32-.31.38-.06-.06-.08-.16-.06-.22-.12.02-.21.13-.24.21.02.02.07-.01.09.01.1.13-.13.26-.21.19-.05.14-.19.08-.28.14l-.03-.06c.02-.03.1-.02.1-.08-.15-.51.68-.77 1.04-.72.43-.35.15.35-.04.49m12.67-5.65c.11.23-.32.45-.59.58-.4-.19.38-.99.59-.58m-1.26 1.01c.39.16-.22.72-.2.3-.32.02 0-.38.2-.3m1.76-.33c-.15.58-.88.18-.33-.1.07-.04.17.03.26 0 .04.02.06.05.07.1m.73-.48c.02.08-.06.27-.17.22-.03-.09.06-.19.17-.22m-2.47 1.64c-.25.27-.75-.05-.21-.09-.08-.18.21-.27.32-.35.02.01.04.03.06.03.04.12-.06.19-.15.26.56-.28.38.38-.02.15m1.78-.7c.02.06-.06.12-.12.13-.03-.06.05-.16.12-.13m-12.24 4.95c-.01-.12.31-.25.34-.08-.06.06-.26.14-.34.08m1.39-.62c.1-.09.23-.18.36-.16.01.07.04.1.04.16-.15.03-.32.14-.4 0m4.71-1.77c.02.07-.17.18-.19.05.02-.06.15-.12.19-.05m.29-.09c0 .05-.06.1-.12.1 0-.01-.01-.02-.02-.02-.08-.11.1-.18.14-.08m-1.12.46c.05.12-.29.25-.35.18-.06-.06.28-.33.35-.18m-5.78 2.7c-.17.14-.39.26-.58.39-.04-.03-.1-.11-.1-.17.22-.04.52-.32.68-.22m.7-.44c.18-.08.42-.31.54-.14-.06.07-.45.29-.54.14m2.68-1.41c.03-.04.07-.07.11-.05.03.06-.05.08-.1.09zm-5.75 3.12c.12-.2.57-.46.81-.41-.19.15-.56.28-.81.41m5.89-2.77c.03-.15.24-.32.43-.33.06.18-.31.27-.37.37-.03.02-.04-.01-.06-.04m1.68-1.41c.02-.06.14-.14.2-.08l.03.06c-.04.06-.2.14-.23.02m-1.2.7c-.26.03-.62.41-.84.29.24-.18.38-.58.8-.57.04.12 0 .17.04.28m-7.22 1.97c-.11.1-.23.19-.28.31-.11-.17.12-.37.28-.31m-.06.81c.05-.19.23-.69.56-.6.07-.11.22-.14.28-.25.09.04.05.16.07.23l-.43.28c-.02-.03-.01-.04-.02-.07-.03.17-.32.31-.46.41m-.46-.18c-.06-.08-.07-.26.03-.28.03.1 0 .19-.03.28m-.52.01c.03.22-.02.42.04.65-.26-.06-.24-.54-.1-.67.02.02.04.02.06.02m.3.36c.04.12-.06.26.06.35-.01.07-.05.12-.04.2-.12-.15-.19-.52-.02-.55m1.99-.57c.02.08-.08.13-.14.08-.09-.08.1-.19.14-.08m6.21-2.9c.05.08-.09.19-.17.11-.08-.09.12-.2.17-.11m-1.91.77c.07-.06.12.01.12.07-.08.07-.15-.01-.12-.07m.77-.34c-.03-.01-.02-.04-.03-.07-.06 0-.15.1-.21.1l-.02-.03c.23-.11.54-.26.77-.29.07.15-.37.27-.51.29m-1.01.5c.08.2-.48.17-.58.09.11-.11.52-.24.58-.09m-4.27 1.77c.04-.05.17-.13.22-.08.03.08-.19.21-.22.08m3.78-1.92l-.01-.02c.03-.11.28-.25.41-.24.05.06.02.1 0 .14-.12 0-.28.06-.4.12m-.3.15c-.11.08-.19-.1-.07-.13.07 0 .11.07.07.13m-1.2.43c-.22-.07-.02-.33.09-.43.01-.05-.07-.03-.08-.08.5-.25.19.38-.01.51m.15-.84c-.17-.13.22-.36.26-.14.02.09-.17.21-.26.14m-7.05 2.57c.04.1-.06.15-.05.23.12-.05.25-.18.25-.3-.05-.02-.12.03-.18.06.04-.13.3-.19.34-.33.04-.02.06.02.1 0 .02.03-.01.04-.02.07.12.06.2-.08.24-.16-.03-.04-.1.03-.14.04.06-.19.4-.18.55-.2.07.1.14.24.07.31.04.03.12.06.11.14-.14.05-.22-.08-.35-.06-.05.02-.06.05-.07.09-.06-.18-.32-.03-.35.1.26.04.62-.07.79.17-.41-.09-1.17-.17-1.43.31.52-.21 1.03-.25 1.38-.03-.42-.02-1.19-.21-1.48.28.01-.27.09-.5.24-.72m-.38 1.65c.04-.02.05.04.09.01.04-.03.05-.08.05-.12-.02-.02-.04-.04-.06-.04-.05.03 0 .1-.08.12-.02-.19.04-.33.02-.48.07-.03.13-.03.14-.09.04-.03.04.05.07.03.02.06-.03.09-.04.13.03.05.08.03.12.05.06-.09.15-.18.18-.28a.381.381 0 0 0-.31.02c-.02-.14.17-.19.18-.32-.03-.03-.09.04-.12-.01.51-.21 1.02-.18 1.41.05-.01.02-.01.03-.02.05-.13 0-.23-.1-.36-.1-.08.1-.07.22-.13.33.05.04.11.04.17.04.07-.05.01-.19.13-.19.04.09-.04.14-.04.21.05.03.1.06.16.05.04-.03 0-.09.02-.12.09.03.03.16.04.23-.18.19-.29.41-.47.6.03.04.09 0 .12.04-.39.36-1.32.47-1.27-.21m1.15.8c-.43.15-1.01.32-1.08-.25.17.09.32.29.54.15 1.33.07 1.5-1.53 1.26-2.39-.1-.35.13-.23.22.06.25.83.12 2.06-.94 2.43m2.32-1.08l-.02-.04c.01-.02.04-.04.07-.03.02.02.02.04.02.06-.04.02-.05-.01-.07.01m5.88-2.6c.06.1-.18.18-.17.05.02-.05.13-.1.17-.05m-.75.44c-.08.12-.36.21-.51.22.08-.11.37-.3.51-.22m3.69-.81c.12.16-1.05.87-1.18.64.29.02 1.02-.86 1.18-.64m1.28-.45a.62.62 0 0 1-.26.12c-.02-.16.25-.46.26-.12m-9.37 4.25c.07.09.09.22.14.32-.16.16-.38-.29-.14-.32m.7-.39c.04.02.08.03.12.07-.09.05-.22.22-.29.14 0-.09.07-.16.17-.21m5.21-2.21c-.1-.07.06-.21.12-.12.05.07-.05.16-.12.12m-.48.18c.06-.05.19-.11.24-.06.06.11-.26.23-.24.06m-3.81 1.97c-.06-.1.41-.4.49-.19-.06.05-.43.29-.49.19m-.48-.03c-.04-.03-.1-.04-.09-.11.05-.07.25-.17.33-.15.1.15-.12.22-.24.26m.72-.58c0 .01.01.02.02.02 0 .37-.51.03-.02-.02m7.01-3.43c.15.01.28-.24.42-.15.02.14-.48.4-.42.15m-1.92.87c.12-.11.74-.55.81-.43.11.21-.62.56-.81.43m-6.24 2.71c-.04-.08-.03-.15-.06-.23.26-.08.46-.29.7-.28.03.03.02.04.04.08.05.01.07-.05.11-.03.05.14-.18.14-.23.07-.2.12-.38.3-.56.39m-.98.33c.04.02.07.07.05.11-.08.06-.16-.09-.05-.11m2.07-.91c-.02-.07.12-.16.16-.06-.01.01 0 .02 0 .03-.03.04-.13.07-.16.03m.27-.2c.08-.11.26-.04.2.08-.09.06-.21.03-.2-.08m3.5-1.75c.01.04-.03.06-.07.06 0-.03.03-.08.07-.06m1.69-.77c.02.02.04.05.06.1-.04.09-.26.18-.33.11-.03-.11.16-.18.27-.21m-5.72 3.12c-.18.16-.59.3-.83.36l-.01-.02c.12-.14.67-.54.84-.34m1.03-.49c.37-.28 1.1-.84 1.61-.81-.4.35-1.12.61-1.6.85-.01-.01 0-.02-.01-.04m3.96-2.14c.14-.06.29.17.14.25-.06-.05-.1-.17-.14-.25m2.21-.95c-.06 0-.19.06-.19-.03.07-.15.38-.3.53-.35.14.22-.26.32-.32.5-.05-.02-.02-.08-.02-.12m.62-.42c-.06.04-.09-.02-.14-.01.01-.1.15-.07.14.01m.33-.19c.04.1-.16.1-.11 0 .04-.02.09-.04.11 0m-6.79 3.17c-.03.02.02.06 0 .08-.05.05-.17.11-.23.1-.03-.01-.03-.05-.04-.08-.08.03-.17.1-.19 0 .14-.11.85-.6.98-.46.17.2-.38.28-.52.36m-6.62 3.12c.43-.18.95-.53 1.37-.78.15-.08.68-.4.67-.15-.01.16-.15.09-.24.11-.65.17-1.11 1.03-1.8.82m4.11-1.82c.03.03.06.06.08.11-.06.24-.28-.01-.08-.11m-.82.54c0 .01.01.01.02 0 .21.36-.42.14-.02 0m.56-.19c.04-.03.04-.03.09-.04.37.28-.12.48-.09.04m-3.83 2.1l-.01-.02c.61-.14 1.09-.53 1.69-.72-.25.39-.85.57-1.37.87-.1-.06-.23-.02-.31-.13m3.25-1.17c-.17-.16.29-.07.07.02-.04.01-.04.01-.07-.02m-2.32 1.4c.14-.1.25-.34.43-.33.03.15-.27.43-.43.33m-.64.41c.11-.06.32-.16.45-.19-.04.14-.33.25-.45.19m3.34 1.01c-.2.13-.47-.15-.63.13.07.07.18 0 .28 0 .02.01.04.04.05.07.07.01.15-.01.22-.03-.6.54-1.26.03-1.79-.15-.2-.26-.99-.47-.68-.86.03.05.01.08.01.12.07-.01.12.03.18.05.03-.03.08-.05.07-.09-.1-.12-.25-.4-.07-.51.08.06.03.16.09.24.09 0 .17-.09.22-.14-.1-.28.12-.14.22-.04-.01.02-.05.03-.04.06.02.05.05.08.08.11.07-.03.17-.08.25-.12-.01-.07-.17-.24-.08-.31.14.08.23.33.43.23.03.08-.11.06-.13.1.03.05.07.07.11.11.08-.02.17-.03.26-.08-.06-.12-.24-.2-.21-.34.18.01.24.37.46.27.04.05-.03.06-.01.1.04.07.11.08.18.08.06.17.2.13.27.25-.09.04-.16.1-.25.17.12.12.34.07.41.23-.18.05-.31-.08-.48.11.16.12.39.07.55.17.02.05.03.06.03.07m.42-.29c-.24-.56-.67-.96-1.07-1.27-.18-.14-.6-.37-.81-.35-.08.01-.55-.02-.26-.19.42-.25 1.2.31 1.55.63.29.25.55.84.59 1.18m6.07-5.49c.03.02.08-.02.09.04-.27.13-.48.45-.83.46.24-.21.53-.41.71-.65.03.06.03.1.03.15m-.75 2.02c.31-.26.47.52.37.68-.11-.22-.18-.47-.37-.68m-.69 1.16c-.1-.09.15-.29.22-.19.07.09-.12.28-.22.19m.58-.61l.03.07c-.12.35-.39-.09-.03-.07m-.92.06c-.03.02-.06.03-.1-.01-.2-.17.3-.14.1.01m-.62.24c.04-.05.12-.04.19-.09.04.1-.13.19-.19.09m-1.33.62c.05-.01.11-.03.14.03.01.13-.21.09-.14-.03m-.62.51c-.18.06-.32-.01-.45-.1.14-.08.51-.14.45.1m1.34-.62c.08.11-.12.25-.21.16-.13-.14.14-.26.21-.16m.97-.39c.05-.03.1-.04.12.01-.04.04-.1.06-.12-.01m.62-.85c.08.09-.11.29-.21.17-.07-.1.13-.27.21-.17m-1.7.86c-.02-.04-.01-.08 0-.11.07-.02.15-.08.2-.04.05.1-.13.14-.2.15m.22-.19l-.02-.03c.01-.02.09-.07.11-.05.05.05-.05.09-.09.08m-.73.46c-.07.18-.33.12-.48.21.02.23-.35.2-.39 0 .27.01.57-.1.87-.21m-1.76.92c-.18-.04-.34-.13-.49-.26.18-.01.54.05.49.26m1.59-1.55c.09.08.19.12.26.23-.34.36-.93.36-1.32.42-.03-.06-.06-.07-.07-.13.44.01.66-.43 1.13-.52m-1.12.95c-.08.08-.27.03-.25-.09.09.01.17.03.25.09m1.85-1.33c.33-.22.75-.41 1.06-.64-.02.07-.05.1.03.14-.04.25-.94 1.01-1.09.5m2.13-1.06c-.06-.08.11-.2.17-.13.08.09-.08.23-.17.13m-4.54 2.16c.04.11-.11.19-.19.11-.15-.15.14-.26.19-.11m.83-1.09c.12-.1.38-.15.51-.19-.03.17-.38.18-.51.19m-.28.31c.19-.14.48-.11.7-.16-.06.23-.53.23-.7.16m-1.36.65c.03.17.1.31.24.33-.18.18-.59-.25-.24-.33m5.71-2.44c.04-.09.18-.11.27-.13-.05.07-.17.11-.16.2-.06.03-.09-.01-.11-.07m.57-.3c-.01-.04.08-.07.11-.07.01.04-.09.07-.11.07m-5.51 2.7c-.05.03-.11-.02-.1-.07.06-.06.11.02.1.07m1.69.76c.07-.04.12-.02.17.03-.01.01 0 .02 0 .03-.06.08-.18.04-.17-.06m.95-.17c-.16-.19.33-.11.11.03-.06.04-.08.02-.11-.03m1.36-.49c.03.07-.15.23-.23.15-.06-.05.18-.27.23-.15m1.31-.61c.02.03.01.05.01.08-.04.02-.08.02-.1-.03.03-.04.06-.05.09-.05m-4.22 1.95c.03-.01.04 0 .06.01.01.03 0 .04-.01.06-.05.03-.09-.04-.05-.07m2-.87c.1-.1.31-.06.25.09-.12.07-.3.06-.25-.09m-1.66.89c.03.05.03.08.03.12-.11.06-.13-.13-.03-.12m.17.06c-.03-.08.15-.19.22-.15.07.11-.17.21-.22.15m.62-.17c.14-.01.29-.08.45-.13l.03.06c-.15.08-.43.21-.48.07m4.18.33c.02.03.11.22 0 .25-.12.03-.48-.51-.59-.61-.32-.3-.69-.44-.88-.86.04-.05.14-.05.2-.04.35.4.97.74 1.27 1.26m10.24-1.27c-.17.02-.36.03-.54.03-.33.04-.66.05-.99.04-.46.07-.93.06-1.4.07-.42.16-.88.18-1.32.16-.62-.03-1.24-.08-1.86-.11-.53-.03-1.05-.09-1.58-.16-.3-.04-.63-.08-.91-.2-.62-.05-1.24-.12-1.84-.23-.22-.13-.44-.22-.59-.54.1-.16.35-.06.48-.04-.03.07-.19.1-.27.16.23.1.59-.25.83-.06-.06.08-.19.14-.27.19.26.08.66-.28.85-.03l-.27.13c1.41-.15 2.88-.15 4.18.2h.01c.16-.02.38-.04.55-.12-.01-.01-.01-.01-.01-.02-.17-.02-.33-.06-.49-.16.9-.21 1.8.05 2.55.45h.04c.2.09.41.13.62.15h.03c.01 0 .02.01.04.01.05 0 .1-.01.15-.02-.77-.19-1.42-.75-2.21-.79-.47-.02-.9.08-1.35.17-.4.08-.78.03-1.17-.07-.01 0-.01 0-.02-.01-.34.05-.69.03-1.03 0-.01 0-.01 0-.02-.01h-.53c-.02 0-.03-.01-.04-.01-.14-.01-.28-.03-.41-.06-.02 0-.03-.02-.04-.03-.05-.01-.1-.01-.15-.02-.04-.01-.06-.04-.06-.07-.12 0-.21-.02-.26-.11-.2-.01-.42.02-.59-.06 0-.01 0-.02.01-.03 1.6-.02 3.31-.32 4.87-.22.04.01.07.03.11.04.18.01.35.02.52.05.68.1 1.32.37 1.98.5.15.01.3.03.45.06.02 0 .04 0 .07.01.01 0 .02 0 .02.01 2.48.2 5.13-.12 7.64-.01-1.93.64-3.93.57-5.78.76m7.14-1.34c-.37.39-1.05.31-1.54.33-1.02.04-2.04.1-3.06.16-.94.05-1.89.07-2.84.04-.79-.02-1.54-.13-2.3-.31-.42-.05-.81-.12-1.18-.21-.01-.01-.01-.02 0-.03.22 0 .44 0 .66-.01.51-.1 1.04-.15 1.56-.19.16-.01.32-.01.47-.01.11-.01.21-.01.32 0 2.32-.29 4.71.53 7.13-.29.62-.21 1.13-.3 1.75-.45-.2.49-.55.79-.97.97m-6.98-6.84c-.01.06-.03.11-.11.14l-.02-.03c.06-.03.06-.08.13-.11m.14-.59c.01.07-.07.11-.02.19-.13.1-.3.09-.42.1v-.04c.1-.13.31-.21.44-.25m-1.26.53c.06.09-.1.15-.14.1-.06-.08.1-.16.14-.1m1.36-.81c-.17.08-.46.38-.56.19.13-.17.32-.33.54-.47.04.07.02.19.02.28m-1.92.56c-.05.11-.33.33-.41.1.06-.1.32-.19.41-.1m-.66-.03c-.08.16-.37.07-.28-.1.09.02.26-.05.28.1m1.81-1.04c.06.12-.2.35-.31.25-.13-.12.22-.41.31-.25m.73 2.29c.01-.02.04-.03.07-.01.05.03.11.05.16.06.07.01.14.03.2.04v.01c.27.05.57.05.83.12.42.11.83.27 1.23.44.44.19.88.37 1.31.58.19.09.38.19.57.28.3.1.6.21.9.31.84.65 2.01.62 2.6 1.83 0-.08.12-.11.13-.02.01.12-.06.24-.11.34-.03.07-.07.13-.1.2.07-.01.13-.01.2-.02.08.27-.01.41-.17.49-.23.33-.8.32-1.15.41-.02.01-.04.01-.06.02-.17.05-.34.1-.52.15-.61.17-1.21.33-1.86.37-.78.05-1.56.02-2.35-.03-.43-.02-.85-.05-1.28-.06-.2-.01-.4-.02-.59-.02-.08 0-.19-.01-.3-.02l-.36.03c-.01 0-.02.01-.02.01-.02.01-.04.01-.06 0-.51.04-1.02.08-1.54.11s-1.16.08-1.72.06c-.19.03-.39.04-.58.01-.12 0-.25-.02-.37-.05-.39.03-.79.02-1.19.03-.53.02-1.06.13-1.59.16-.51.03-1.01 0-1.52.04-.45.03-.91 0-1.36.05-.03 0-.05-.01-.06-.03-.46.05-.89.05-1.02-.25-.07-.16.46-.46.46-.67-.27-.02-.55-.03-.83-.03-.01-.02 0-.03 0-.04 1.31-.4 1.75-1.47 2.89-1.91.34-.13.53-.59.59-.85.21-.92.95-1.93 2.2-2.32.13-.04.25-.16.35-.21 2.33-1.32 4.16-.06 6.02.39m-1.33-2.3c-.02.07-.16.14-.22.16-.04-.14.1-.21.22-.16m.23 0c-.25-.11.16-.54.33-.53.11.24-.11.38-.33.53m.75-1c.02.09.05.14.1.23-.03.04-.08.13-.11.14-.02.02-.03-.01-.04-.01 0-.07.05-.12.06-.18-.03-.02-.07.01-.09-.02-.07-.08 0-.16.08-.16m-.16-.43c.38.29-.37.67-.1.23-.03-.05-.06-.08-.08-.14.01-.02.02-.05.03-.07.06-.02.1-.01.15-.02m-.68.3c-.04-.04.13-.43.19-.46.3-.2 0 .63-.19.46m.45-.61c.02.03.06.05.05.08-.03.05-.1.05-.13.04-.03-.04-.03-.05-.03-.1.04-.01.07 0 .11-.02m-.77.49c.1.04.17.15.18.27.54-.25.35.87-.07.38.01-.05.07-.08.13-.09.02-.01.01-.04.03-.05-.04-.05-.08-.08-.1-.16-.09.12-.29.19-.35-.02 0-.06.1-.08.08-.15-.95.51.25-1 .1-.18m.46-.78c.09.12-.1.36-.22.25-.16-.15.13-.38.22-.25m-.87.11c.03.05.01.08.02.12.04.02.09 0 .13.04.14.2-.06.44-.24.35-.02-.03.01-.05-.01-.08-.08.08-.28.08-.22-.07.06-.03.12-.06.16-.09-.18-.12.03-.41.16-.27m-.35-.02c-.04.05-.05.1-.07.16-.08.04-.15.02-.21.09-.01-.13.15-.2.21-.3.03.01.05 0 .07.05m.49-.52c.02.03.02.02.03.06-.02.04-.09.05-.11.03v-.06c.03-.03.05-.02.08-.03m2.4-10.38c.2.22-.22.58-.35.78-.11-.23.29-.52.35-.78m-1.89.91c-1.04.83-1.25 1.94-.96 3.22-.16.17-.36.24-.56.26-.01.01-.03.01-.04.02-.02.02-.04.05-.06.07.08.02.16.05.24.08-.04.05-.1.1-.15.14h-.04v.01c-.02.02-.04.03-.06.05.02 0 .03 0 .05-.01-.02.02-.04.05-.07.07-.02.05-.06.09-.11.11-.42.39-.98.75-1.61 1.04-.01.03-.02.05-.03.07.01.01.02.02.02.04.2.17.56.3.8.23.06-.02.08.04.07.09v.01c.02-.02.04-.05.07-.06h-.01c-.04-.05.03-.06.01-.1-.14-.05-.39-.03-.42-.24.15.02.3.05.45.07.02-.01.03-.01.05-.02.08-.05.18-.07.27-.1.01-.02.03-.05.03-.07-.13-.05-.35.04-.4-.14.18-.18.52.14.67-.12-.09-.06-.22 0-.28-.15.01-.01.02-.03.02-.05.23-.05.41.12.63-.13-.06-.08-.19-.03-.2-.18.19-.17.4.17.65-.11-.1-.05-.3-.06-.27-.22.25-.06.51.24.83-.05-.6-.51.05-.07.54-.08v-.02c.01-.08.13-.07.13.01.1-.02.19-.08.24-.18-.01-.12-.07-.13-.04-.26-.27-.02-.62.18-.91.2.05-.13 0-.31.15-.45.2.04.42.15.67-.04-.19-.03-.39-.02-.57-.08.18-.28.52-.06.76-.09a.33.33 0 0 0 0-.14c-.39-.01-.73-.16-1.11-.21-.02.11.03.24-.05.33-.07-.01-.17-.06-.19-.14-.03-.11-.04-.22-.05-.33-.01-.01-.02-.02-.02-.04-.06-.45.08-.88.29-1.27 0-.01.01-.01.01-.01.02-.08.1-.19.12-.22.01-.02.09-.14.16-.19.07-.1.13-.19.22-.27.03-.05.06-.09.09-.13.02-.03.05-.03.08-.02.01-.24.46.05.56.19.52.73.06 1.7.05 2.29l.07.13c-.01 3.51-1.55 6.65-3.96 9.33-.82.91-2.27 1.75-3.67 2.24-1.18-.54-2.68.51-4.23.86-.66.15-1.22-.13-1.78.05-.04-.09.11-.17.03-.23.07-.15.15-.3.24-.46.12-.55.57-1.07.9-1.49.23-.29.45-.6.73-.85.13-.12.29-.21.44-.31.03-.03.07-.07.1-.11.04-.05.09-.1.13-.16l-.29.03c-.24.15-.48.3-.7.49-.76.85-1.18 1.84-1.97 2.64.15-.34.33-.68.53-1.02.17-.54.53-1 .9-1.43.21-.25.43-.49.65-.73.13-.14.28-.28.43-.42-.01 0-.01-.01-.02-.02.03-.04.06-.07.09-.09-.01-.02-.01-.04.01-.06.22-.26.46-.51.7-.75.07-.14.29-.31.35-.37s.12-.11.18-.17c.18-.24.41-.44.66-.6 0-.01.01-.01.01-.01 0-.01.01-.02.01-.02.17-.21.41-.3.63-.43.11-.09.22-.19.32-.28.07-.08.14-.16.24-.22.45-.4.88-.82 1.25-1.25.79-1.64 2.38-3.1 3.4-4.75.55-.88 1.6-1.56 2.36-2.33.18-.03.38-.01.54.11m-1.84-.02c.22-.05.42.15.6 0-.05-.1-.17.02-.2-.11.2-.03.41-.08.58-.02l-.12.09c.02.04.01.09-.04.1-.23.04-.52.4-.69.56-.33.3-.64.62-.93.97-.59.72-1.1 1.49-1.65 2.23-.56.75-1.22 1.44-1.69 2.26-.31.53-.62 1.16-1.14 1.51-.18.19-.38.36-.59.51-.09.1-.19.18-.3.25a.7.7 0 0 1-.1.08c-.02.01-.03.02-.05.02-.01.01-.03.02-.04.03-.01 0-.01 0-.01.01-.02.02-.05.01-.07 0-.05-.01-.08-.07-.03-.11 0 0 0-.01.01-.01.02-.03.05-.06.07-.08.05-.1.09-.21.16-.3.01-.01.02-.02.04-.02.02-.03.04-.07.05-.09.1-.2.2-.4.31-.6.03-.07.07-.13.11-.2.08-.23.23-.44.39-.64.25-.39.51-.78.76-1.18.47-.78 1.09-1.45 1.64-2.17.43-.57.84-1.17 1.28-1.73.33-.61.79-1.18 1.65-1.36m-7.43 7.61c.17-.36.37-.74.67-.97h.01c.3-.44.65-.85 1.02-1.25.46-.5.83-1.07 1.31-1.54.83-1.07 1.7-2.12 2.82-3.06-1.73 2.53-3.75 4.95-5.06 7.62.02.01.03.04.02.07-.05.21-.19.28-.34.42-.2.19-.39.39-.59.58-.38.34-.73.72-1.11 1.06-.31.35-.63.7-.94 1.06-.41.5-.8 1.01-1.17 1.53-.12.2-.23.42-.4.56-.01.02-.01.03-.02.05-.02.06-.1.05-.12.01-.01-.01-.01-.03-.01-.05.13-.69.74-1.32 1.18-1.84.35-.41.75-.78 1.13-1.17.17-.21.33-.43.53-.6l.01-.01c.07-.09.14-.19.21-.29.02-.03.05-.03.07-.02l.37-.4c0-.02.01-.03.04-.04.08-.08.16-.17.24-.25l.2-.2c.02-.03.04-.06.06-.1.12-.34.22-.69.41-1 .01-.02.01-.04.02-.06 0-.01.01-.03.01-.04.02-.12.03-.24.04-.35 0 0 0 .01-.01.01-.38.72-.59 1.54-1.25 2.08-.02.02-.03.04-.05.06-.01.02-.03.02-.05.02-.04.01-.09-.03-.07-.08.02-.05.04-.1.05-.15v-.01c.03-.13.05-.27.1-.4.09-.39.31-.74.57-1.07.02-.07.06-.12.1-.18m-.89 1.2c.01.21-.08.55-.19.78-1.08 1.4-2.39 2.73-3.35 4.18.85-1.77 2.01-3.43 3.54-4.96m-5.11 2.89c.06.13.55 1.24.29 1.3.06-.02-1.11-1.63-.29-1.3m-1.25-.39c-.05.01-.08-.02-.13-.01 0-.06.1-.01.13.01m-.27-.06c-.26-.01-.51-.03-.73-.14.23-.02.55.03.73.14m-.87-.19c-.9-.11-1.81-.3-2.63-.5.96-.08 1.82.26 2.63.5m-2.78-.52c.01.13-.24.1-.23-.03.01 0 .02-.01.02-.02.07 0 .15 0 .21.05" id="path852" fill="#00f"/><path class="st0" d="M122.48 8.42h.03c.03-.01.06.01.07.03h.05c.01-.02.03-.03.04-.04-.09-.02-.17-.04-.26-.08.02.03.04.05.06.08 0 .01.01.01.01.01" id="path854" fill="#00f"/><path class="st0" d="M123.82 23.72c-.04-.01-.09-.03-.13-.04-.06.02-.13.06-.19.09.07.03.14.07.21.1.04-.03.08-.07.12-.1-.01-.02-.01-.03-.01-.05" id="path856" fill="#00f"/><path class="st0" d="M119.55 17.65c-.19.14-.29.33-.35.53.06-.03.12-.05.18-.08.04-.16.09-.31.17-.45" id="path858" fill="#00f"/><path class="st0" d="M118.7 20.19c.01.06.04.11.08.14.09-.05.17-.1.25-.16-.09 0-.17-.02-.23-.09-.03.04-.07.07-.1.11" id="path860" fill="#00f"/><path class="st0" d="M123.17 24.43c-.14.01-.28.03-.43.05l-.01-.01c-.23.05-.46.06-.69.06-.26 0-.57.01-.8-.12l-.01-.01c-.87-.05-1.75-.08-2.62-.13.17.02.33.04.48.06.48.06.96.11 1.44.13.55.03 1.09.08 1.63.1.32.01.65.02.97-.04-.01-.02 0-.07.04-.09" id="path862" fill="#00f"/><path class="st0" d="M123.56 24.41c.01 0 .02-.01.03-.01-.08 0-.16.01-.24.01h.21" id="path864" fill="#00f"/><path class="st0" d="M121.56 24.18h.11c.14-.01.3-.01.45-.05-.05-.01-.09-.04-.13-.1-.08-.03-.16-.06-.25-.08-.12.08-.27.13-.43.15.09.03.17.05.25.08" id="path866" fill="#00f"/><path class="st0" d="M121.85 24.3c.08.03.16.07.24.11.17 0 .35-.01.53-.04-.05-.04-.11-.08-.16-.13.01-.01.02-.02.03-.02a.487.487 0 0 1-.11-.04c-.16.08-.35.1-.53.12" id="path868" fill="#00f"/><path class="st0" d="M134.12 21.31c.05-.05.1-.1.14-.15.03-.04.08-.1.11-.16-.1.01-.19 0-.28 0-.06.11-.15.2-.25.28l.28.03" id="path870" fill="#00f"/><path class="st0" d="M133.28 21.13c.12-.06.22-.13.3-.22-.01 0-.02-.01-.04-.02-.01.01-.03.02-.05.02-.09-.02-.18-.04-.27-.08-.07.07-.14.13-.21.19.09.04.18.07.27.11" id="path872" fill="#00f"/><path class="st0" d="M132.54 20.74c.11.08.23.15.35.22.07-.06.13-.12.2-.19-.12-.06-.23-.13-.33-.21-.08.06-.15.12-.22.18" id="path874" fill="#00f"/><path class="st0" d="M126.67 18.81c.75.21 2.12.72 2.28 1.71.37.12-.12.35-.21.5.12-.03.23-.07.35-.11.08-.13.16-.26.26-.38-.07.01-.14.01-.2.01.96-.73 1.97-.52 2.77-.37.17.18.34.34.52.47.07-.06.14-.12.22-.18-.03-.03-.06-.05-.09-.08a.062.062 0 0 1-.01-.07c-.04-.03-.07-.05-.11-.1.28-.14.53-.34.7-.49.05.23-.16.43-.37.55l.02.02c.01-.01.03-.02.06-.01v.02s.01 0 .01.01h.01c.01-.01.02-.02.03-.02h.01c.04-.02.07-.01.1.01.15-.1.32-.18.33-.33.14-.06.24.01.36 0-.25-.19-.58-.32-.93-.42-.1.18-.27.49-.55.51.04-.22.41-.33.42-.56-.06-.06-.13-.08-.21-.11-.17.14-.41.59-.66.36.26-.11.37-.28.53-.42-.07-.09-.16-.12-.24-.16-.09.23-.53.53-.81.49.19-.18.57-.26.71-.47-.07-.04-.13-.09-.21-.06-.82.25-1.77.97-2.59 1 .64-.27 1.65-.65 2.37-1.08-.04-.08-.12-.06-.17-.1-.72.45-1.6.7-2.25 1.05-.71-.74-1.54-1.09-2.45-1.19" id="path876" fill="#00f"/><path class="st0" d="M133.67 21.24c.1-.07.2-.16.28-.27-.08-.01-.15-.02-.23-.04-.07.1-.16.19-.27.25.07.03.14.05.22.06" id="path878" fill="#00f"/><path class="st0" d="M134.31 21.31h.21c0-.01 0-.01.01-.02.04-.07.08-.14.11-.21l.01-.01h-.01c-.03-.01-.06-.03-.1-.04-.01-.01-.02-.01-.02-.02-.03.09-.12.2-.21.3" id="path880" fill="#00f"/><path class="st0" d="M122.92 8.53c-.02.01-.05.02-.07.04 0 .09.01.18.02.26.03-.03.07-.06.1-.09-.01-.07-.03-.14-.05-.21" id="path882" fill="#00f"/><path class="st0" d="M115.77 16.14c-.12.02-.23.03-.33.03-.3.21-.6.44-.88.66-.06.05-.15-.05-.08-.1.01-.01.03-.02.04-.03-.48.25-.94.49-1.15.85.39-.16.87-.45 1.37-.69.35-.22.69-.47 1.03-.72" id="path884" fill="#00f"/><path class="st0" d="M116.76 16.31h.13a.693.693 0 0 1-.03-.2c-.26-.03-.54-.06-.75.07-.04.02-.08-.01-.09-.04l-.33.24c.14-.05.28-.07.43-.08.1-.01.19-.02.27 0 .12-.02.25-.01.37.01" id="path886" fill="#00f"/><path class="st0" d="M116.43 16.44c.01-.01.02-.01.03-.02a.292.292 0 0 0-.09-.02h-.23c-.06.01-.12.02-.18.04 0 .02-.02.05-.05.05-.03.01-.07.01-.1.02.19-.03.39-.06.51-.05.03 0 .07-.01.11-.02" id="path888" fill="#00f"/><path class="st0" d="M116.41 15.94c.15-.01.3 0 .45.02 0-.16.03-.31.07-.44-.18.1-.36.21-.54.33.01.04.02.07.02.09" id="path890" fill="#00f"/><path class="st0" d="M117.68 21c.07-.07.14-.15.21-.22l-.44.06c-.13.1-.25.2-.38.31.21-.03.42-.09.61-.15" id="path892" fill="#00f"/><path class="st0" d="M116.1 21.76c.07-.03.13-.07.19-.11-.04 0-.09 0-.14-.01-.08-.01-.07-.14.01-.13.1.01.2.01.3.01.09-.07.17-.15.26-.23-.04 0-.08-.01-.13-.01-.08-.01-.07-.14.01-.13.08.01.17.01.25.01l.3-.27c-.02.01-.05.01-.07.02a.064.064 0 0 1-.07-.09c-.49.32-.96.65-1.33 1.07.11-.01.21-.04.3-.07 0-.04.04-.08.08-.06h.04" id="path894" fill="#00f"/><path class="st0" d="M118.23 21.21c.11-.11.22-.22.31-.3-.13 0-.27.03-.41.07-.15.13-.3.27-.46.4.18-.05.37-.1.56-.17" id="path896" fill="#00f"/><path class="st0" d="M117.04 21.62c-.19.02-.39.04-.58.03-.07.06-.14.11-.2.17.13.04.27.07.42.08.12-.08.24-.18.36-.28" id="path898" fill="#00f"/><path class="st0" d="M116.13 21.92c-.03.02-.05.04-.08.06-.29.23-.1.28.16.17.09-.04.18-.09.27-.14-.11-.01-.23-.04-.35-.09" id="path900" fill="#00f"/><path class="st0" d="M117.17 15.55c.08-.02.21-.07.36-.12.05-.07.1-.13.15-.2-.15.04-.3.09-.46.15-.05.05-.02.12-.05.17" id="path902" fill="#00f"/><path class="st0" d="M118.19 15.29c.06-.06.13-.12.19-.18-.17.02-.35.04-.53.08l-.12.18c.18-.06.36-.1.46-.08" id="path904" fill="#00f"/><path class="st0" d="M123.89 11.35c-.12 0-.24-.01-.35 0-.09.11-.15.25-.21.39.1 0 .21.04.28.1-.07.07-.24.12-.35.08-.03.07-.05.15-.08.22.12.02.25.03.38.03.08-.18.15-.37.23-.55.01-.03.02-.05.03-.08-.1-.02-.19-.04-.3-.05-.01-.01-.01-.02 0-.03.09.02.21.02.32.02.02-.05.03-.09.05-.13" id="path906" fill="#00f"/><path class="st0" d="M123.33 12.64c-.15.03-.3.03-.44.03-.05.07-.1.15-.15.22.15 0 .3-.01.46-.04.01-.01.02-.02.02-.04a.62.62 0 0 0 .11-.17" id="path908" fill="#00f"/><path class="st0" d="M123.11 12.28c-.04.07-.07.14-.11.21.12.02.25.04.38.06.06-.11.11-.22.15-.33-.14.05-.28.07-.42.06" id="path910" fill="#00f"/><path class="st0" d="M124.17 11.51c-.08.03-.15.03-.22.03a9 9 0 0 0-.22.55c-.07.17-.14.33-.22.48.03 0 .05.01.08.01l-.1.03-.12.21c.02 0 .03-.01.05-.01-.02.01-.04.02-.07.04-.07.11-.14.23-.22.34-.16.24-.33.49-.51.73.13-.03.26-.08.36-.18.05 0 .08.03.12.05.12-.14.23-.27.32-.42-.12-.06-.34.18-.43.04.18-.08.34-.18.48-.28.01-.23.21-.47.32-.66.2-.34.33-.73.46-1.1-.07-.01-.15-.01-.22-.02-.02.04-.04.08-.05.12.08.01.14.02.19.04" id="path912" fill="#00f"/><path class="st0" d="M124.01 12.37c-.1.18-.29.41-.36.63.49-.44.7-1.02.86-1.6-.04-.01-.07-.01-.11-.01-.12.33-.23.68-.39.98" id="path914" fill="#00f"/><path class="st0" d="M123.15 12.94c-.17.06-.34.09-.51.1-.08.11-.17.22-.25.32h.27c-.12.05-.23.08-.35.1-.23.28-.48.57-.74.84.08.02.15.04.23.07-.09 0-.18-.01-.28-.02-.37.38-.77.72-1.22.96 0 .02-.01.05-.03.06-.23.11-.44.25-.62.42.32-.09.64-.19.95-.31.49-.33 1.01-.63 1.42-1.06l.27-.3c-.14.01-.27 0-.36-.1.14-.07.33-.07.51-.09.25-.31.49-.65.71-.99" id="path916" fill="#00f"/><path class="st0" d="M118.43 15.81c-.01.01-.02.01-.02.02-.01.01-.02.01-.03.02 0 0-.01 0-.01.01-.08.06-.15.12-.23.18h.05c0-.02.01-.04.03-.05.2-.1.41-.2.6-.32-.05-.02-.08-.07-.06-.14-.11.09-.22.18-.33.28" id="path918" fill="#00f"/><path class="st0" d="M118.96 15.74c-.16.1-.34.19-.51.28.31-.03.62-.09.95-.16.2-.22.44-.4.7-.54 0-.02.01-.04.03-.06.27-.14.51-.31.73-.49-.15.07-.42.08-.39-.1-.2.18-.41.34-.62.5.01.06-.05.09-.14.1-.14.1-.28.21-.43.3-.02.02-.05.04-.08.06l-.18.12c-.02.03-.05.02-.06-.01" id="path920" fill="#00f"/><path class="st0" d="M117.76 16.05c.06-.02.12-.05.18-.08.18-.11.34-.24.49-.37.02-.02.04-.02.06-.01.35-.29.73-.54 1.08-.83.04-.03.08-.07.12-.1-.17-.01-.34-.04-.39-.04-.07 0-.15 0-.23.01l-.3.33c.13.01.24.04.34.09-.16.02-.32.04-.48.05-.34.33-.7.63-1.04.96.05-.01.11-.01.17-.01" id="path922" fill="#00f"/><path class="st0" d="M121.24 15.21c.69-.33 1.29-.74 1.69-1.19-.14.01-.29.05-.44.08-.15.18-.3.36-.47.51-.24.22-.51.42-.78.6" id="path924" fill="#00f"/><path class="st0" d="M120.71 14.27c-.13-.02-.27-.03-.41-.04-.09.1-.19.2-.28.29.01.01.02.02.03.04.02.07-.06.1-.18.1-.07.07-.15.13-.22.19-.29.23-.6.45-.89.68.08.01.24-.04.36-.06.01-.01.03-.02.04-.03.03-.02.07-.01.09.01.08-.06.16-.11.24-.17-.09-.01-.17-.03-.19-.05-.13-.15.22-.15.42-.13.35-.25.68-.53.99-.83" id="path926" fill="#00f"/><path class="st0" d="M118.17 14.52c-.1.05-.21.1-.31.16.09-.04.18-.07.26-.09.01-.02.03-.05.05-.07" id="path928" fill="#00f"/><path class="st0" d="M119.03 14.45c.06-.06.11-.13.16-.19l.02-.03c-.27.03-.54.09-.81.19l-.09.12c.25-.06.49-.08.72-.09" id="path930" fill="#00f"/><path class="st0" d="M119.47 14.47c.06.01.26-.01.41.01.09-.08.17-.17.26-.26a4.57 4.57 0 0 0-.74 0c-.07.08-.13.16-.2.24.09-.01.18 0 .27.01" id="path932" fill="#00f"/><path class="st0" d="M120.87 14.76c.16-.13.31-.28.46-.43-.15-.01-.29-.03-.44-.05-.13.12-.25.25-.39.36.13-.02.24 0 .36.01.04.06.01.08.01.11" id="path934" fill="#00f"/><path class="st0" d="M121.04 13.17c.06-.08.12-.16.18-.25-.26-.02-.52-.01-.79.07-.02.03-.05.05-.07.08.23.02.45.05.68.1" id="path936" fill="#00f"/><path class="st0" d="M121.6 13.28c.02-.02.03-.04.05-.07.06-.08.11-.15.16-.22l-.43-.06c-.06.09-.13.18-.19.26.13.03.27.06.41.09" id="path938" fill="#00f"/><path class="st0" d="M121.97 13.01c-.07.1-.14.2-.21.29l.47.06c.08-.1.17-.2.24-.31-.17 0-.34-.02-.5-.04" id="path940" fill="#00f"/><path class="st0" d="M119.98 13.5l.66.15c.05-.06.09-.11.14-.16l.16-.19c-.27-.05-.53-.07-.78 0-.06.06-.12.13-.18.2" id="path942" fill="#00f"/><path class="st0" d="M121.09 13.32l-.3.36.41.09c.1-.12.2-.23.3-.36-.14-.03-.28-.06-.41-.09" id="path944" fill="#00f"/><path class="st0" d="M118.74 14.02c-.04.05-.09.1-.13.15.25-.05.49-.08.73-.09.11-.14.23-.28.34-.41-.29.02-.59.11-.9.32-.02 0-.03.02-.04.03" id="path946" fill="#00f"/><path class="st0" d="M120.26 14.08c.1-.11.2-.22.29-.33-.23-.05-.47-.09-.71-.09-.11.14-.22.27-.34.41.27-.02.52-.01.76.01" id="path948" fill="#00f"/><path class="st0" d="M120.84 14.15c.1-.1.19-.2.29-.3-.14-.02-.28-.05-.42-.07-.09.11-.18.21-.28.32.13.01.27.02.41.05" id="path950" fill="#00f"/><path class="st0" d="M122.12 13.48c-.16 0-.32-.01-.48-.04-.06.07-.12.15-.18.22-.04.05-.08.09-.12.14.14.03.29.05.43.06-.17.02-.33.02-.49.01-.09.11-.19.21-.29.31.14.03.27.05.4.09.03-.04.07-.07.1-.1.22-.23.43-.46.63-.69" id="path952" fill="#00f"/><path class="st0" d="M121.48 12.53c-.15.01-.31.04-.47.09.12.02.25.04.37.07.03-.05.06-.11.1-.16" id="path954" fill="#00f"/><path class="st0" d="M121.63 12.52c-.03.05-.05.09-.08.14a.21.21 0 0 1-.04.06l.42.09.15-.24c-.14-.03-.29-.05-.45-.05" id="path956" fill="#00f"/><path class="st0" d="M122.23 12.59l-.15.24c.16.03.33.05.5.06.05-.08.1-.15.15-.23-.17-.02-.33-.05-.5-.07" id="path958" fill="#00f"/><path class="st0" d="M122.57 11.7c.01-.02.03-.05.05-.07l-.25.03c.06.02.13.03.2.04" id="path960" fill="#00f"/><path class="st0" d="M122.9 11.41c.03.02.05.06.02.09.01.02.02.03.01.06-.04.01-.08.03-.11.04-.04.04-.08.09-.12.15.04.04 0 .13-.07.11h-.01l-.09.15c.17.04.34.08.51.11.05-.1.09-.19.13-.29v-.03c.01-.01.01-.01.02-.01.05-.13.11-.29.19-.42-.15-.01-.32.01-.48.04" id="path962" fill="#00f"/><path class="st0" d="M121.74 11.87c.04 0 .08.01.12.01.03-.04.06-.08.09-.11-.07.03-.14.06-.21.1" id="path964" fill="#00f"/><path class="st0" d="M122.01 11.9c.14.02.27.04.4.07.03-.05.05-.1.08-.15-.04-.01-.08-.02-.12-.02-.04-.01-.09-.01-.13-.02-.01 0-.03 0-.05-.01h-.02c-.01 0-.03 0-.04-.01-.04.05-.08.09-.12.14" id="path966" fill="#00f"/><path class="st0" d="M120.79 12.39c.29-.08.56-.1.82-.1.04-.07.07-.13.11-.2-.29.01-.6.08-.93.3" id="path968" fill="#00f"/><path class="st0" d="M121.87 12.1c-.04.07-.08.13-.12.2.16.01.31.03.46.05.03-.06.07-.12.11-.19-.15-.03-.3-.06-.45-.06" id="path970" fill="#00f"/><path class="st0" d="M122.44 12.18c-.03.06-.06.13-.09.19.17.03.33.06.5.1.04-.06.07-.13.11-.19-.17-.02-.34-.06-.52-.1" id="path972" fill="#00f"/><path class="st0" d="M117.04 10.65c.03.01.06.04.05.08.12-.06.21-.13.19-.26-.05-.02-.13.02-.21.06z" id="path974" fill="#00f"/><path class="st0" d="M117.13 10.28v.03c0 .01 0 .02-.01.03.24-.13.56-.22.52-.46-.16.06-.32.1-.48.16 0 .06-.01.13-.01.19 0 .02-.01.04-.02.05" id="path976" fill="#00f"/><path class="st0" d="M116.94 11.27c.03-.02.05-.05.08-.07.05-.05.03-.11.04-.17-.02-.01-.05.01-.08.02-.01.08-.03.15-.04.22" id="path978" fill="#00f"/><path class="st0" d="M122.48 24.07c.04.01.08.03.12.04l.21-.15c-.12-.13-.26-.05-.39.04.03.01.06.04.06.07" id="path980" fill="#00f"/><path class="st0" d="M129.89 20.39c-.03.11-.09.23-.17.32.04-.01.08-.02.12-.04-.07.03-.12.06-.17.09-.02.02-.04.03-.06.05.44-.06.99-.27 1.41-.57-.31-.14-.72.02-1.13.15" id="path982" fill="#00f"/><path class="st0" d="M117.84 23.36c.1.01.21.02.32.02.01-.01.01-.02 0-.03a.878.878 0 0 0-.32.01" id="path984" fill="#00f"/><path class="st0" d="M133.67 20.29c.08-.06.17-.11.27-.16-.22-.15-.4-.01-.59.16.11-.01.21-.01.32 0" id="path986" fill="#00f"/><path class="st0" d="M122.48 6.55c-.24.01-.46.06-.65.17.17-.01.33-.01.49 0 .05-.06.1-.11.16-.17" id="path988" fill="#00f"/><path class="st0" d="M122.66 6.55c-.05.06-.11.12-.17.18l.41.03c.05-.06.1-.13.14-.19-.13-.02-.26-.02-.38-.02" id="path990" fill="#00f"/><path class="st0" d="M123.04 6.77h.13c.14-.08.3-.11.45-.12l-.45-.06c-.05.05-.09.11-.13.18" id="path992" fill="#00f"/><path class="st0" d="M125.11 8.2c-.02.06-.04.12-.05.19l.18.03h.06c.01-.06.03-.12.05-.18-.09-.01-.17-.02-.24-.04" id="path994" fill="#00f"/><path class="st0" d="M123.87 8.07c-.02.03-.04.06-.06.1.09.02.18.03.26.05.02-.06.04-.11.06-.16-.08-.01-.17 0-.26.01" id="path996" fill="#00f"/><path class="st0" d="M124.21 8.24l.33.06c.02-.06.03-.12.05-.18l-.2-.03h-.01c-.01 0-.02 0-.03-.01-.02 0-.04-.01-.07-.01-.03.05-.05.11-.07.17" id="path998" fill="#00f"/><path class="st0" d="M124.72 8.14c-.02.06-.03.12-.05.19.09.02.17.03.26.05.02-.06.03-.12.05-.19-.09-.02-.17-.04-.26-.05" id="path1000" fill="#00f"/><path class="st0" d="M125.74 8.33s0-.01 0 0c-.09-.03-.19-.04-.28-.06-.01.05-.03.1-.04.15.12-.01.22-.04.32-.09" id="path1002" fill="#00f"/><path class="st0" d="M116.19 15.68l-.09.06c-.01.01-.02.01-.04.02-.06.03-.11.07-.17.1h.27c.52-.36 1.05-.68 1.65-.84.03-.04.06-.08.09-.13-.36.11-.72.26-1.06.43a.21.21 0 0 0-.06.04l.02-.02c-.18.09-.35.19-.52.29-.03.01-.06.03-.09.05" id="path1004" fill="#00f"/></g></g></svg>