<svg xmlns="http://www.w3.org/2000/svg" width="86" height="86.053"><g data-name="Group 93" fill="#00f" fill-rule="evenodd"><path data-name="Path 1168" d="M29.983 25.692a30.112 30.112 0 0 0-21.146 8.834 30.187 30.187 0 0 0 42.691 42.689 30.219 30.219 0 0 0 3.695-38.209 1.001 1.001 0 0 0-1.664 1.113v.007A28.2 28.2 0 0 1 50.108 75.8a28.185 28.185 0 1 1-4.186-43.311 1 1 0 1 0 1.135-1.649l-.015-.01a30.131 30.131 0 0 0-17.062-5.138z"/><path data-name="Path 1169" d="M30.385 34.163A21.7 21.7 0 1 0 49.11 45.226a1.001 1.001 0 1 0-1.754.965l.01.018a19.709 19.709 0 1 1-7.527-7.526 1.001 1.001 0 0 0 1-1.735l-.016-.009a21.654 21.654 0 0 0-10.437-2.78z"/><path data-name="Path 1170" d="M30.272 42.637a13.239 13.239 0 0 0-9.456 22.6 13.242 13.242 0 0 0 21.968-13.419 1 1 0 0 0-1.914.584l.009.03a11.24 11.24 0 0 1-18.646 11.387A11.24 11.24 0 0 1 33.62 45.173a1.001 1.001 0 1 0 .632-1.9l-.022-.007a13.26 13.26 0 0 0-3.958-.631z"/><path data-name="Path 1171" d="M68.917.272L58.158 11a1 1 0 0 0-.25.531l-3.472 18.673-21.581 21.581a4.8 4.8 0 0 0-2.659-.813 4.911 4.911 0 1 0 0 9.821 4.9 4.9 0 0 0 4.066-7.6l21.581-21.582 18.673-3.44a1.01 1.01 0 0 0 .531-.282l10.728-10.763a1.057 1.057 0 0 0-.75-1.689.869.869 0 0 0-.125 0l-17.547 3.289-.031-.031 3.284-17.516a1.022 1.022 0 0 0-1.689-.907zm-.876 3.69l-2.877 15.514-8.226 8.225 2.878-15.482zm14.044 14.044l-8.257 8.257-15.482 2.877 8.225-8.257zM30.2 52.973a2.909 2.909 0 0 1 0 5.818 2.909 2.909 0 1 1 0-5.818z"/></g></svg>