<svg xmlns="http://www.w3.org/2000/svg" width="14.057" height="29.163"><path d="M.5 14.628v-4.9h2.826v-2.07a12.623 12.623 0 0 1 .094-1.883 8.459 8.459 0 0 1 .659-2.543A4.455 4.455 0 0 1 6.717.971a10 10 0 0 1 1.79-.377C8.978.594 9.355.5 9.826.5h3.484c.188 0 .188 0 .188.188v4.616c0 .094 0 .094-.188.094h-2.543a2.074 2.074 0 0 0-.754.094 1.358 1.358 0 0 0-.848 1.036v3.2h4.333c-.188 1.7-.377 3.3-.471 4.9H9.354c-.094 0-.094 0-.094.094v13.94H3.514V14.723c0-.188 0-.188-.188-.188H.783a.729.729 0 0 1-.283.093z" fill="none" stroke="#fff"/></svg>